<svg t="1618993433887" class="icon" viewBox="0 0 1024 1024" version="1.1" xmlns="http://www.w3.org/2000/svg" p-id="30678" width="200" height="200"><path d="M168.7 49.3h20v41h-20zM188.7 874.7h-20V791.1h20v83.6z m0-112.1h-20V679.1h20v83.5z m0-112h-20V567.1h20v83.5z m0-112.1h-20v-83.5h20v83.5z m0-112h-20v-83.5h20v83.5z m0-112.1h-20v-83.5h20v83.5z m0-112h-20V118.9h20v83.5zM168.7 903.2h20v41h-20z" fill="#47B5B5" p-id="30679"></path><path d="M878.2 464.6H232.8L356.3 187.7H512v20H369.3L263.6 444.6h583.8L742 207.7H599.1v-20h155.8z" fill="#CFCFCF" p-id="30680"></path><path d="M545.5 81.6h20v230.6h-20z" fill="#47B5B5" p-id="30681"></path><path d="M878.2 913.6H232.8l123.5-276.9H512v20H369.3L263.6 893.6h583.8L742 656.7H599.1v-20h155.8z" fill="#CFCFCF" p-id="30682"></path><path d="M545.5 530.6h20v230.6h-20z" fill="#47B5B5" p-id="30683"></path></svg>