<svg t="1618560810869" class="icon" viewBox="0 0 1024 1024" version="1.1" xmlns="http://www.w3.org/2000/svg" p-id="52163" width="200" height="200"><path d="M921.6 0H102.4a102.4 102.4 0 0 0-102.4 102.4v819.2a102.4 102.4 0 0 0 102.4 102.4h819.2a102.4 102.4 0 0 0 102.4-102.4V102.4a102.4 102.4 0 0 0-102.4-102.4z m-365.056 724.48H322.56a76.8 76.8 0 0 1-76.8-76.8V301.568a77.312 77.312 0 0 1 76.8-76.8h346.112a76.8 76.8 0 0 1 76.8 76.8v252.416h-38.4V301.568a38.912 38.912 0 0 0-38.4-38.4H322.56a38.912 38.912 0 0 0-38.4 38.4v346.112a38.4 38.4 0 0 0 38.4 38.4h233.984zM380.416 378.88a19.456 19.456 0 0 1-19.456-20.48 18.944 18.944 0 0 1 19.456-18.944h230.4a18.944 18.944 0 0 1 19.456 18.944 19.456 19.456 0 0 1-19.456 19.456z m173.056 95.744a19.456 19.456 0 0 1-19.456 19.456h-153.6a19.456 19.456 0 0 1-19.456-19.456 18.944 18.944 0 0 1 19.456-18.944h153.6a18.944 18.944 0 0 1 19.456 18.944z m18.944 134.656H380.416a18.944 18.944 0 0 1-19.456-18.944 19.456 19.456 0 0 1 19.456-19.456h192a19.456 19.456 0 0 1 19.456 19.456 18.944 18.944 0 0 1-19.456 18.944z m233.984 117.248h-76.8v76.8a18.944 18.944 0 0 1-19.456 18.944 18.432 18.432 0 0 1-18.944-18.944v-76.8H614.4a19.456 19.456 0 0 1 0-38.912h76.8v-76.8a18.432 18.432 0 0 1 18.944-18.944 18.944 18.944 0 0 1 19.456 18.944v76.8h76.8a19.456 19.456 0 0 1 0 38.912z" fill="#27A3FF" p-id="52164"></path></svg>