<?xml version="1.0" standalone="no"?><!DOCTYPE svg PUBLIC "-//W3C//DTD SVG 1.1//EN" "http://www.w3.org/Graphics/SVG/1.1/DTD/svg11.dtd"><svg t="1637909249886" class="icon" viewBox="0 0 1024 1024" version="1.1" xmlns="http://www.w3.org/2000/svg" p-id="8126" xmlns:xlink="http://www.w3.org/1999/xlink" width="200" height="200"><defs><style type="text/css"></style></defs><path d="M0 0h1024v1024H0V0z" fill="#202425" opacity=".01" p-id="8127"></path><path d="M409.6 136.533333a34.133333 34.133333 0 0 1 34.133333-34.133333h477.866667a34.133333 34.133333 0 0 1 34.133333 34.133333v136.533334a34.133333 34.133333 0 0 1-34.133333 34.133333H443.733333a34.133333 34.133333 0 0 1-34.133333-34.133333V136.533333z m0 307.2a34.133333 34.133333 0 0 1 34.133333-34.133333h477.866667a34.133333 34.133333 0 0 1 34.133333 34.133333v136.533334a34.133333 34.133333 0 0 1-34.133333 34.133333H443.733333a34.133333 34.133333 0 0 1-34.133333-34.133333v-136.533334z m34.133333 273.066667a34.133333 34.133333 0 0 0-34.133333 34.133333v136.533334a34.133333 34.133333 0 0 0 34.133333 34.133333h477.866667a34.133333 34.133333 0 0 0 34.133333-34.133333v-136.533334a34.133333 34.133333 0 0 0-34.133333-34.133333H443.733333z" fill="#11AA66" p-id="8128"></path><path d="M68.266667 136.533333a34.133333 34.133333 0 0 1 34.133333-34.133333h136.533333a34.133333 34.133333 0 0 1 34.133334 34.133333v136.533334a34.133333 34.133333 0 0 1-34.133334 34.133333H102.4a34.133333 34.133333 0 0 1-34.133333-34.133333V136.533333z m0 307.2a34.133333 34.133333 0 0 1 34.133333-34.133333h136.533333a34.133333 34.133333 0 0 1 34.133334 34.133333v136.533334a34.133333 34.133333 0 0 1-34.133334 34.133333H102.4a34.133333 34.133333 0 0 1-34.133333-34.133333v-136.533334z m34.133333 273.066667a34.133333 34.133333 0 0 0-34.133333 34.133333v136.533334a34.133333 34.133333 0 0 0 34.133333 34.133333h136.533333a34.133333 34.133333 0 0 0 34.133334-34.133333v-136.533334a34.133333 34.133333 0 0 0-34.133334-34.133333H102.4z" fill="#FFAA44" p-id="8129"></path></svg>