<svg t="1618560743043" class="icon" viewBox="0 0 1024 1024" version="1.1" xmlns="http://www.w3.org/2000/svg" p-id="51935" width="200" height="200"><path d="M885.6 544.1H137.4c-5.5 0-10-4.5-10-10V107.3c0-5.5 4.5-10 10-10h748.1c5.5 0 10 4.5 10 10v426.8c0.1 5.5-4.4 10-9.9 10z" fill="#90CAF9" p-id="51936"></path><path d="M174 144.4h675.1v350.9H174z" fill="#FFFFFF" p-id="51937"></path><path d="M627.9 284.3C598.4 185.7 504 190.7 504 190.7c132.4 65 73 157 73 157l-76.8-78.4 29.3-32.1-20.1-18.6-15.9 14.3-29.7-0.4-60.4 61.5 36.7 33.2 22.8-22 78.3 76.1c-66.4 43.6-127-28.2-127-28.2L390.3 374l18.1 21.3-3.1 4.2c-8.5-0.8-11.9 3.1-11.9 3.1-20.8 20.1 4.2 31.3 4.2 31.3 24.4 5.4 23.2-19.7 23.2-19.7l4.6-5.8c91.5 49.5 145.5 5 145.5 5l26.2 24.7 35.9-36-23.5-25.5c-0.1 0 31.9-47 18.4-92.3z" fill="#FD0000" p-id="51938"></path><path d="M774.9 464.8c55.7 0 100.8 45.1 100.8 100.8 0 55.7-45.1 100.8-100.8 100.8s-100.8-45.1-100.8-100.8c0-55.7 45.1-100.8 100.8-100.8zM147.8 566.1c0 55.7 45.1 100.8 100.8 100.8s100.8-45.1 100.8-100.8-45.1-100.8-100.8-100.8-100.8 45.1-100.8 100.8z" fill="#FFB74D" p-id="51939"></path><path d="M926.6 866.9H624.7v-65.5s41.5-119.3 150.9-119.3 150.9 119.3 150.9 119.3v65.5z m-527.3-65s-41.5-119.3-150.9-119.3-151 119.3-151 119.3v65.5h301.9v-65.5z" fill="#455A64" p-id="51940"></path><path d="M383.4 544.1c0 70.7 57.3 128 128 128s128-57.3 128-128-57.3-128-128-128-128 57.4-128 128z" fill="#FFB74D" p-id="51941"></path><path d="M702.7 843.5S650 692 511.1 692 319.5 843.5 319.5 843.5v83.2h383.3v-83.2z" fill="#607D8B" p-id="51942"></path></svg>