<svg t="1618560217288" class="icon" viewBox="0 0 1024 1024" version="1.1" xmlns="http://www.w3.org/2000/svg" p-id="32811" width="200" height="200"><path d="M930.909091 930.909091a93.090909 93.090909 0 0 1-93.090909 93.090909H186.181818a93.090909 93.090909 0 0 1-93.090909-93.090909V93.090909a93.090909 93.090909 0 0 1 93.090909-93.090909h465.454546l279.272727 279.272727v651.636364z" fill="#FF8200" p-id="32812"></path><path d="M329.541818 380.834909a209.454545 209.454545 0 0 1 325.492364 259.584l85.922909 86.016a46.545455 46.545455 0 0 1-65.815273 65.815273l-85.922909-85.969455A209.547636 209.547636 0 0 1 329.541818 380.834909z m49.384727 49.338182a139.636364 139.636364 0 1 0 197.492364 197.492364A139.636364 139.636364 0 0 0 378.88 430.219636z" fill="#FFFFFF" fill-opacity=".881" p-id="32813"></path><path d="M651.636364 0l279.272727 279.272727h-209.454546A69.818182 69.818182 0 0 1 651.636364 209.454545V0z" fill="#FFAF5B" p-id="32814"></path></svg>