<svg t="1618991477453" class="icon" viewBox="0 0 1070 1024" version="1.1" xmlns="http://www.w3.org/2000/svg" p-id="2285" width="200" height="200"><path d="M725.333333 170.666667h128a42.666667 42.666667 0 0 1 42.666667 42.666666v277.333334h-85.333333V384H128v469.333333h341.333333v85.333334H85.333333a42.666667 42.666667 0 0 1-42.666666-42.666667V213.333333a42.666667 42.666667 0 0 1 42.666666-42.666666h128V85.333333h128v85.333334h256V85.333333h128v85.333334zM213.333333 597.333333v-128h128v128H213.333333z m213.333334 0v-128h128v128h-128z m-213.333334 170.666667v-128h128v128H213.333333z" fill="#1768E4" p-id="2286"></path><path d="M926.976 646.826667l59.648-7.509334L976.042667 554.666667l-181.333334 22.656h-0.085333l-26.624 3.328v165.674666h85.333333v-52.053333c3.456 3.114667 7.082667 6.058667 10.24 9.557333 20.906667 23.466667 32.426667 53.717333 32.426667 85.162667 0 70.613333-57.429333 128-128 128s-128-57.386667-128-128c0-46.122667 25.045333-88.917333 65.28-111.616l-41.898667-74.325333A213.845333 213.845333 0 0 0 554.666667 788.992c0 117.632 95.701333 213.333333 213.333333 213.333333s213.333333-95.701333 213.333333-213.333333a212.906667 212.906667 0 0 0-54.101333-141.952l-0.256-0.256z" fill="#8BB3F1" p-id="2287"></path></svg>