<svg t="1618992643249" class="icon" viewBox="0 0 1024 1024" version="1.1" xmlns="http://www.w3.org/2000/svg" p-id="11490" width="200" height="200"><path d="M66.56 340.48h896v629.76H66.56z" fill="#FFE9C5" p-id="11491"></path><path d="M944.128 1024H79.872C35.84 1024 0 988.16 0 944.128V182.272C0 138.24 35.84 102.4 79.872 102.4H230.4v51.2c0 28.16 23.04 51.2 51.2 51.2s51.2-23.04 51.2-51.2V102.4h358.4v51.2c0 28.16 23.04 51.2 51.2 51.2s51.2-23.04 51.2-51.2V102.4h150.528c44.032 0 79.872 35.84 79.872 79.872v761.856c0 44.032-35.84 79.872-79.872 79.872zM921.6 358.4H102.4v563.2h819.2V358.4zM230.4 51.2c0-28.16 23.04-51.2 51.2-51.2s51.2 23.04 51.2 51.2v51.2H230.4V51.2z m460.8 0c0-28.16 23.04-51.2 51.2-51.2s51.2 23.04 51.2 51.2v51.2h-102.4V51.2z" fill="#FF9C00" p-id="11492"></path><path d="M256 460.8h102.4v102.4H256V460.8z m204.8 0h102.4v102.4H460.8V460.8z m204.8 0h102.4v102.4h-102.4V460.8z m-409.6 204.8h102.4v102.4H256v-102.4z m204.8 0h102.4v102.4H460.8v-102.4z" fill="#FF9C00" p-id="11493"></path></svg>