<svg t="1618815543041" class="icon" viewBox="0 0 1024 1024" version="1.1" xmlns="http://www.w3.org/2000/svg" p-id="26376" width="200" height="200"><path d="M935.936 504.832L488.96 88.064c-14.336-13.312-15.36-36.352-1.536-50.688 13.312-14.336 36.352-15.36 50.688-1.536l474.624 442.88c14.336 13.312 15.36 35.84 2.048 50.688l-2.048 2.048L537.6 972.8c-14.336 13.312-36.864 12.8-50.688-2.048-13.312-14.336-12.8-36.864 2.048-50.688 0 0.512 446.976-415.232 446.976-415.232zM205.824 61.952c0-19.968 15.872-35.84 35.84-35.84 9.216 0 17.92 3.584 24.064 9.728l474.624 442.88c14.336 13.312 15.36 35.84 2.048 50.688l-2.048 2.048L265.728 972.8c-14.336 13.312-36.864 12.8-50.688-1.536-6.144-6.656-9.728-15.36-9.728-24.576v-236.544H35.84c-19.968 0-35.84-15.872-35.84-35.84V340.992c0-19.968 15.872-35.84 35.84-35.84h169.984V61.952z m71.168 82.432v196.608c0 19.968-15.872 35.84-35.84 35.84H71.68v261.632h169.984c19.968 0 35.84 15.872 35.84 35.84v190.464l386.56-359.936-387.072-360.448z" fill="#2ABAB6" p-id="26377"></path></svg>