<?xml version="1.0" standalone="no"?><!DOCTYPE svg PUBLIC "-//W3C//DTD SVG 1.1//EN" "http://www.w3.org/Graphics/SVG/1.1/DTD/svg11.dtd">
<svg t="1630051381380" class="icon" viewBox="0 0 1024 1024" version="1.1" xmlns="http://www.w3.org/2000/svg" p-id="1257"
     width="200" height="200"><defs><style type="text/css"></style></defs><path d="M766.5 782.6H192.2c-16.2 0-29.3-13.1-29.3-29.3V337.8c0-16.2 13.1-29.3 29.3-29.3h574.4c16.2 0 29.3 13.1 29.3 29.3v415.6c-0.1 16.1-13.2 29.2-29.4 29.2z" fill="#E5E8EA" p-id="1258"></path><path d="M840.9 710.1H266.5c-16.2 0-29.3-13.1-29.3-29.3V265.2c0-16.2 13.1-29.3 29.3-29.3h574.4c16.2 0 29.3 13.1 29.3 29.3v415.6c0 16.1-13.2 29.3-29.3 29.3z" fill="#FFFFFF" p-id="1259"></path><path d="M840.9 724.1H266.5c-23.9 0-43.3-19.4-43.3-43.3V265.2c0-23.9 19.4-43.3 43.3-43.3h574.4c23.9 0 43.3 19.4 43.3 43.3v415.6c0 23.8-19.5 43.3-43.3 43.3zM266.5 249.9c-8.4 0-15.3 6.9-15.3 15.3v415.6c0 8.4 6.9 15.3 15.3 15.3h574.4c8.4 0 15.3-6.9 15.3-15.3V265.2c0-8.4-6.9-15.3-15.3-15.3H266.5z" fill="" p-id="1260"></path><path d="M312.3 301.9m-16 0a16 16 0 1 0 32 0 16 16 0 1 0-32 0Z" fill="#1888FF" p-id="1261"></path><path d="M362 301.9m-16 0a16 16 0 1 0 32 0 16 16 0 1 0-32 0Z" fill="#52ADFF" p-id="1262"></path><path d="M411.6 301.9m-16 0a16 16 0 1 0 32 0 16 16 0 1 0-32 0Z" fill="#B5D9F4" p-id="1263"></path><path d="M522.3 425.6h-212c-7.7 0-14-6.3-14-14s6.3-14 14-14h212c7.7 0 14 6.3 14 14s-6.2 14-14 14z" fill="#1888FF" p-id="1264"></path><path d="M796.7 510.1H309.9c-7.5 0-13.5-6.1-13.5-13.5v-0.9c0-7.5 6.1-13.5 13.5-13.5h486.8c7.5 0 13.5 6.1 13.5 13.5v0.9c0 7.4-6 13.5-13.5 13.5zM796.7 594.6H309.9c-7.5 0-13.5-6.1-13.5-13.5v-0.9c0-7.5 6.1-13.5 13.5-13.5h486.8c7.5 0 13.5 6.1 13.5 13.5v0.9c0 7.5-6 13.5-13.5 13.5z" fill="#B5D9F4" p-id="1265"></path><path d="M239.4 709.5m-100 0a100 100 0 1 0 200 0 100 100 0 1 0-200 0Z" fill="#E9007D" p-id="1266"></path><path d="M671.6 619.8c-7.1 7.1-18.6 7.1-25.7 0l-46.5-46.5c-7.1-7.1-7.1-18.6 0-25.7 7.1-7.1 18.6-7.1 25.7 0l46.5 46.5c7.1 7.1 7.1 18.6 0 25.7z" fill="#B5D9F4" p-id="1267"></path><path d="M658.7 633.1c-6.7 0-13.4-2.5-18.5-7.6L593.8 579c-10.2-10.2-10.2-26.8 0-37 4.9-4.9 11.5-7.7 18.5-7.7s13.6 2.7 18.5 7.7l46.5 46.5c10.2 10.2 10.2 26.8 0 37-5.2 5.1-11.9 7.6-18.6 7.6z m-46.4-82.7c-2.7 0-5.3 1.1-7.2 3-4 4-4 10.4 0 14.4l46.5 46.5c4 4 10.4 4 14.4 0s4-10.4 0-14.4l-46.5-46.5c-2-2-4.5-3-7.2-3z" fill="" p-id="1268"></path><path d="M689.2 531.2c-9.9 0-17.9-8-17.9-17.9V455c0-9.9 8-17.9 17.9-17.9 9.9 0 17.9 8 17.9 17.9v58.3c-0.1 9.8-8.1 17.9-17.9 17.9z" fill="#B5D9F4" p-id="1269"></path><path d="M689.2 539.2c-14.3 0-25.9-11.6-25.9-25.9V455c0-14.3 11.6-25.9 25.9-25.9s25.9 11.6 25.9 25.9v58.3c-0.1 14.2-11.7 25.9-25.9 25.9z m0-94.1c-5.4 0-9.9 4.4-9.9 9.9v58.3c0 5.4 4.4 9.9 9.9 9.9s9.9-4.4 9.9-9.9V455c-0.1-5.5-4.5-9.9-9.9-9.9z" fill="" p-id="1270"></path><path d="M653.9 544.3c-9.9 0-17.9-8-17.9-17.9v-104c0-9.9 8-17.9 17.9-17.9 9.9 0 17.9 8 17.9 17.9v104.1c-0.1 9.8-8.1 17.8-17.9 17.8z" fill="#B5D9F4" p-id="1271"></path><path d="M653.9 552.3c-14.3 0-25.9-11.6-25.9-25.9v-104c0-14.3 11.6-25.9 25.9-25.9s25.9 11.6 25.9 25.9v104.1c-0.1 14.2-11.7 25.8-25.9 25.8z m0-139.8c-5.4 0-9.9 4.4-9.9 9.9v104.1c0 5.4 4.4 9.9 9.9 9.9 5.4 0 9.9-4.4 9.9-9.9V422.4c-0.1-5.5-4.5-9.9-9.9-9.9z" fill="" p-id="1272"></path><path d="M724.9 548.4c-9.9 0-17.9-8-17.9-17.9v-58.3c0-9.9 8-17.9 17.9-17.9 9.9 0 17.9 8 17.9 17.9v58.3c0 9.9-8 17.9-17.9 17.9z" fill="#B5D9F4" p-id="1273"></path><path d="M724.9 556.4c-14.3 0-25.9-11.6-25.9-25.9v-58.3c0-14.3 11.6-25.9 25.9-25.9s25.9 11.6 25.9 25.9v58.3c0 14.3-11.6 25.9-25.9 25.9z m0-94c-5.4 0-9.9 4.4-9.9 9.9v58.3c0 5.4 4.4 9.9 9.9 9.9s9.9-4.4 9.9-9.9v-58.3c0-5.5-4.4-9.9-9.9-9.9z" fill="" p-id="1274"></path><path d="M760.7 548.4c-9.9 0-17.9-8-17.9-17.9v-38.3c0-9.9 8-17.9 17.9-17.9 9.9 0 17.9 8 17.9 17.9v38.3c0 9.9-8.1 17.9-17.9 17.9z" fill="#B5D9F4" p-id="1275"></path><path d="M760.7 556.4c-14.3 0-25.9-11.6-25.9-25.9v-38.3c0-14.3 11.6-25.9 25.9-25.9s25.9 11.6 25.9 25.9v38.3c0 14.3-11.7 25.9-25.9 25.9z m0-74c-5.4 0-9.9 4.4-9.9 9.9v38.3c0 5.4 4.4 9.9 9.9 9.9 5.4 0 9.9-4.4 9.9-9.9v-38.3c0-5.5-4.5-9.9-9.9-9.9z" fill="" p-id="1276"></path><path d="M778.6 513.3v77.4c0 24.7-20 44.8-44.6 44.8h-53.8c-24.4 0-44.2-19.9-44.2-44.4v-77.8" fill="#B5D9F4" p-id="1277"></path><path d="M734 643.4h-53.8c-28.8 0-52.2-23.5-52.2-52.4v-77.8h16V591c0 20 16.2 36.4 36.2 36.4H734c20.2 0 36.6-16.5 36.6-36.8v-77.4h16v77.4c0 29.2-23.6 52.8-52.6 52.8z" fill="" p-id="1278"></path><path d="M299.2 697.5c0-5.5-3.4-8.3-9.1-8.8-3.6 0-7-1.7-9.3-4.7-2.3-3-3.1-6.9-2.3-10.6 2.2-10.4 1.7-11.9-7.5-17.3l-5.9-3.4c-5.3-4.7-13.1-4-17.5 1.6-6.8 5.6-9.8 5.5-16.3 0-4.4-5.6-12.2-6.4-17.5-1.8l-9.8 5.7c-4.4 2.1-6.5 7.6-4.8 12.4 3 10.4-1.4 17.1-11.9 18.2-4.4 0.5-7.3 3-7.5 7.2-0.5 8.2-0.5 16.5 0 24.7 0 5.3 3.3 8 8.8 8.5 3.6 0 7 1.6 9.3 4.5 2.3 2.9 3.3 6.7 2.7 10.5-2 10.9-2 12.1 7.8 17.7 2.1 1.2 4.1 2.6 6.3 3.7 5 3.6 11.8 2.7 15.8-2.2 7.5-6.9 9.8-6.8 17.7 0 3.1 2.2 6.4 4.2 9.8 6 7.1-4.8 14.2-9 20.6-13.9 1.5-2.4 1.8-5.5 0.9-8.2-3.6-9.4 2.2-17.6 12.3-18.6 4.2 0 7-2.8 7.2-6.8 0.5-8.1 0.6-16.3 0.2-24.4z m-43.3 28.9c-4.4 4.7-10.4 7.3-16.7 7.3-9.5 0-18.1-6.1-21.8-15.5-3.7-9.4-1.6-20.2 5.1-27.3 6.7-7.2 16.9-9.3 25.7-5.4 8.8 3.9 14.6 13 14.6 23.2 0.1 6.6-2.4 13-6.9 17.7z" fill="#FFFFFF" p-id="1279"></path></svg>
