<?xml version="1.0" standalone="no"?><!DOCTYPE svg PUBLIC "-//W3C//DTD SVG 1.1//EN" "http://www.w3.org/Graphics/SVG/1.1/DTD/svg11.dtd"><svg t="1635392521038" class="icon" viewBox="0 0 1024 1024" version="1.1" xmlns="http://www.w3.org/2000/svg" p-id="6843" xmlns:xlink="http://www.w3.org/1999/xlink" width="200" height="200"><defs><style type="text/css"></style></defs><path d="M256.042667 192h426.666666a170.666667 170.666667 0 0 1 170.666667 170.666667v426.666666a85.333333 85.333333 0 0 1-85.333333 85.333334H256.042667a85.333333 85.333333 0 0 1-85.333334-85.333334V277.333333a85.333333 85.333333 0 0 1 85.333334-85.333333z" fill="#935DFF" p-id="6844"></path><path d="M362.709333 234.666667a42.666667 42.666667 0 1 1 0-85.333334h64a85.333333 85.333333 0 1 1 170.666667 0h64a42.666667 42.666667 0 1 1 0 85.333334H362.709333z" fill="#C98BFF" p-id="6845"></path><path d="M618.709333 405.333333a21.333333 21.333333 0 0 1 21.333334 21.333334v201.664a21.333333 21.333333 0 0 1-10.176 18.176C590.592 670.613333 551.317333 682.666667 512.042667 682.666667c-39.274667 0-78.549333-12.053333-117.824-36.16a21.333333 21.333333 0 0 1-10.176-18.176V426.666667a21.333333 21.333333 0 0 1 21.333333-21.333334h213.333333z m-102.016 56.96a10.496 10.496 0 0 0-14.058666 4.757334l-6.912 14.037333a10.666667 10.666667 0 0 1-8.042667 5.824l-15.466667 2.261333a10.496 10.496 0 0 0-5.824 17.877334l11.2 10.922666a10.666667 10.666667 0 0 1 3.072 9.450667l-2.645333 15.402667a10.496 10.496 0 0 0 15.210667 11.072l13.866666-7.296a10.666667 10.666667 0 0 1 9.92 0l13.845334 7.296a10.496 10.496 0 0 0 15.210666-11.072l-2.645333-15.402667a10.666667 10.666667 0 0 1 3.072-9.450667l11.2-10.922666a10.496 10.496 0 0 0-5.824-17.877334l-15.466667-2.261333a10.666667 10.666667 0 0 1-8.042666-5.824l-6.912-14.037333a10.496 10.496 0 0 0-4.757334-4.757334z" fill="#FFFFFF" fill-opacity=".95" p-id="6846"></path></svg>