<svg t="1619494579026" class="icon" viewBox="0 0 1024 1024" version="1.1" xmlns="http://www.w3.org/2000/svg" p-id="3701" width="200" height="200"><path d="M421.4 801H404c-0.5 0-0.9-0.4-0.9-0.9V457.5c0-0.5 0.4-0.9 0.9-0.9h17.4c0.5 0 0.9 0.4 0.9 0.9v342.7c-0.1 0.5-0.5 0.8-0.9 0.8zM564.6 801h-17.4c-0.5 0-0.9-0.4-0.9-0.9V457.5c0-0.5 0.4-0.9 0.9-0.9h17.4c0.5 0 0.9 0.4 0.9 0.9v342.7c0 0.5-0.4 0.8-0.9 0.8zM707.9 801h-17.4c-0.5 0-0.9-0.4-0.9-0.9V457.5c0-0.5 0.4-0.9 0.9-0.9h17.4c0.5 0 0.9 0.4 0.9 0.9v342.7c0 0.5-0.4 0.8-0.9 0.8z" fill="#FFFFFF" p-id="3702"></path><path d="M444 306.8v-80.1c0-9.8 8-17.8 17.8-17.8h177.7c9.8 0 17.8 8 17.8 17.8v80.1M905.2 360.2H196c-0.5 0-0.8-0.4-0.8-0.8v-16.1c0-0.5 0.4-0.8 0.8-0.8h709.2c0.5 0 0.8 0.4 0.8 0.8v16.1c0 0.4-0.3 0.8-0.8 0.8z" fill="#C5E5FF" p-id="3703"></path><path d="M266.3 342.4V899c0 21.9 17.7 39.7 39.6 39.7h489.5c21.9 0 39.6-17.8 39.6-39.7V342.4H266.3z m159.9 449.8c0 4.7-3.8 8.5-8.5 8.5h-0.7c-4.7 0-8.5-3.8-8.5-8.5V488.8c0-4.7 3.8-8.5 8.5-8.5h0.7c4.7 0 8.5 3.8 8.5 8.5v303.4z m133.3 0c0 4.7-3.8 8.5-8.5 8.5h-0.7c-4.7 0-8.5-3.8-8.5-8.5V488.8c0-4.7 3.8-8.5 8.5-8.5h0.7c4.7 0 8.5 3.8 8.5 8.5v303.4z m133.3 0c0 4.7-3.8 8.5-8.5 8.5h-0.7c-4.7 0-8.5-3.8-8.5-8.5V488.8c0-4.7 3.8-8.5 8.5-8.5h0.7c4.7 0 8.5 3.8 8.5 8.5v303.4z" fill="#C5E5FF" p-id="3704"></path><path d="M639.8 202.7c-5.9 0-10.7-4.8-10.7-10.7V96c0-5.9-4.8-10.7-10.7-10.7h-213c-5.9 0-10.6 4.8-10.6 10.7v96c0 5.9-4.8 10.7-10.6 10.7s-10.6-4.8-10.6-10.7V96c0-17.7 14.3-32 32-32h213c17.6 0 32 14.3 32 32v96c-0.1 5.9-4.9 10.7-10.8 10.7zM927.3 224H96.7c-5.9 0-10.7 4.8-10.7 10.7s4.8 10.7 10.7 10.7h63.9v661.3c0 29.4 23.9 53.3 53.3 53.3h596.4c29.4 0 53.3-23.9 53.3-53.3V341.3c0-5.9-4.8-10.7-10.7-10.7s-10.7 4.8-10.7 10.7v565.3c0 17.7-14.3 32-32 32H213.8c-17.6 0-31.9-14.3-31.9-32V245.3h745.4c5.9 0 10.7-4.8 10.7-10.7 0-5.8-4.8-10.6-10.7-10.6z" fill="#3B94FF" p-id="3705"></path><path d="M361.9 784h-19.3c-0.5 0-1-0.5-1-1V401c0-0.5 0.5-1 1-1h19.3c0.5 0 1 0.5 1 1v382c0 0.5-0.4 1-1 1zM521.7 784h-19.3c-0.5 0-1-0.5-1-1V401c0-0.5 0.5-1 1-1h19.3c0.5 0 1 0.5 1 1v382c0 0.5-0.5 1-1 1zM681.4 784h-19.3c-0.5 0-1-0.5-1-1V401c0-0.5 0.5-1 1-1h19.3c0.5 0 1 0.5 1 1v382c0 0.5-0.4 1-1 1z" fill="#3B94FF" p-id="3706"></path></svg>