<svg t="1618815597721" class="icon" viewBox="0 0 1024 1024" version="1.1" xmlns="http://www.w3.org/2000/svg" p-id="26973" width="200" height="200"><path d="M186.24 0h651.52Q1024 0 1024 186.24v651.52Q1024 1024 837.76 1024H186.24Q0 1024 0 837.76V186.24Q0 0 186.24 0z" fill="#FF7F65" p-id="26974"></path><path d="M412.48 535.04h-71.04a24 24 0 0 0-21.76 24.64 21.12 21.12 0 0 0 21.76 21.76h71.04a23.36 23.36 0 0 0 3.52-46.4zM483.52 467.2a26.56 26.56 0 0 0-21.76-27.52h-123.52a23.68 23.68 0 0 0-24.64 21.44v3.2a24 24 0 0 0 21.44 24.64h123.84a24 24 0 0 0 24.64-21.76zM672 587.52v27.52a13.12 13.12 0 0 1-12.16 12.48h-49.92v46.08a2.88 2.88 0 0 1-2.88 3.2c-6.4 3.2-12.48 0-12.48-3.2l-37.12-58.56a28.16 28.16 0 0 1 0-32l37.12-58.56c0-2.88 3.2-2.88 3.2-2.88 6.08-3.2 12.16 0 12.16 2.88V576h46.4a14.08 14.08 0 0 1 15.36 12.48M680.96 732.16V704a13.44 13.44 0 0 1 12.48-12.48h49.28v-45.44a3.2 3.2 0 0 1 3.2-3.2c6.08-3.2 12.48 0 12.48 3.2L795.52 704a28.16 28.16 0 0 1 0 32l-37.12 57.92c0 2.88-3.2 2.88-3.2 2.88-6.08 3.2-12.48 0-12.48-2.88v-49.28h-46.08a14.4 14.4 0 0 1-15.68-12.48" fill="#FFFFFF" p-id="26975"></path><path d="M495.68 750.72h-172.8A48.32 48.32 0 0 1 273.28 704V368.64A48.96 48.96 0 0 1 322.88 320a58.88 58.88 0 0 0 55.68 49.28h231.36A56.32 56.32 0 0 0 665.6 320a48.96 48.96 0 0 1 49.6 49.28v96a21.12 21.12 0 0 0 21.44 21.44 29.76 29.76 0 0 0 27.84-21.44v-96a96 96 0 0 0-98.88-96A58.88 58.88 0 0 0 609.92 224h-231.36a54.08 54.08 0 0 0-55.68 49.28 98.88 98.88 0 0 0-98.88 96V704a96 96 0 0 0 98.88 96h176a24 24 0 0 0 21.76-24.64 24.64 24.64 0 0 0-24.96-24.64zM372.16 294.72a24 24 0 0 1 24.64-21.44h200.96a24 24 0 0 1 21.44 24.64v3.2a23.68 23.68 0 0 1-24.64 21.44h-200.64a26.88 26.88 0 0 1-21.76-27.84z" fill="#FFFFFF" p-id="26976"></path></svg>