<svg t="1618994966608" class="icon" viewBox="0 0 1024 1024" version="1.1" xmlns="http://www.w3.org/2000/svg" p-id="48706" width="200" height="200"><path d="M471.572016 177.689986a334.397805 334.397805 0 0 0-333.607681 333.607682v433.251029H40.691358a39.506173 39.506173 0 1 0 0 79.012346h444.48834a39.506173 39.506173 0 0 0 0-79.012346H216.97668v-432.812071a255.034294 255.034294 0 1 1 510.068587 0v79.714677a39.506173 39.506173 0 0 0 79.012346 0v-79.714677a334.397805 334.397805 0 0 0-334.485597-334.04664zM855.045267 170.578875a39.506173 39.506173 0 0 0-55.83539 0l-47.495199 47.495199a39.506173 39.506173 0 1 0 55.835391 55.835391l47.495198-47.495199a39.506173 39.506173 0 0 0 0-55.835391zM136.208505 273.909465a39.506173 39.506173 0 0 0 55.835391-55.835391l-48.021948-48.021948a39.506173 39.506173 0 0 0-55.835391 55.835391zM471.572016 149.245542a39.506173 39.506173 0 0 0 39.506173-39.506173v-70.233196a39.506173 39.506173 0 0 0-79.012345 0v70.233196a39.506173 39.506173 0 0 0 39.506172 39.506173z" fill="#0573D9" p-id="48707"></path><path d="M584.471879 599.703704l-89.020576-0.438958a15.100137 15.100137 0 0 1-14.836763-17.558299l15.890261-112.987654a15.100137 15.100137 0 0 0-28.005487-9.657065l-122.030178 210.699589a15.100137 15.100137 0 0 0 13.080933 22.650206h96.570644a15.100137 15.100137 0 0 1 14.924554 17.558299l-16.241426 98.414266a15.100137 15.100137 0 0 0 27.917695 10.096022l114.655693-196.126201a15.100137 15.100137 0 0 0-12.90535-22.650205z" fill="#0573D9" p-id="48708"></path><path d="M772.609053 763.434842h210.699589a39.506173 39.506173 0 0 0 0-79.012345h-210.699589a39.506173 39.506173 0 0 0 0 79.012345zM983.308642 813.300412h-210.699589a39.506173 39.506173 0 0 0 0 79.012345h210.699589a39.506173 39.506173 0 0 0 0-79.012345zM983.308642 944.987654h-210.699589a39.506173 39.506173 0 0 0 0 79.012346h210.699589a39.506173 39.506173 0 0 0 0-79.012346zM666.469136 684.422497h-22.562414a39.506173 39.506173 0 1 0 0 79.012345h22.562414a39.506173 39.506173 0 0 0 0-79.012345zM666.469136 813.300412h-22.562414a39.506173 39.506173 0 1 0 0 79.012345h22.562414a39.506173 39.506173 0 1 0 0-79.012345zM666.469136 944.987654h-22.562414a39.506173 39.506173 0 1 0 0 79.012346h22.562414a39.506173 39.506173 0 1 0 0-79.012346z" fill="#65C8D0" p-id="48709"></path></svg>