<svg t="1618813576785" class="icon" viewBox="0 0 1024 1024" version="1.1" xmlns="http://www.w3.org/2000/svg" p-id="8740" width="200" height="200"><path d="M275.39456 291.84h348.16v61.44h-348.16zM276.48 404.48h286.72v61.44H276.48zM276.48 517.12h204.8v61.44H276.48z" fill="#FFDA00" p-id="8741"></path><path d="M215.04 215.04h532.48v158.72h61.44V153.6H153.6v716.8h348.16v-61.44H215.04z" fill="#4DC400" p-id="8742"></path><path d="M798.464 624.11776C823.69536 601.62048 839.68 568.95488 839.68 532.48c0-67.86048-55.01952-122.88-122.88-122.88s-122.88 55.01952-122.88 122.88c0 36.47488 15.98464 69.14048 41.216 91.63776L563.2 706.304V870.4h307.2V706.304l-71.936-82.18624zM716.8 471.04a61.44 61.44 0 1 1 0 122.88 61.44 61.44 0 0 1 0-122.88z m-23.67488 181.98528c7.66976 1.50528 15.5648 2.33472 23.67488 2.33472s16.00512-0.82944 23.67488-2.33472L794.0096 716.8H639.5904l53.53472-63.77472zM808.96 808.96H624.64v-40.96h184.32v40.96z" fill="#FFDA00" p-id="8743"></path></svg>