<svg t="1618560157182" class="icon" viewBox="0 0 1024 1024" version="1.1" xmlns="http://www.w3.org/2000/svg" p-id="32500" width="200" height="200"><path d="M872.6016 607.744h-130.5088c-22.0672 0-42.0352-12.9536-50.9952-33.1264L636.5184 452.096c-9.5744-21.5552-4.3008-46.4384 12.4416-63.0784 38.0416-37.888 60.1088-91.8528 54.9376-150.8352-7.9872-91.7504-82.9952-165.2224-174.848-171.5712C418.6112 58.9824 326.656 146.2784 326.656 255.1296c0 53.4016 22.1696 101.5808 57.7536 135.936 16.2304 15.6672 21.76 39.3216 13.7216 60.3648l-46.0288 120.4224a55.85408 55.85408 0 0 1-52.1728 35.8912H158.1568c-34.816 0-62.976 28.2112-62.976 62.976v103.2192c0 34.816 28.2112 62.976 62.976 62.976h714.3936c34.816 0 62.976-28.2112 62.976-62.976V670.72c0.0512-34.7648-28.16-62.976-62.9248-62.976zM868.2496 951.7568H162.5088c-15.5136 0-28.1088-12.5952-28.1088-28.1088 0-15.5136 12.5952-28.1088 28.1088-28.1088h705.792c15.5136 0 28.1088 12.5952 28.1088 28.1088a28.1344 28.1344 0 0 1-28.16 28.1088z" fill="#FF623E" p-id="32501"></path></svg>