<svg t="1618993928866" class="icon" viewBox="0 0 1024 1024" version="1.1" xmlns="http://www.w3.org/2000/svg" p-id="37458" width="200" height="200"><path d="M578.13 93.1H305.51c-16.03 0-29.03 13-29.03 29.03v91.92c0 16.03 13 29.03 29.03 29.03h272.62c16.03 0 29.03-13 29.03-29.03v-91.92c0-16.03-13-29.03-29.03-29.03z" fill="#EE8C98" p-id="37459"></path><path d="M578.13 93.1H528.8v149.98h49.33c16.03 0 29.03-13 29.03-29.03v-91.92c0-16.03-13-29.03-29.03-29.03z" fill="#D96478" p-id="37460"></path><path d="M578.13 257.85H305.51c-24.15 0-43.8-19.65-43.8-43.8v-91.92c0-24.15 19.65-43.8 43.8-43.8h272.62c24.15 0 43.8 19.65 43.8 43.8v91.92c0 24.15-19.65 43.8-43.8 43.8zM305.51 107.87c-7.86 0-14.26 6.4-14.26 14.26v91.92c0 7.87 6.4 14.26 14.26 14.26h272.62c7.86 0 14.26-6.4 14.26-14.26v-91.92c0-7.87-6.4-14.26-14.26-14.26H305.51z" fill="#49416F" p-id="37461"></path><path d="M666.71 807.56H216.93c-6.82 0-12.34-5.53-12.34-12.34V204.98c0-6.82 5.53-12.34 12.34-12.34h449.78c6.82 0 12.34 5.53 12.34 12.34v590.24c0 6.81-5.52 12.34-12.34 12.34z" fill="#A0C8EA" p-id="37462"></path><path d="M648.68 192.64h-50.95v614.92h50.95c16.78 0 30.38-13.6 30.38-30.38V223.01c-0.01-16.77-13.61-30.37-30.38-30.37z" fill="#7BA2D5" p-id="37463"></path><path d="M256.43 243.08h370.78v514.04H256.43z" fill="#FFFFFF" p-id="37464"></path><path d="M568.24 243.08h58.97v514.04h-58.97z" fill="#D0E2F3" p-id="37465"></path><path d="M648.67 822.33H234.96c-24.89 0-45.15-20.25-45.15-45.15V223.01c0-24.89 20.25-45.15 45.15-45.15h413.71c24.89 0 45.15 20.25 45.15 45.15v554.17c0 24.89-20.25 45.15-45.15 45.15zM234.96 207.4c-8.61 0-15.61 7-15.61 15.61v554.17c0 8.61 7 15.61 15.61 15.61h413.71c8.61 0 15.61-7 15.61-15.61V223.01c0-8.61-7-15.61-15.61-15.61H234.96z" fill="#49416F" p-id="37466"></path><path d="M627.21 771.88H256.43c-8.16 0-14.77-6.61-14.77-14.77V243.08c0-8.16 6.61-14.77 14.77-14.77h370.78c8.16 0 14.77 6.61 14.77 14.77v514.03c0 8.16-6.62 14.77-14.77 14.77zM271.2 742.35h341.24v-484.5H271.2v484.5zM484.38 159.74h-85.13c-7.72 0-13.99-6.26-13.99-13.99 0-7.72 6.26-13.99 13.99-13.99h85.13c7.72 0 13.99 6.26 13.99 13.99s-6.26 13.99-13.99 13.99z" fill="#49416F" p-id="37467"></path><path d="M567.45 400.02H316.19c-8.16 0-14.77-6.61-14.77-14.77s6.61-14.77 14.77-14.77h251.25c8.16 0 14.77 6.61 14.77 14.77s-6.61 14.77-14.76 14.77z" fill="#49416F" p-id="37468"></path><path d="M567.45 532.19H316.19c-8.16 0-14.77-6.61-14.77-14.77s6.61-14.77 14.77-14.77h251.25c8.16 0 14.77 6.61 14.77 14.77s-6.61 14.77-14.76 14.77z" fill="#49416F" p-id="37469"></path><path d="M567.45 664.36H316.19c-8.16 0-14.77-6.61-14.77-14.77s6.61-14.77 14.77-14.77h251.25c8.16 0 14.77 6.61 14.77 14.77s-6.61 14.77-14.76 14.77z" fill="#49416F" p-id="37470"></path><path d="M813.72 784.43c15.33 93.47-64.33 173.13-157.79 157.8-56.6-9.29-102.25-54.93-111.53-111.53-15.33-93.46 64.33-173.13 157.79-157.79 56.59 9.27 102.24 54.92 111.53 111.52z" fill="#EE8C98" p-id="37471"></path><path d="M737.33 684.04c23.3 24.49 37.62 57.6 37.62 94.07 0 75.42-61.14 136.56-136.56 136.56-20.85 0-40.6-4.69-58.28-13.05 24.88 26.16 59.99 42.49 98.94 42.49 75.42 0 136.56-61.14 136.56-136.56 0.01-54.56-32.01-101.64-78.28-123.51z" fill="#D96478" p-id="37472"></path><path d="M654.94 877.52c-3.78 0-7.56-1.44-10.44-4.33l-52.65-52.65c-5.77-5.77-5.77-15.12 0-20.88 5.76-5.77 15.12-5.77 20.88 0l42.21 42.21 90.45-90.44c5.77-5.77 15.12-5.77 20.88 0 5.77 5.77 5.77 15.12 0 20.88L665.38 873.19a14.721 14.721 0 0 1-10.44 4.33z" fill="#49416F" p-id="37473"></path><path d="M679.06 958.89c-83.45 0-151.33-67.89-151.33-151.33 0-83.44 67.89-151.33 151.33-151.33 83.44 0 151.33 67.89 151.33 151.33 0 83.44-67.89 151.33-151.33 151.33z m0-273.13c-67.16 0-121.8 54.64-121.8 121.8s54.64 121.8 121.8 121.8 121.8-54.64 121.8-121.8c-0.01-67.16-54.65-121.8-121.8-121.8z" fill="#49416F" p-id="37474"></path></svg>