<svg t="1618813972429" class="icon" viewBox="0 0 1024 1024" version="1.1" xmlns="http://www.w3.org/2000/svg" p-id="13372" width="200" height="200"><path d="M697.948328 321.905311L233.841311 786.012328" fill="#142A3B" p-id="13373"></path><path d="M245.692852 797.880656l-23.719868-23.719869L686.08 310.036984l23.736656 23.736655L245.692852 797.880656z" fill="#FF3A2F" p-id="13374"></path><path d="M541.91423 114.46977L944.598033 6.546885C986.313443-4.599607 1024.470033 33.57377 1013.289967 75.255607l-107.889311 402.683803c-11.180066 41.698623-63.303344 55.665311-93.838689 25.129967-50.696393-139.465443-147.388852-239.095607-294.777705-294.777705-30.552131-30.518557-16.568656-82.658623 25.129968-93.838688z" fill="#FF3A2F" p-id="13375"></path><path d="M769.661902 414.283541C719.485902 293.015082 631.959082 204.128525 503.724066 150.511213c-6.546885 19.103475-3.273443 41.463607 13.043409 57.780459 113.899016 43.024787 197.380197 112.388197 252.894427 205.975082zM980.387672 9.43423l-107.906098 402.667016c-10.475016 39.046295-56.638951 53.264787-87.560394 29.914229a541.041311 541.041311 0 0 1 26.640787 61.053902c30.535344 30.535344 82.658623 16.568656 93.838689-25.146754l107.889311-402.667016c7.755541-28.923803-8.443803-55.749246-32.902295-65.972459v0.151082z" fill="#000000" opacity=".35" p-id="13376"></path><path d="M30.115672 800.98623l209.080656-56.017837c21.655082-5.808262 41.463607 14.000262 35.672131 35.672132l-56.017836 209.080655c-5.808262 21.655082-32.868721 28.907016-48.732328 13.060197-26.321836-72.418623-76.53141-124.155803-153.06282-153.06282-15.84682-15.84682-8.594885-42.924066 13.060197-48.732327z" fill="#FF3A2F" p-id="13377"></path><path d="M8.695607 827.442361c-0.48682 7.839475 2.014426 15.947541 8.359868 22.276196 29.544918 11.146492 55.060984 25.784656 76.883935 43.612328-22.393705-27.177967-50.66282-49.269508-85.243803-65.888524zM242.369049 744.565508c-0.167869 1.057574-0.134295 2.081574-0.419672 3.155935l-56.017836 209.080655c-3.458098 12.892328-14.470295 20.513574-26.153967 21.369705 3.760262 7.92341 7.251934 16.098623 10.340721 24.609574 15.84682 15.84682 42.924066 8.594885 48.732328-13.060197l56.017836-209.080655c5.522885-20.597508-12.153705-39.247738-32.49941-36.075017z" fill="#000000" opacity=".35" p-id="13378"></path><path d="M673.321967 601.793049a16.786885 16.786885 0 0 1-16.786885-16.786885c0-122.242098-99.445508-221.687607-221.704393-221.687607a16.786885 16.786885 0 1 1 0-33.57377c140.758033 0 255.261377 114.520131 255.261377 255.261377a16.786885 16.786885 0 0 1-16.786886 16.786885zM564.526164 710.588852a16.786885 16.786885 0 0 1-16.786885-16.786885c0-122.242098-99.445508-221.704393-221.704394-221.704393a16.786885 16.786885 0 0 1 0-33.556984c140.758033 0 255.261377 114.520131 255.261377 255.261377a16.786885 16.786885 0 0 1-16.786885 16.786885zM455.730361 819.367869a16.786885 16.786885 0 0 1-16.786886-16.786885c0-122.242098-99.445508-221.687607-221.704393-221.687607a16.786885 16.786885 0 0 1 0-33.556984c140.758033 0 255.261377 114.520131 255.261377 255.244591a16.786885 16.786885 0 0 1-16.786885 16.786885z" fill="#FF3A2F" p-id="13379"></path><path d="M915.607082 165.904787A43.595541 43.595541 0 1 1 853.948852 104.246557a43.595541 43.595541 0 0 1 61.65823 61.65823z" fill="#EDEDED" p-id="13380"></path></svg>