<svg t="1611396046009" class="icon" viewBox="0 0 1024 1024" p-id="9476" width="200" height="200"><path d="M905.8816 102.6048c-77.2096-2.1248-146.7392 11.9552-208.7168 42.1632-41.6512 20.352-18.5344 101.0944 28.7488 83.0208 31.4368-11.9808 91.4176-53.7088 179.968-125.184z" fill="#D30A19" p-id="9477"></path><path d="M619.648 475.648C646.2976 209.8688 557.6704 60.0576 353.8432 26.1632c-51.712-8.6528-49.7152 86.4512 11.3664 145.5872 101.4528 98.4576 114.3552 318.5408 85.0688 412.7488-19.6096 62.8992 36.8896 26.5472 169.3696-108.8512z" fill="#C90E1C" p-id="9478"></path><path d="M354.9696 27.5456c4.7616-1.8944 10.496-2.4576 17.1264-1.4848 51.968 7.424 96.2048 21.6064 132.6592 42.496 2.9184 2.048 5.5808 4.096 8.0384 6.272C549.0688 106.3936 466.7136 153.6 439.7056 153.6s-82.176-68.1728-92.5952-88.6272c-8.1152-16.0768-4.864-31.7952 7.8592-37.4272z" fill="#A9000C" p-id="9479"></path><path d="M385.5104 179.2a233.6256 233.6256 0 0 0-17.2288-23.7312C383.8464 122.24 418.1248 87.552 471.1168 51.2c8.832 6.3488 17.2032 13.184 25.1648 20.608-59.8528 63.232-94.976 98.0992-105.216 104.6528A22.3232 22.3232 0 0 1 385.536 179.2z" fill="#A40B16" p-id="9480"></path><path d="M317.0816 30.208c5.8112-3.84 13.4144-5.4784 22.9376-4.1728 50.7648 7.1168 94.3104 20.3008 130.6624 39.6032-3.2768 50.2528-4.8896 79.5392-4.8896 87.9616-8.5248-76.9024-78.7968-114.304-148.352-123.392h-0.3584z" fill="#93000A" p-id="9481"></path><path d="M317.0816 405.2992C325.376 166.3232 424.2432 31.2832 613.5296 0.4864c48.5888-7.936 51.8912 84.096-11.008 136.5248-104.7552 87.168-154.5728 298.88-135.68 396.672 12.5952 65.2032-37.2992 22.4-149.76-128.384z" fill="#DC1221" p-id="9482"></path><path d="M712.8064 36.5824c-112.768 4.1728-193.4592 71.3216-242.1248 201.3184 26.112 36.3008 44.032 59.4688 53.9904 69.2992 102.9888-188.672 171.52-282.496 205.7216-281.6 34.176 1.024 28.3136 4.6336-17.5872 10.9824z" fill="#BC0512" p-id="9483"></path><path d="M393.8816 392.4224c55.1424-210.5344 190.72-332.16 406.8608-364.8768 47.36-7.168 121.472 4.5056 49.6384 50.048-123.5712 78.2336-243.584 416.2816-222.9248 512.9472 13.9008 64.4352-64-1.5872-233.5744-198.1184z" fill="#D80C1B" p-id="9484"></path><path d="M856.1152 26.112c-18.0992-1.408-70.8608-1.408-124.8256 19.3792-7.2448 2.7648-6.4 7.68 5.8368 5.7344 24.8832-3.9936 49.7408-9.1136 62.2592-5.7344 12.544 3.4816 6.6048 38.4 16.5888 30.0032 35.2256-30.0032 53.12-31.1296 63.5904-35.0208 3.3792-1.3312-5.376-12.9024-23.4496-14.336z" fill="#FB3342" p-id="9485"></path><path d="M777.8816 156.6464c-24.6784-11.8784-58.112 11.008-100.352 68.608-63.4112 86.4-54.016 160.1792-50.8416 253.9264-3.1744 99.2 37.9648 54.7328 66.4576-5.888 15.8464-33.8432 0.2048-98.2784 14.336-151.7568 9.6-35.6352 33.0752-90.5984 70.4-164.8896z" fill="#BC0512" p-id="9486"></path><path d="M897.4848 77.4144c-83.456 19.456-280.064 162.7136-262.1952 378.7264 17.8944 216.0384-21.7856 292.608-62.208 311.4752 12.8512 2.2528 258.4576 0 278.7584-170.752 20.3008-170.752-23.7568-219.264-29.7984-304-7.8336-110.6688 41.984-167.3216 75.52-200.5248 7.4496-7.4496 14.2592-18.2528-0.0768-14.9248z" fill="#EC1324" p-id="9487"></path><path d="M905.8816 103.0912c-1.2032-0.7936-3.4816-0.9984-7.2448-0.1024-82.3296 19.5584-276.096 163.072-258.4832 379.4688 9.8304 121.1904 1.92 198.6048-13.952 246.5024a600.832 600.832 0 0 0-1.92 31.744c0 18.304 22.2976-3.0208 22.5792-8.2432 0.4608-8.448 20.5568-134.3488 17.9968-187.776-2.56-53.4016-12.672-67.072-13.696-84.096-4.0192-65.6128 14.1568-111.1552 32.0512-154.5216 63.5904-154.24 186.4192-209.2032 222.6688-222.976z" fill="#F81E2E" p-id="9488"></path><path d="M618.1888 817.8432a248.3712 248.3712 0 0 1-16.9984 1.3568 73.472 73.472 0 0 1-2.5088-11.1872c27.904-32.512 50.7648-120.32 38.0928-320.6656L636.672 486.4c9.728 35.456 14.0288 68.1728 13.056 98.0736-2.048 60.2112-13.44 196.2496-31.5648 233.3696z" fill="#B50512" p-id="9489"></path><path d="M880.2816 102.4c-9.6256 4.1728-22.1184 12.7232-37.5552 25.6 0.4352-1.5104-4.096-1.5104-13.6448 0 7.8336-7.9104 44.5184-24.704 51.2-25.6z" fill="#FF3140" p-id="9490"></path><path d="M829.0816 668.2624c-49.8176 125.2864-244.7872 126.8992-256 124.9792 18.5088-8.7808 36.8128-30.464 48.9984-73.856 28.4672-25.216 69.0432-45.568 125.952-51.4048 33.8944-3.5328 60.3136-2.8672 81.0496 0.2816z" fill="#AE0110" p-id="9491"></path><path d="M905.8048 102.4c2.8672 0.9728-84.5568 67.3792-87.1168 177.9968-2.56 110.6176 20.736 139.8528 19.8656 153.4464-0.896 13.568-44.928-76.9536-33.024-164.6336 11.8784-87.7056 68.8128-150.528 100.2752-166.8096z" fill="#FF3040" p-id="9492"></path><path d="M128 36.9408C197.3504 18.1504 261.5808 16.2816 336.6912 82.3552 411.8016 148.48 669.0048 397.312 648.7552 621.4656c-4.5312 50.4832-6.5536 79.9232-19.5072 150.6304-12.9536 70.7328-36.096 72.704-69.0432 72.704-42.4704 0-317.824-17.9712-338.8672-215.6032-21.0176-197.632 70.7072-291.4816 44.7744-381.6192C240.1792 157.44 58.5472 55.7312 128 36.9408z" fill="#C4000F" p-id="9493"></path><path d="M317.0816 51.2c3.7632 2.7904 7.5264 5.76 11.3664 8.9344 6.144 5.4528 12.3392 10.9056 18.4576 16.5632 19.5328 18.4576 48.64 47.616 80.768 84.1472a1309.0816 1309.0816 0 0 1 81.6384 105.7792c60.3648 86.6048 91.0848 160.64 104.9856 211.6352 4.736 18.7648 8.1408 37.632 9.8816 56.4736 0 0.9728 0.1024 1.9712 0.1024 2.8672-3.072-37.8112-58.7008-98.2272-86.8864-122.368-28.16-24.064-81.8176-56.832-104.832-82.7392-9.5232-10.7008-20.1216-29.3632-23.808-59.648-6.7072-55.552-13.5424-57.2416-24.832-93.8496-9.0112-28.8768-31.232-71.5264-66.8416-127.7952z" fill="#AD000C" p-id="9494"></path><path d="M327.7824 59.9552c1.792 1.6128 3.6864 3.2512 5.4784 4.9664C397.056 124.0576 601.6 331.8784 624.2816 535.168V537.6c-4.224-64.1024-100.224-151.3728-140.1344-183.8336-10.5984-8.6528-42.752-43.8528-49.2288-73.984C421.248 216.1408 381.952 139.9296 317.0816 51.2c3.584 2.8416 7.168 5.8112 10.7008 8.7552z" fill="#E41828" p-id="9495"></path><path d="M173.2096 25.6c-14.8992 1.9712-29.9008 5.2736-45.1072 9.3184-69.9392 18.944 113.024 120.704 139.136 211.0976 26.112 90.368-66.2784 184.4736-45.056 382.6176C243.328 826.7776 520.7296 844.8 563.4816 844.8c26.7008 0 47.0272-1.3568 60.7744-39.04-80.512-39.0144-171.648-94.5152-217.984-253.0048-36.096-123.1872-11.136-294.3232-64.256-386.3552C288.512 73.6256 225.2544 32.3328 173.2096 25.6z" fill="#AE010F" p-id="9496"></path><path d="M317.0816 51.2c60.4416 58.88 233.0624 242.9952 281.6 435.2-5.2736-15.0528-13.6448-32.128-27.7248-53.9392-18.7392-28.672-47.616-82.816-91.8016-152.32-44.1856-69.504-94.5408-139.6736-104.9856-156.6464C363.8784 106.752 344.8832 82.688 317.0816 51.2z" fill="#C4000F" p-id="9497"></path><path d="M265.8816 409.6c5.3248 1.0752 8.7552 7.168 10.24 17.9712 2.2272 16.2816 6.0928 27.392 10.496 42.24 17.8688 60.7232 38.5024 71.0912 53.632 91.2128 15.104 20.1472-44.7232 46.336-57.088 8.6016-8.3456-25.2416-14.08-78.5408-17.28-160.0256z" fill="#8A000B" p-id="9498"></path><path d="M603.8528 790.0416c23.68-18.56 57.9584-56.32 150.1696-69.8368 92.2112-13.4912 162.56 16.4864 176.8192 31.104 6.7072 6.912-40.1152-13.2608-87.3728-7.3216-47.2832 5.9648-58.5984 28.288-89.4464 46.0544-30.8736 17.7664-117.6064 62.7712-159.232 53.504-41.728-9.3952-14.6176-35.0208 9.0624-53.504z" fill="#65B12B" p-id="9499"></path><path d="M931.4816 756.8128c-3.4816 1.536-45.1072-13.3632-87.1168-8.192-46.8992 5.6576-58.112 26.9824-88.7296 43.9296-30.336 16.8192-115.2 59.2384-156.9536 51.2512 1.5872-0.2304 3.2768-0.4608 5.248-0.6912 36.0448-4.8128 86.3232-31.5136 111.872-45.312 28.1088-15.2064 49.28-33.536 95.36-49.5872 28.928-9.984 68.9664-7.1168 120.32 8.6016z" fill="#75CF30" p-id="9500"></path><path d="M272.8192 457.6512c2.6624 23.3472 10.9056 67.7888 41.6256 110.7712 38.912 54.4256 67.6096 84.48 118.1184 141.7728 50.4064 57.2928 60.288 90.112 140.5184 140.928-7.1424 22.7328-83.5328 28.4928-152.7808 0s-124.3136-42.88-162.304-149.76c-35.6608-100.3264-7.7568-211.5328 0-249.088 5.7856-27.9552 12.1856-18.304 14.848 5.376z" fill="#65B12B" p-id="9501"></path><path d="M245.3504 498.6112c2.4832-17.408 5.4272-15.104 7.4752 0 2.0224 15.104 7.8336 24.4992 17.408 46.976 21.9392 51.5584 53.76 85.76 72.2688 107.9552 39.2448 47.104 48.64 59.648 112.8192 119.3984 40.192 37.4528 67.84 49.3056 92.16 68.9408-24.32-1.408-54.5792 17.3312-159.5392-25.216-59.7248-24.192-99.9168-62.1568-113.4592-92.8512-13.568-30.592-24.704-61.6704-29.1328-98.5344-10.0352-83.2256-2.4832-109.2608 0-126.6688z" fill="#5CA326" p-id="9502"></path><path d="M547.4816 818.944c-62.336-44.928-74.1376-77.2352-119.3984-130.6368-49.2288-58.0608-77.2608-88.4992-115.3024-143.6416-30.0032-43.4944-38.0416-88.5248-40.6272-112.2816-2.6112-24.0896-8.8576-33.792-14.5664-5.4272-7.6032 38.0416-34.816 150.7584 0 252.416 1.152 3.4304 2.304 6.7584 3.584 9.984 11.8784 21.7856 23.1168 40.448 5.9648 1.024-11.1616-25.6-20.8128-76.928-20.4544-135.6032 0.3584-58.7008 10.368-102.272 14.0288-115.2 2.688-9.3952 5.4528-1.152 6.4256 8.0128 0.9984 9.1904 7.0656 44.8256 22.2464 82.7904 9.6512 24.064 31.7952 53.5808 49.024 76.2112 11.8784 15.616 9.8304 14.2848 46.0032 55.8848 16.256 18.7648 62.592 74.9568 81.0752 96 12.3392 14.08 39.3984 34.2016 81.28 60.672 0.256 0.1024 0.512 0 0.7168-0.2048z" fill="#70C231" p-id="9503"></path><path d="M547.456 816.2304c-4.48 1.28-9.472 2.176-14.9504 2.9696a110.5408 110.5408 0 0 1-12.672-4.4544c-25.344-10.4704-103.5008-65.536-261.9136-142.6176A282.1632 282.1632 0 0 1 240.2816 614.4c44.544 44.8768 79.5136 74.24 104.8832 87.9616 38.4 20.9664 173.9264 81.4592 184.32 89.7536 10.4448 8.192 18.3552 18.3808 17.9712 24.1152z" fill="#478914" p-id="9504"></path><path d="M562.6368 812.6464h36.0448V1024H548.352v-187.776c-56.9856 2.5088-166.8352-13.568-246.7584-60.6208-99.6864-58.7264-109.4912-110.5664-156.0064-118.5536-46.5152-7.9872-36.1472-13.4912-17.8688-16.0768 39.5776-5.8112 107.392 15.2832 143.0528 40.5504 48.8192 34.4576 231.3472 98.56 291.84 131.1232z" fill="#65B12B" p-id="9505"></path><path d="M547.4816 1024h-22.528v-195.2512c-52.2752 2.56-153.088-14.1312-226.4064-63.0528-41.1136-27.4176-65.536-53.4016-83.8656-74.496 3.4048-0.1792 9.1648 1.152 15.2832 4.7872 12.2112 7.2704 52.7872 46.2336 126.0288 76.8768 73.216 30.6432 187.5456 36.0448 191.488 59.52V1024z" fill="#5BA027" p-id="9506"></path><path d="M598.6816 844.8v179.2h-25.4208c-0.256-112.4608-0.256-170.4192 0-173.8752 0.512-4.9408 16.8704-5.0432 25.4208-5.3248z" fill="#75CF30" p-id="9507"></path></svg>