<svg t="1618993190511" class="icon" viewBox="0 0 1024 1024" version="1.1" xmlns="http://www.w3.org/2000/svg" p-id="20812" width="200" height="200"><path d="M262.52185 1004.2c-38.9 0-76.5-21-95.8-57.7-11-20.9-14.9-45.2-10.9-68.5l34.8-203.1c2-11.9-1.9-24-10.5-32.4L32.62185 498.8c-42.7-41.6-43.6-110.1-2-152.8C47.02185 329.1 69.02185 317.8 92.42185 314.4l203.9-29.6c11.9-1.7 22.2-9.2 27.6-20L415.02185 80.1c12.8-25.9 34.9-45.2 62.2-54.5s56.7-7.3 82.5 5.5c14.1 7 26.5 17 36.3 29.1h2.9L700.02185 264.8c5.3 10.8 15.7 18.3 27.6 20l203.9 29.6c58.9 8.5 99.9 63.5 91.4 122.4-3.4 23.4-14.6 45.4-31.5 61.9L843.82185 642.5c-8.6 8.4-12.6 20.5-10.5 32.4l34.8 203c4.9 28.5-1.6 57.1-18.3 80.7-16.7 23.5-41.5 39.2-70 44.1-23.2 3.9-47.5 0.2-68.5-10.8L529.02185 896c-10.7-5.6-23.4-5.6-34.1 0l-182.3 95.8c-16 8.4-33.2 12.4-50.1 12.4zM511.92185 91.3c-4 0-7.9 0.7-11.8 2-9.3 3.1-16.8 9.7-21.1 18.5l-91.1 184.7c-15.7 31.9-46.2 54-81.4 59.1l-203.8 29.6c-7.9 1.2-15.3 4.9-20.9 10.7-14.1 14.5-13.8 37.7 0.7 51.8L230.02185 591.5c25.5 24.8 37.1 60.6 31.1 95.7l-34.8 203c-1.3 7.8 0 16.1 3.7 23.2 9.4 17.9 31.6 24.8 49.4 15.4L461.72185 833c31.5-16.5 69.1-16.5 100.6 0l182.3 95.8c7.1 3.7 15.3 5 23.1 3.7 9.7-1.7 18.1-7 23.8-14.9 5.6-8 7.8-17.7 6.2-27.3l-34.8-203c-6-35.1 5.6-70.8 31.1-95.7l147.6-143.7c5.7-5.6 9.5-13 10.7-21 2.9-19.9-11-38.5-31-41.4l-203.9-29.6c-35.2-5.1-65.6-27.2-81.4-59.1L544.72185 112c-3.5-7.2-9.4-13-16.6-16.6-5.2-2.8-10.7-4.1-16.2-4.1z" fill="#27D0D8" p-id="20813"></path></svg>