<?xml version="1.0" standalone="no"?><!DOCTYPE svg PUBLIC "-//W3C//DTD SVG 1.1//EN" "http://www.w3.org/Graphics/SVG/1.1/DTD/svg11.dtd">
<svg t="1631783349556" class="icon" viewBox="0 0 1024 1024" version="1.1" xmlns="http://www.w3.org/2000/svg" p-id="3329"
     width="200" height="200"><defs><style type="text/css"></style></defs><path d="M512.57344 0c74.239907 0 134.399832 60.159925 134.399832 134.399832l0.064 17.791978A384.12752 384.12752 0 0 1 896.57296 511.99936v255.99968a127.99984 127.99984 0 1 1 0 255.99968H128.57392a127.99984 127.99984 0 0 1-9.599988-255.67968L128.57392 767.99904V511.99936a384.12752 384.12752 0 0 1 249.535688-359.80755L378.173608 134.399832C378.173608 60.159925 438.333533 0 512.57344 0z m0 217.599728A294.399632 294.399632 0 0 0 218.173808 511.99936v342.399572l-86.335892 3.199996-6.207992 0.128A38.399952 38.399952 0 0 0 128.57392 934.398832h767.99904a38.399952 38.399952 0 0 0 0-76.799904h-89.599888V511.99936A294.399632 294.399632 0 0 0 512.57344 217.599728z m0-140.799824a57.599928 57.599928 0 0 0-57.599928 55.487931 389.887513 389.887513 0 0 1 115.135856 0L570.173368 134.399832a57.599928 57.599928 0 0 0-57.599928-57.599928z" fill="#727484" p-id="3330"></path><path d="M512.57344 383.99952v191.99976h159.9998L512.57344 831.99896v-191.99976H352.57364L512.57344 383.99952z" fill="#68A2FD" p-id="3331"></path></svg>
