<svg t="1618883090387" class="icon" viewBox="0 0 1024 1024" version="1.1" xmlns="http://www.w3.org/2000/svg" p-id="20251" width="200" height="200"><path d="M74.752 87.04c0-0.512 0.512-1.024 0.512-1.536 0 0.512 0 1.024-0.512 1.536zM70.656 114.176v2.048c0-8.704 1.024-17.408 3.072-26.112-1.536 7.68-3.072 15.872-3.072 24.064zM765.952 80.384l0.512 86.016 132.096-1.024-0.512-58.368c-0.512-51.2-45.056-94.208-97.28-93.696h-6.144c5.632 0 13.312 2.56 18.944 3.584-28.16 6.144-47.616 33.28-47.616 63.488z" fill="#CB522E" p-id="20252"></path><path d="M77.824 923.648v2.048c0.512 51.2 38.912 92.16 91.136 91.648h6.144c-52.224 0.512-96.768-42.496-97.28-93.696zM166.4 18.944h-6.144c-41.472 0.512-73.728 29.184-85.504 66.56 12.8-37.888 49.664-66.56 91.648-66.56zM74.24 90.112c0.512-1.024 0.512-2.048 1.024-3.072-0.512 1.024-1.024 2.048-1.024 3.072z" fill="#5161C4" p-id="20253"></path><path d="M765.952 80.384c0-30.208 18.944-56.832 47.616-63.488-5.632-1.024-13.312-3.584-18.944-3.584l-628.224 5.12c-41.984 0.512-78.848 29.184-91.136 67.072 0 0.512-0.512 1.024-0.512 1.536-0.512 1.024-0.512 2.048-1.024 3.072-2.048 8.192-3.072 16.896-3.072 26.112l0.512 56.32 695.296-5.632-0.512-86.528z" fill="#3E3E9B" p-id="20254"></path><path d="M822.272 1010.688c-5.632 1.024-12.8 1.536-18.944 1.536h6.144c52.224-0.512 96.256-44.032 95.744-95.232l-0.512-58.368-132.096 1.024 0.512 90.112c0.512 30.208 20.48 54.784 49.152 60.928z" fill="#CB522E" p-id="20255"></path><path d="M77.48608 865.8944l-5.8624-693.248 695.808-5.888 5.8624 693.248z" fill="#5161C4" p-id="20256"></path><path d="M77.824 923.648c0.512 51.2 45.056 94.208 97.28 93.696l628.224-5.12c5.632 0 13.312-0.512 18.944-1.536-28.672-6.144-48.64-30.72-48.64-60.928l-0.512-90.112-695.296 5.632v58.368z" fill="#3E3E9B" p-id="20257"></path><path d="M217.088 376.832h-1.536c-21.504 0-39.424-17.408-39.424-38.912 0-21.504 17.408-39.424 38.912-39.424h1.536c21.504 0 39.424 17.408 39.424 38.912 0 21.504-17.408 39.424-38.912 39.424zM473.6 529.408l-257.024 2.048c-21.504 0-39.424-17.408-39.424-38.912 0-21.504 17.408-39.424 38.912-39.424l257.024-2.048c21.504 0 39.424 17.408 39.424 38.912 0.512 21.504-16.896 38.912-38.912 39.424zM628.736 682.496l-411.136 3.584c-21.504 0-39.424-17.408-39.424-38.912 0-21.504 17.408-39.424 38.912-39.424l411.136-3.584c21.504 0 39.424 17.408 39.424 38.912 0.512 22.016-16.896 39.424-38.912 39.424z" fill="#FFFFFF" p-id="20258"></path></svg>