<?xml version="1.0" standalone="no"?><!DOCTYPE svg PUBLIC "-//W3C//DTD SVG 1.1//EN" "http://www.w3.org/Graphics/SVG/1.1/DTD/svg11.dtd"><svg t="1635233336662" class="icon" viewBox="0 0 1024 1024" version="1.1" xmlns="http://www.w3.org/2000/svg" p-id="6266" xmlns:xlink="http://www.w3.org/1999/xlink" width="200" height="200"><defs><style type="text/css"></style></defs><path d="M73.92 256V109.696c0-20.16 16.512-36.544 36.928-36.544h802.304c20.416 0 36.928 16.384 36.928 36.544V256a36.736 36.736 0 0 1-36.928 36.544H110.848A36.736 36.736 0 0 1 73.92 256z m839.232 475.456c20.416 0 36.928 16.384 36.928 36.544v146.304a36.736 36.736 0 0 1-36.928 36.544H110.848a36.736 36.736 0 0 1-36.928-36.544V768c0-20.16 16.512-36.544 36.928-36.544h802.304z m0-365.76C974.4 365.696 1024 316.608 1024 256V109.696C1024 49.088 974.4 0 913.152 0H110.848C49.6 0 0 49.088 0 109.696V256c0 60.608 49.6 109.696 110.848 109.696h181.76V512c0 20.224 16.32 36.544 36.48 36.544h329.216v109.76H110.848C49.6 658.304 0 707.392 0 768v146.304C0 974.912 49.6 1024 110.848 1024h802.304c61.248 0 110.848-49.088 110.848-109.696V768c0-60.608-49.6-109.696-110.848-109.696h-181.76V512a36.544 36.544 0 0 0-36.48-36.544H365.632V365.696h547.456z" fill="#5584FF" p-id="6267"></path><path d="M768 182.848a36.544 36.544 0 0 0-36.544-36.544H292.48a36.544 36.544 0 1 0 0 73.152h438.912A36.544 36.544 0 0 0 768 182.848M292.544 877.696h438.912a36.544 36.544 0 1 0 0-73.152H292.48a36.544 36.544 0 1 0 0 73.152" fill="#5584FF" p-id="6268"></path></svg>