<?xml version="1.0" standalone="no"?><!DOCTYPE svg PUBLIC "-//W3C//DTD SVG 1.1//EN" "http://www.w3.org/Graphics/SVG/1.1/DTD/svg11.dtd">
<svg t="1582505927431" class="icon" viewBox="0 0 1024 1024" version="1.1" xmlns="http://www.w3.org/2000/svg"
     p-id="12950"
     width="200" height="200"><defs><style type="text/css"></style></defs><path d="M212.1216 787.0976c-25.856 0-46.848 20.4544-46.848 45.568 0 25.1648 20.992 45.6192 46.848 45.6192h492.2112c25.856 0 46.848-20.48 46.848-45.5936 0-25.1392-20.992-45.5936-46.848-45.5936H212.1216zM919.8848 40.192c-21.9392 4.2496-37.12 24.1152-37.12 45.824v746.0608c0 55.4496-46.1824 100.48-103.2192 100.48H154.624c-19.456 0-35.0976-15.3344-35.0976-34.176v-127.7696c0-18.6368 15.5392-33.7152 34.6112-33.7152h445.7216c104.448 0 189.1328-82.5344 189.1328-184.2432V138.5216C789.0176 62.0544 725.376 0 646.8608 0H167.7824C89.2672 0 25.6 62.0544 25.6 138.496v759.9104C25.6 967.7824 83.3024 1024 154.5216 1024H779.52c108.672 0 196.9152-85.8368 196.9152-191.8976V84.9152c0.1024-28.4672-26.2912-50.7392-56.576-44.6976z" p-id="12951" fill="#515151"></path></svg>
