<svg t="1618560315823" class="icon" viewBox="0 0 1024 1024" version="1.1" xmlns="http://www.w3.org/2000/svg" p-id="33680" width="200" height="200"><path d="M541.127111 603.818667m-343.267555 0a343.267556 343.267556 0 1 0 686.535111 0 343.267556 343.267556 0 1 0-686.535111 0Z" fill="#A3A3A3" p-id="33681"></path><path d="M568.32 550.456889m-342.357333 0a342.357333 342.357333 0 1 0 684.714666 0 342.357333 342.357333 0 1 0-684.714666 0Z" fill="#FFD44D" p-id="33682"></path><path d="M188.416 498.574222c4.437333-0.113778 7.964444-3.640889 7.850667-8.078222-0.113778-4.437333-3.754667-7.964444-8.078223-7.850667-4.437333 0.113778-7.850667 3.754667-7.850666 8.078223 0 4.437333 3.640889 7.964444 8.078222 7.850666zM228.920889 537.713778c4.437333-0.113778 7.850667-3.640889 7.850667-8.078222-0.113778-4.437333-3.640889-7.964444-8.078223-7.850667-4.437333 0.113778-7.964444 3.754667-7.850666 8.078222 0 4.437333 3.640889 7.964444 8.078222 7.850667zM226.304 378.424889c4.437333-0.113778 7.850667-3.640889 7.850667-8.078222-0.113778-4.437333-3.640889-7.964444-8.078223-7.850667-4.437333 0.113778-7.964444 3.754667-7.850666 8.078222 0 4.437333 3.640889 7.964444 8.078222 7.850667zM224.938667 298.780444c4.437333-0.113778 7.850667-3.640889 7.850666-8.078222-0.113778-4.437333-3.640889-7.964444-8.078222-7.850666-4.437333 0.113778-7.964444 3.754667-7.850667 8.078222 0 4.437333 3.640889 7.850667 8.078223 7.850666zM187.050667 418.929778c3.299556 0 6.144-2.161778 7.281777-5.006222 0.341333-0.910222 0.568889-2.048 0.568889-3.072v-0.796445c-0.113778-1.024-0.455111-2.048-1.024-2.958222-0.341333-0.682667-0.910222-1.251556-1.365333-1.820445-1.479111-1.365333-3.527111-2.275556-5.688889-2.275555s-4.209778 0.910222-5.575111 2.389333c-0.341333 0.341333-0.682667 0.796444-0.910222 1.251556-0.796444 1.251556-1.365333 2.844444-1.251556 4.437333 0 1.137778 0.227556 2.161778 0.682667 3.072 1.137778 2.844444 3.982222 4.778667 7.281778 4.778667zM347.704889 495.957333c4.437333-0.113778 7.964444-3.640889 7.850667-8.078222-0.113778-4.437333-3.754667-7.964444-8.078223-7.850667-4.437333 0.113778-7.850667 3.754667-7.850666 8.078223 0.113778 4.437333 3.640889 7.964444 8.078222 7.850666zM388.209778 535.096889c4.437333-0.113778 7.850667-3.640889 7.850666-8.078222-0.113778-4.437333-3.640889-7.964444-8.078222-7.850667-4.437333 0.113778-7.964444 3.754667-7.850666 8.078222 0 4.437333 3.640889 7.964444 8.078222 7.850667zM386.844444 455.452444c4.437333-0.113778 7.850667-3.640889 7.850667-8.078222-0.113778-4.437333-3.640889-7.964444-8.078222-7.850666-4.437333 0.113778-7.964444 3.754667-7.850667 8.078222 0.113778 4.437333 3.754667 7.964444 8.078222 7.850666zM308.565333 536.462222c4.437333-0.113778 7.850667-3.640889 7.850667-8.078222-0.113778-4.437333-3.640889-7.964444-8.078222-7.850667-4.437333 0.113778-7.964444 3.754667-7.850667 8.078223 0 4.437333 3.640889 7.964444 8.078222 7.850666zM307.2 456.817778c4.437333-0.113778 7.850667-3.640889 7.850667-8.078222-0.113778-4.437333-3.640889-7.964444-8.078223-7.850667-4.437333 0.113778-7.964444 3.754667-7.850666 8.078222 0.113778 4.437333 3.640889 7.850667 8.078222 7.850667zM268.060444 497.322667c4.437333-0.113778 7.850667-3.640889 7.850667-8.078223-0.113778-4.437333-3.640889-7.964444-8.078222-7.850666-4.437333 0.113778-7.850667 3.754667-7.850667 8.078222s3.640889 7.850667 8.078222 7.850667zM345.088 336.668444c4.437333-0.113778 7.964444-3.640889 7.850667-8.078222-0.113778-4.437333-3.754667-7.964444-8.078223-7.850666-4.437333 0.113778-7.850667 3.754667-7.850666 8.078222 0.113778 4.437333 3.640889 7.850667 8.078222 7.850666zM385.592889 375.808c4.437333-0.113778 7.850667-3.640889 7.850667-8.078222-0.113778-4.437333-3.640889-7.964444-8.078223-7.850667-4.437333 0.113778-7.964444 3.754667-7.850666 8.078222 0 4.437333 3.640889 7.964444 8.078222 7.850667zM384.227556 296.163556c4.437333-0.113778 7.850667-3.640889 7.850666-8.078223-0.113778-4.437333-3.640889-7.964444-8.078222-7.850666-4.437333 0.113778-7.964444 3.754667-7.850667 8.078222 0.113778 4.437333 3.754667 7.850667 8.078223 7.850667zM305.948444 377.173333c4.437333-0.113778 7.850667-3.640889 7.850667-8.078222-0.113778-4.437333-3.640889-7.964444-8.078222-7.850667-4.437333 0.113778-7.964444 3.754667-7.850667 8.078223 0 4.323556 3.640889 7.850667 8.078222 7.850666zM346.453333 416.312889c3.299556 0 6.144-2.161778 7.281778-5.006222 0.341333-0.910222 0.568889-2.048 0.568889-3.072 0-1.934222-0.796444-3.640889-1.934222-5.006223-0.113778-0.227556-0.341333-0.341333-0.568889-0.568888-1.479111-1.365333-3.527111-2.275556-5.688889-2.275556s-4.209778 0.910222-5.575111 2.389333c-0.341333 0.341333-0.682667 0.796444-0.910222 1.251556-0.796444 1.251556-1.365333 2.844444-1.251556 4.437333 0 1.137778 0.227556 2.161778 0.682667 3.072 1.137778 2.844444 4.096 4.778667 7.395555 4.778667zM266.695111 417.564444c3.299556 0 6.144-2.161778 7.281778-5.006222 0.341333-0.910222 0.568889-2.048 0.568889-3.072 0-1.365333-0.341333-2.616889-1.024-3.754666-0.341333-0.682667-0.796444-1.251556-1.365334-1.820445-1.479111-1.365333-3.527111-2.275556-5.688888-2.275555s-4.209778 0.910222-5.575112 2.389333c-0.341333 0.341333-0.682667 0.796444-0.910222 1.251555-0.796444 1.251556-1.365333 2.844444-1.251555 4.437334 0 1.137778 0.227556 2.161778 0.682666 3.072 1.137778 2.958222 3.982222 4.892444 7.281778 4.778666zM264.078222 258.275556c3.299556 0 6.144-2.161778 7.281778-5.006223 0.341333-0.910222 0.568889-2.048 0.568889-3.072 0-1.137778-0.227556-2.161778-0.682667-3.072-0.455111-0.910222-1.024-1.820444-1.706666-2.503111-1.479111-1.365333-3.527111-2.275556-5.688889-2.275555s-4.209778 0.910222-5.575111 2.389333c-0.682667 0.682667-1.251556 1.592889-1.706667 2.503111-0.341333 0.910222-0.568889 2.048-0.568889 3.072 0 1.137778 0.227556 2.161778 0.682667 3.072 1.251556 2.958222 4.096 4.892444 7.395555 4.892445zM506.993778 493.340444c4.437333-0.113778 7.964444-3.640889 7.850666-8.078222-0.113778-4.437333-3.754667-7.964444-8.078222-7.850666-4.437333 0.113778-7.850667 3.754667-7.850666 8.078222 0.113778 4.437333 3.754667 7.964444 8.078222 7.850666zM467.854222 533.845333c4.437333-0.113778 7.850667-3.640889 7.850667-8.078222-0.113778-4.437333-3.640889-7.964444-8.078222-7.850667-4.437333 0.113778-7.964444 3.754667-7.850667 8.078223 0.113778 4.437333 3.640889 7.964444 8.078222 7.850666zM466.602667 454.200889c4.437333-0.113778 7.850667-3.640889 7.850666-8.078222-0.113778-4.437333-3.640889-7.964444-8.078222-7.850667-4.437333 0.113778-7.964444 3.754667-7.850667 8.078222 0 4.437333 3.640889 7.850667 8.078223 7.850667zM427.349333 494.705778c4.437333-0.113778 7.850667-3.640889 7.850667-8.078222-0.113778-4.437333-3.640889-7.964444-8.078222-7.850667-4.437333 0.113778-7.850667 3.754667-7.850667 8.078222 0.113778 4.323556 3.754667 7.850667 8.078222 7.850667zM504.490667 334.051556c4.437333-0.113778 7.964444-3.640889 7.850666-8.078223-0.113778-4.437333-3.754667-7.964444-8.078222-7.850666-4.437333 0.113778-7.850667 3.754667-7.850667 8.078222 0 4.437333 3.640889 7.850667 8.078223 7.850667zM465.237333 374.556444c4.437333-0.113778 7.850667-3.640889 7.850667-8.078222-0.113778-4.437333-3.640889-7.964444-8.078222-7.850666-4.437333 0.113778-7.964444 3.754667-7.850667 8.078222 0.113778 4.323556 3.640889 7.850667 8.078222 7.850666zM463.985778 294.798222c4.437333-0.113778 7.850667-3.640889 7.850666-8.078222-0.113778-4.437333-3.640889-7.964444-8.078222-7.850667-4.437333 0.113778-7.964444 3.754667-7.850666 8.078223 0 4.437333 3.640889 7.964444 8.078222 7.850666zM505.742222 413.696c3.299556 0 6.144-2.161778 7.281778-5.006222 0.341333-0.910222 0.568889-2.048 0.568889-3.072 0-1.592889-0.568889-3.185778-1.479111-4.437334-0.341333-0.455111-0.682667-0.796444-1.024-1.137777-1.479111-1.365333-3.527111-2.275556-5.688889-2.275556s-4.209778 0.910222-5.575111 2.389333c-0.341333 0.341333-0.682667 0.796444-0.910222 1.137778-0.796444 1.251556-1.365333 2.844444-1.251556 4.437334 0 1.137778 0.227556 2.161778 0.682667 3.072 1.251556 2.958222 4.096 4.892444 7.395555 4.892444zM424.732444 335.303111c4.437333-0.113778 7.850667-3.640889 7.850667-8.078222-0.113778-4.437333-3.640889-7.964444-8.078222-7.850667-4.437333 0.113778-7.850667 3.754667-7.850667 8.078222 0.113778 4.437333 3.754667 7.964444 8.078222 7.850667zM426.097778 414.947556c0.455111 0 0.796444 0 1.251555-0.113778 2.730667-0.455111 5.006222-2.389333 6.030223-4.892445 0.341333-0.910222 0.568889-2.048 0.568888-3.072 0-1.365333-0.341333-2.616889-1.024-3.754666-0.341333-0.682667-0.796444-1.251556-1.365333-1.820445-1.479111-1.365333-3.413333-2.275556-5.688889-2.275555-2.161778 0-4.209778 0.910222-5.575111 2.389333-0.341333 0.341333-0.682667 0.796444-0.910222 1.251556-0.796444 1.251556-1.365333 2.844444-1.251556 4.437333 0 1.137778 0.227556 2.161778 0.682667 3.072 1.137778 2.958222 3.982222 4.892444 7.281778 4.778667zM503.125333 254.407111c3.299556 0 6.144-2.161778 7.281778-5.006222 0.341333-0.910222 0.568889-2.048 0.568889-3.072 0-1.137778-0.227556-2.161778-0.682667-3.072-0.455111-0.910222-1.024-1.820444-1.706666-2.503111-0.227556-0.227556-0.341333-0.341333-0.568889-0.455111-1.365333-1.137778-3.185778-1.820444-5.12-1.706667-1.934222 0-3.640889 0.796444-5.006222 1.934222-0.227556 0.113778-0.341333 0.341333-0.568889 0.568889-0.682667 0.682667-1.251556 1.592889-1.706667 2.503111-0.341333 0.910222-0.568889 2.048-0.568889 3.072 0 1.137778 0.227556 2.161778 0.682667 3.072 1.251556 2.730667 4.096 4.664889 7.395555 4.664889zM423.480889 255.658667c3.299556 0 6.144-2.161778 7.281778-5.006223 0.341333-0.910222 0.568889-2.048 0.568889-3.072 0-1.137778-0.227556-2.161778-0.682667-3.072-0.455111-0.910222-1.024-1.820444-1.706667-2.503111-1.479111-1.365333-3.413333-2.275556-5.688889-2.275555-2.161778 0-4.209778 0.910222-5.575111 2.389333-0.682667 0.682667-1.251556 1.592889-1.706666 2.503111-0.341333 0.910222-0.568889 2.048-0.568889 3.072 0 1.137778 0.227556 2.161778 0.682666 3.072 1.251556 2.958222 4.096 4.892444 7.395556 4.892445zM231.424 697.116444c4.437333-0.113778 7.850667-3.640889 7.850667-8.078222-0.113778-4.437333-3.640889-7.964444-8.078223-7.850666-4.437333 0.113778-7.964444 3.754667-7.850666 8.078222 0.113778 4.437333 3.754667 7.850667 8.078222 7.850666zM230.172444 617.472c4.437333-0.113778 7.850667-3.640889 7.850667-8.078222-0.113778-4.437333-3.640889-7.964444-8.078222-7.850667-4.437333 0.113778-7.964444 3.754667-7.850667 8.078222 0 4.323556 3.640889 7.850667 8.078222 7.850667zM185.912889 577.308444c0.113778 0.113778 0.341333 0.113778 0.455111 0.227556 0.113778 0 0.113778 0.113778 0.227556 0.113778 0.910222 0.341333 2.048 0.568889 3.072 0.568889 2.161778 0 3.982222-0.910222 5.461333-2.275556l0.341333-0.341333c1.251556-1.479111 2.048-3.413333 2.048-5.461334 0-1.934222-0.796444-3.640889-1.934222-5.006222-0.113778-0.227556-0.341333-0.341333-0.568889-0.568889-1.479111-1.365333-3.527111-2.275556-5.688889-2.275555-1.592889 0-3.185778 0.568889-4.437333 1.479111-0.455111 0.341333-0.796444 0.568889-1.137778 1.024-0.682667 0.682667-1.251556 1.592889-1.706667 2.503111-0.341333 0.910222-0.568889 2.048-0.568888 3.072 0 0.341333 0 0.682667 0.113777 1.137778 0.455111 2.503111 2.048 4.664889 4.323556 5.802666zM432.355556 797.354667c-4.437333 0.113778-7.850667 3.754667-7.850667 8.078222 0.113778 4.437333 3.640889 7.850667 8.078222 7.850667 4.437333-0.113778 7.850667-3.640889 7.850667-8.078223-0.113778-4.323556-3.640889-7.850667-8.078222-7.850666zM352.711111 798.72c-4.437333 0.113778-7.850667 3.754667-7.850667 8.078222 0.113778 4.437333 3.640889 7.850667 8.078223 7.850667 4.437333-0.113778 7.964444-3.640889 7.850666-8.078222-0.113778-4.437333-3.754667-7.964444-8.078222-7.850667zM392.078222 774.144c4.437333-0.113778 7.850667-3.640889 7.850667-8.078222-0.113778-4.437333-3.640889-7.964444-8.078222-7.850667-4.437333 0.113778-7.964444 3.754667-7.850667 8.078222 0.113778 4.437333 3.754667 7.964444 8.078222 7.850667zM312.433778 775.509333c4.437333-0.113778 7.850667-3.640889 7.850666-8.078222-0.113778-4.437333-3.640889-7.964444-8.078222-7.850667-4.437333 0.113778-7.964444 3.754667-7.850666 8.078223 0.113778 4.323556 3.640889 7.850667 8.078222 7.850666zM350.321778 655.246222c4.437333-0.113778 7.964444-3.640889 7.850666-8.078222-0.113778-4.437333-3.754667-7.964444-8.078222-7.850667-4.437333 0.113778-7.850667 3.754667-7.850666 8.078223 0 4.437333 3.640889 7.964444 8.078222 7.850666zM390.826667 694.499556c4.437333-0.113778 7.850667-3.640889 7.850666-8.078223-0.113778-4.437333-3.640889-7.964444-8.078222-7.850666-4.437333 0.113778-7.964444 3.754667-7.850667 8.078222 0 4.437333 3.640889 7.850667 8.078223 7.850667zM389.461333 614.855111c4.437333-0.113778 7.850667-3.640889 7.850667-8.078222-0.113778-4.437333-3.640889-7.964444-8.078222-7.850667-4.437333 0.113778-7.964444 3.754667-7.850667 8.078222 0.113778 4.323556 3.754667 7.850667 8.078222 7.850667zM311.182222 695.751111c4.437333-0.113778 7.850667-3.640889 7.850667-8.078222-0.113778-4.437333-3.640889-7.964444-8.078222-7.850667-4.437333 0.113778-7.964444 3.754667-7.850667 8.078222 0 4.437333 3.640889 7.964444 8.078222 7.850667zM309.816889 616.106667c4.437333-0.113778 7.850667-3.640889 7.850667-8.078223-0.113778-4.437333-3.640889-7.964444-8.078223-7.850666-4.437333 0.113778-7.964444 3.754667-7.850666 8.078222 0.113778 4.437333 3.640889 7.964444 8.078222 7.850667zM348.501333 734.435556c0.910222 0.341333 2.048 0.568889 3.072 0.568888 1.137778 0 2.161778-0.227556 3.072-0.682666 2.844444-1.251556 4.778667-4.096 4.778667-7.395556 0-1.137778-0.227556-2.161778-0.682667-3.072-0.796444-1.934222-2.389333-3.413333-4.323555-4.209778-0.910222-0.341333-2.048-0.568889-3.072-0.568888-1.137778 0-2.161778 0.227556-3.072 0.682666-1.934222 0.796444-3.413333 2.389333-4.209778 4.323556-0.341333 0.910222-0.568889 2.048-0.568889 3.072 0.113778 3.299556 2.161778 6.030222 5.006222 7.281778zM270.677333 656.611556c4.437333-0.113778 7.850667-3.640889 7.850667-8.078223-0.113778-4.437333-3.640889-7.964444-8.078222-7.850666-4.437333 0.113778-7.850667 3.754667-7.850667 8.078222 0 4.437333 3.640889 7.964444 8.078222 7.850667zM268.856889 735.687111c0.910222 0.341333 2.048 0.568889 3.072 0.568889 1.137778 0 2.161778-0.227556 3.072-0.682667 2.844444-1.251556 4.778667-4.096 4.778667-7.395555 0-1.137778-0.227556-2.161778-0.682667-3.072-0.796444-1.934222-2.389333-3.413333-4.323556-4.209778-0.910222-0.341333-2.048-0.568889-3.072-0.568889-1.137778 0-2.161778 0.227556-3.072 0.682667-1.934222 0.796444-3.413333 2.389333-4.209777 4.323555-0.341333 0.910222-0.568889 2.048-0.568889 3.072 0.113778 3.299556 2.161778 6.144 5.006222 7.281778zM344.746667 574.464c1.251556 0.796444 2.730667 1.137778 4.323555 1.137778h0.796445c1.820444-0.227556 3.413333-1.024 4.664889-2.161778 1.251556-1.251556 2.161778-2.958222 2.389333-4.892444v-0.910223c0-1.365333-0.341333-2.616889-1.024-3.754666-0.113778-0.227556-0.227556-0.455111-0.455111-0.682667-0.455111-0.682667-1.024-1.137778-1.592889-1.706667-1.365333-1.137778-3.185778-1.820444-5.12-1.706666-1.137778 0-2.161778 0.227556-3.072 0.682666-1.137778 0.568889-2.161778 1.365333-2.958222 2.275556-0.113778 0.227556-0.341333 0.455111-0.455111 0.568889-0.796444 1.251556-1.365333 2.844444-1.251556 4.437333 0 0.341333 0 0.682667 0.113778 1.137778 0.227556 2.389333 1.706667 4.323556 3.640889 5.575111zM265.557333 576.056889c1.137778 0.568889 2.389333 0.910222 3.868445 0.910222 1.934222 0 3.640889-0.682667 5.006222-1.820444 0.227556-0.227556 0.455111-0.341333 0.568889-0.568889 0.455111-0.455111 0.910222-1.024 1.251555-1.706667 0.113778-0.227556 0.227556-0.341333 0.341334-0.568889 0-0.113778 0.113778-0.227556 0.113778-0.341333l0.341333-1.024c0-0.227556 0.113778-0.341333 0.113778-0.568889 0.113778-0.455111 0.113778-0.910222 0.113777-1.365333 0-1.137778-0.227556-2.161778-0.682666-3.072-1.251556-2.844444-4.096-4.778667-7.395556-4.778667-0.796444 0-1.592889 0.113778-2.389333 0.341333-0.455111 0.113778-1.024 0.341333-1.365333 0.682667-0.227556 0.113778-0.455111 0.227556-0.682667 0.455111-2.048 1.479111-3.413333 3.868444-3.413333 6.712889 0 0.341333 0 0.682667 0.113777 1.137778 0.227556 2.275556 1.820444 4.437333 4.096 5.575111zM512 796.103111c-4.437333 0.113778-7.850667 3.754667-7.850667 8.078222 0.113778 4.437333 3.640889 7.850667 8.078223 7.850667 4.437333-0.113778 7.964444-3.640889 7.850666-8.078222 0-4.437333-3.640889-7.964444-8.078222-7.850667zM472.860444 836.608c-4.437333 0.113778-7.964444 3.754667-7.850666 8.078222 0.113778 4.437333 3.640889 7.850667 8.078222 7.850667 4.437333-0.113778 7.850667-3.640889 7.850667-8.078222-0.113778-4.437333-3.754667-7.964444-8.078223-7.850667zM471.836444 772.892444c4.437333-0.113778 7.850667-3.640889 7.850667-8.078222-0.113778-4.437333-3.640889-7.964444-8.078222-7.850666-4.437333 0.113778-7.964444 3.754667-7.850667 8.078222 0 4.323556 3.640889 7.850667 8.078222 7.850666zM509.610667 652.629333c4.437333-0.113778 7.964444-3.640889 7.850666-8.078222-0.113778-4.437333-3.754667-7.964444-8.078222-7.850667-4.437333 0.113778-7.850667 3.754667-7.850667 8.078223 0.113778 4.437333 3.754667 7.964444 8.078223 7.850666zM470.471111 693.134222c4.437333-0.113778 7.850667-3.640889 7.850667-8.078222-0.113778-4.437333-3.640889-7.964444-8.078222-7.850667-4.437333 0.113778-7.964444 3.754667-7.850667 8.078223 0 4.437333 3.640889 7.964444 8.078222 7.850666zM469.219556 613.489778c4.437333-0.113778 7.850667-3.640889 7.850666-8.078222-0.113778-4.437333-3.640889-7.964444-8.078222-7.850667-4.437333 0.113778-7.964444 3.754667-7.850667 8.078222 0 4.437333 3.640889 7.964444 8.078223 7.850667zM507.904 731.818667c0.910222 0.341333 2.048 0.568889 3.072 0.568889 1.137778 0 2.161778-0.227556 3.072-0.682667 2.844444-1.251556 4.778667-4.096 4.778667-7.395556 0-1.137778-0.227556-2.161778-0.682667-3.072-0.796444-1.934222-2.389333-3.413333-4.323556-4.209777-0.910222-0.341333-2.048-0.568889-3.072-0.568889-1.137778 0-2.161778 0.227556-3.072 0.682666-1.934222 0.796444-3.413333 2.389333-4.209777 4.323556-0.341333 0.910222-0.568889 2.048-0.568889 3.072 0 3.299556 2.048 6.030222 5.006222 7.281778zM429.966222 653.994667c4.437333-0.113778 7.850667-3.640889 7.850667-8.078223-0.113778-4.437333-3.640889-7.964444-8.078222-7.850666-4.437333 0.113778-7.850667 3.754667-7.850667 8.078222 0.113778 4.437333 3.754667 7.964444 8.078222 7.850667zM428.145778 733.070222c0.910222 0.341333 2.048 0.568889 3.072 0.568889 1.137778 0 2.161778-0.227556 3.072-0.682667 2.844444-1.251556 4.778667-4.096 4.778666-7.395555 0-1.137778-0.227556-2.161778-0.682666-3.072-0.796444-1.934222-2.389333-3.413333-4.323556-4.209778-0.910222-0.341333-2.048-0.568889-3.072-0.568889-1.137778 0-2.161778 0.227556-3.072 0.682667-1.934222 0.796444-3.413333 2.389333-4.209778 4.323555-0.341333 0.910222-0.568889 2.048-0.568888 3.072 0.113778 3.299556 2.161778 6.144 5.006222 7.281778zM508.359111 572.984889c1.820444 0 3.413333-0.682667 4.778667-1.706667 1.706667-1.251556 2.844444-3.299556 3.072-5.461333v-0.910222c0-1.365333-0.341333-2.616889-1.024-3.754667-0.113778-0.227556-0.227556-0.455111-0.455111-0.682667-0.455111-0.682667-1.024-1.137778-1.592889-1.706666-1.365333-1.137778-3.185778-1.820444-5.12-1.706667-0.796444 0-1.592889 0.113778-2.389334 0.341333-0.455111 0.113778-1.024 0.341333-1.365333 0.682667-0.227556 0.113778-0.455111 0.227556-0.682667 0.455111-2.048 1.479111-3.413333 3.868444-3.413333 6.712889 0 0.796444 0.113778 1.479111 0.341333 2.161778v0.227555c0.455111 1.251556 1.137778 2.389333 2.048 3.185778 1.592889 1.365333 3.640889 2.275556 5.802667 2.161778zM424.163556 572.984889c1.251556 0.796444 2.844444 1.365333 4.437333 1.251555 1.934222 0 3.640889-0.796444 5.006222-1.934222 1.706667-1.479111 2.844444-3.754667 2.844445-6.144 0-2.730667-1.479111-5.12-3.640889-6.599111-0.455111-0.227556-0.910222-0.568889-1.365334-0.682667-0.455111-0.227556-1.024-0.341333-1.479111-0.455111-0.568889-0.113778-1.024-0.113778-1.592889-0.113777-0.796444 0-1.592889 0.113778-2.389333 0.341333-0.455111 0.113778-1.024 0.341333-1.365333 0.682667-0.227556 0.113778-0.455111 0.227556-0.682667 0.455111-2.048 1.479111-3.413333 3.868444-3.413333 6.712889 0 0.796444 0.113778 1.479111 0.341333 2.161777v0.227556c0.682667 1.706667 1.820444 3.185778 3.299556 4.096zM557.283556 540.330667c4.437333-0.113778 7.850667-3.640889 7.850666-8.078223-0.113778-4.437333-3.640889-7.964444-8.078222-7.850666-4.437333 0.113778-7.964444 3.754667-7.850667 8.078222 0 4.437333 3.640889 7.964444 8.078223 7.850667zM556.032 460.686222c4.437333-0.113778 7.850667-3.640889 7.850667-8.078222-0.113778-4.437333-3.640889-7.964444-8.078223-7.850667-4.437333 0.113778-7.964444 3.754667-7.850666 8.078223 0 4.437333 3.640889 7.964444 8.078222 7.850666zM554.666667 381.041778c4.437333-0.113778 7.850667-3.640889 7.850666-8.078222-0.113778-4.437333-3.640889-7.964444-8.078222-7.850667-4.437333 0.113778-7.964444 3.754667-7.850667 8.078222 0 4.437333 3.640889 7.964444 8.078223 7.850667zM553.415111 301.397333c4.437333-0.113778 7.850667-3.640889 7.850667-8.078222-0.113778-4.437333-3.640889-7.964444-8.078222-7.850667-4.437333 0.113778-7.964444 3.754667-7.850667 8.078223 0 4.437333 3.640889 7.850667 8.078222 7.850666zM676.181333 498.574222c4.437333-0.113778 7.964444-3.640889 7.850667-8.078222-0.113778-4.437333-3.754667-7.964444-8.078222-7.850667-4.437333 0.113778-7.850667 3.754667-7.850667 8.078223 0 4.437333 3.640889 7.964444 8.078222 7.850666zM716.572444 537.713778c4.437333-0.113778 7.850667-3.640889 7.850667-8.078222-0.113778-4.437333-3.640889-7.964444-8.078222-7.850667-4.437333 0.113778-7.964444 3.754667-7.850667 8.078222 0.113778 4.437333 3.754667 7.964444 8.078222 7.850667zM715.320889 458.069333c4.437333-0.113778 7.850667-3.640889 7.850667-8.078222-0.113778-4.437333-3.640889-7.964444-8.078223-7.850667-4.437333 0.113778-7.964444 3.754667-7.850666 8.078223 0 4.437333 3.640889 7.964444 8.078222 7.850666zM636.928 539.079111c4.437333-0.113778 7.850667-3.640889 7.850667-8.078222-0.113778-4.437333-3.640889-7.964444-8.078223-7.850667-4.437333 0.113778-7.964444 3.754667-7.850666 8.078222 0.113778 4.437333 3.640889 7.850667 8.078222 7.850667zM635.676444 459.434667c4.437333-0.113778 7.850667-3.640889 7.850667-8.078223-0.113778-4.437333-3.640889-7.964444-8.078222-7.850666-4.437333 0.113778-7.964444 3.754667-7.850667 8.078222 0 4.323556 3.640889 7.850667 8.078222 7.850667zM596.423111 499.825778c4.437333-0.113778 7.850667-3.640889 7.850667-8.078222-0.113778-4.437333-3.640889-7.964444-8.078222-7.850667-4.437333 0.113778-7.850667 3.754667-7.850667 8.078222 0.113778 4.437333 3.754667 7.964444 8.078222 7.850667zM593.92 578.673778c1.137778 0.568889 2.389333 0.910222 3.868444 0.910222 0.341333 0 0.796444 0 1.137778-0.113778 1.706667-0.227556 3.299556-1.137778 4.437334-2.275555 0.910222-0.910222 1.592889-2.048 1.934222-3.299556 0-0.113778 0-0.227556 0.113778-0.227555 0-0.227556 0.113778-0.455111 0.113777-0.682667 0.113778-0.455111 0.113778-0.910222 0.113778-1.365333 0-2.161778-0.910222-4.209778-2.389333-5.575112-1.479111-1.365333-3.413333-2.275556-5.688889-2.275555-1.592889 0-3.185778 0.568889-4.437333 1.479111-0.455111 0.341333-0.796444 0.568889-1.137778 1.024-0.682667 0.682667-1.251556 1.592889-1.706667 2.503111-0.227556 0.455111-0.341333 1.024-0.455111 1.479111-0.113778 0.568889-0.113778 1.024-0.113778 1.592889 0 0.341333 0 0.682667 0.113778 1.024 0.341333 2.389333 1.934222 4.664889 4.096 5.802667zM673.564444 339.285333c4.437333-0.113778 7.964444-3.640889 7.850667-8.078222-0.113778-4.437333-3.754667-7.964444-8.078222-7.850667-4.437333 0.113778-7.850667 3.754667-7.850667 8.078223s3.640889 7.850667 8.078222 7.850666zM713.955556 378.424889c4.437333-0.113778 7.850667-3.640889 7.850666-8.078222-0.113778-4.437333-3.640889-7.964444-8.078222-7.850667-4.437333 0.113778-7.964444 3.754667-7.850667 8.078222 0.113778 4.437333 3.754667 7.964444 8.078223 7.850667zM712.704 298.780444c4.437333-0.113778 7.850667-3.640889 7.850667-8.078222-0.113778-4.437333-3.640889-7.964444-8.078223-7.850666-4.437333 0.113778-7.964444 3.754667-7.850666 8.078222 0 4.437333 3.640889 7.850667 8.078222 7.850666zM634.311111 379.676444c4.437333-0.113778 7.850667-3.640889 7.850667-8.078222-0.113778-4.437333-3.640889-7.964444-8.078222-7.850666-4.437333 0.113778-7.964444 3.754667-7.850667 8.078222 0.113778 4.437333 3.640889 7.964444 8.078222 7.850666zM633.059556 300.032c4.437333-0.113778 7.850667-3.640889 7.850666-8.078222-0.113778-4.437333-3.640889-7.964444-8.078222-7.850667-4.437333 0.113778-7.964444 3.754667-7.850667 8.078222 0 4.437333 3.640889 7.964444 8.078223 7.850667zM674.816 418.929778c3.299556 0 6.144-2.161778 7.281778-5.006222 0.341333-0.910222 0.568889-2.048 0.568889-3.072v-0.796445c-0.113778-1.024-0.455111-2.048-1.024-2.958222-0.341333-0.682667-0.910222-1.251556-1.365334-1.820445-1.479111-1.365333-3.527111-2.275556-5.688889-2.275555s-4.209778 0.910222-5.575111 2.389333c-0.341333 0.341333-0.682667 0.796444-0.910222 1.251556-0.796444 1.251556-1.365333 2.844444-1.251555 4.437333 0 1.137778 0.227556 2.161778 0.682666 3.072 1.137778 2.844444 3.982222 4.778667 7.281778 4.778667zM593.806222 340.536889c4.437333-0.113778 7.850667-3.640889 7.850667-8.078222-0.113778-4.437333-3.640889-7.964444-8.078222-7.850667-4.437333 0.113778-7.850667 3.754667-7.850667 8.078222 0.113778 4.437333 3.754667 7.964444 8.078222 7.850667zM595.171556 420.181333c3.299556 0 6.144-2.161778 7.281777-5.006222 0.341333-0.910222 0.568889-2.048 0.568889-3.072 0-1.592889-0.568889-3.185778-1.479111-4.437333-0.341333-0.455111-0.568889-0.796444-1.024-1.137778-1.479111-1.365333-3.527111-2.275556-5.688889-2.275556s-4.209778 0.910222-5.575111 2.389334c-0.341333 0.341333-0.682667 0.796444-0.910222 1.251555-0.796444 1.251556-1.365333 2.844444-1.251556 4.437334 0 1.137778 0.227556 2.161778 0.682667 3.072 1.251556 2.958222 4.096 4.892444 7.395556 4.778666zM672.199111 259.527111c3.299556 0 6.144-2.161778 7.281778-5.006222 0.341333-0.910222 0.568889-2.048 0.568889-3.072 0-1.137778-0.227556-2.161778-0.682667-3.072-0.455111-0.910222-1.024-1.820444-1.706667-2.503111-1.479111-1.365333-3.527111-2.275556-5.688888-2.275556-1.934222 0-3.640889 0.796444-5.006223 1.934222-0.227556 0.113778-0.341333 0.341333-0.568889 0.568889-0.682667 0.682667-1.251556 1.592889-1.706666 2.503111-0.341333 0.910222-0.568889 2.048-0.568889 3.072 0 1.137778 0.227556 2.161778 0.682667 3.072 1.251556 2.958222 4.096 4.892444 7.395555 4.778667zM592.554667 260.892444c3.299556 0 6.144-2.161778 7.281777-5.006222 0.341333-0.910222 0.568889-2.048 0.568889-3.072 0-1.137778-0.227556-2.161778-0.682666-3.072-0.455111-0.910222-1.024-1.820444-1.706667-2.503111-1.479111-1.365333-3.527111-2.275556-5.688889-2.275555-1.706667 0-3.299556 0.568889-4.551111 1.592888-0.341333 0.227556-0.682667 0.568889-1.024 0.910223-0.682667 0.682667-1.251556 1.592889-1.706667 2.503111-0.341333 0.910222-0.568889 2.048-0.568889 3.072 0 1.137778 0.227556 2.161778 0.682667 3.072 1.251556 2.844444 4.096 4.778667 7.395556 4.778666zM835.470222 495.957333c4.437333-0.113778 7.964444-3.640889 7.850667-8.078222-0.113778-4.437333-3.754667-7.964444-8.078222-7.850667-4.437333 0.113778-7.850667 3.754667-7.850667 8.078223 0 4.437333 3.640889 7.964444 8.078222 7.850666zM875.975111 535.096889c4.437333-0.113778 7.850667-3.640889 7.850667-8.078222-0.113778-4.437333-3.640889-7.964444-8.078222-7.850667-4.437333 0.113778-7.964444 3.754667-7.850667 8.078222 0 4.437333 3.640889 7.964444 8.078222 7.850667zM874.609778 455.452444c4.437333-0.113778 7.850667-3.640889 7.850666-8.078222-0.113778-4.437333-3.640889-7.964444-8.078222-7.850666-4.437333 0.113778-7.964444 3.754667-7.850666 8.078222 0.113778 4.437333 3.754667 7.964444 8.078222 7.850666zM796.330667 536.462222c4.437333-0.113778 7.850667-3.640889 7.850666-8.078222-0.113778-4.437333-3.640889-7.964444-8.078222-7.850667-4.437333 0.113778-7.964444 3.754667-7.850667 8.078223 0 4.437333 3.640889 7.964444 8.078223 7.850666zM794.965333 456.817778c4.437333-0.113778 7.850667-3.640889 7.850667-8.078222-0.113778-4.437333-3.640889-7.964444-8.078222-7.850667-4.437333 0.113778-7.964444 3.754667-7.850667 8.078222 0.113778 4.437333 3.640889 7.850667 8.078222 7.850667zM755.825778 497.322667c4.437333-0.113778 7.850667-3.640889 7.850666-8.078223-0.113778-4.437333-3.640889-7.964444-8.078222-7.850666-4.437333 0.113778-7.850667 3.754667-7.850666 8.078222s3.640889 7.850667 8.078222 7.850667zM873.358222 375.808c4.437333-0.113778 7.850667-3.640889 7.850667-8.078222-0.113778-4.437333-3.640889-7.964444-8.078222-7.850667-4.437333 0.113778-7.964444 3.754667-7.850667 8.078222 0 4.437333 3.640889 7.964444 8.078222 7.850667zM871.992889 296.163556c4.437333-0.113778 7.850667-3.640889 7.850667-8.078223-0.113778-4.437333-3.640889-7.964444-8.078223-7.850666-4.437333 0.113778-7.964444 3.754667-7.850666 8.078222 0.113778 4.437333 3.754667 7.850667 8.078222 7.850667zM793.713778 377.173333c4.437333-0.113778 7.850667-3.640889 7.850666-8.078222-0.113778-4.437333-3.640889-7.964444-8.078222-7.850667-4.437333 0.113778-7.964444 3.754667-7.850666 8.078223 0 4.323556 3.640889 7.850667 8.078222 7.850666zM834.104889 416.312889c3.299556 0 6.144-2.161778 7.281778-5.006222 0.341333-0.910222 0.568889-2.048 0.568889-3.072 0-1.934222-0.796444-3.640889-1.934223-5.006223-0.113778-0.227556-0.341333-0.341333-0.568889-0.568888-1.479111-1.365333-3.527111-2.275556-5.688888-2.275556s-4.209778 0.910222-5.575112 2.389333c-0.341333 0.341333-0.682667 0.796444-0.910222 1.251556-0.796444 1.251556-1.365333 2.844444-1.251555 4.437333 0 1.137778 0.227556 2.161778 0.682666 3.072 1.251556 2.844444 4.096 4.778667 7.395556 4.778667zM753.208889 337.92c4.437333-0.113778 7.850667-3.640889 7.850667-8.078222-0.113778-4.437333-3.640889-7.964444-8.078223-7.850667-4.437333 0.113778-7.850667 3.754667-7.850666 8.078222 0 4.437333 3.640889 7.964444 8.078222 7.850667zM754.460444 417.564444c3.299556 0 6.144-2.161778 7.281778-5.006222 0.341333-0.910222 0.568889-2.048 0.568889-3.072 0-1.365333-0.341333-2.616889-1.024-3.754666-0.341333-0.682667-0.796444-1.251556-1.365333-1.820445-1.479111-1.365333-3.527111-2.275556-5.688889-2.275555s-4.209778 0.910222-5.575111 2.389333c-0.341333 0.341333-0.682667 0.796444-0.910222 1.251555-0.796444 1.251556-1.365333 2.844444-1.251556 4.437334 0 1.137778 0.227556 2.161778 0.682667 3.072 1.137778 2.958222 3.982222 4.892444 7.281777 4.778666zM831.601778 256.910222c3.299556 0 6.144-2.161778 7.281778-5.006222 0.341333-0.910222 0.568889-2.048 0.568888-3.072 0-1.137778-0.227556-2.161778-0.682666-3.072-0.455111-0.910222-1.024-1.820444-1.706667-2.503111-0.227556-0.227556-0.341333-0.341333-0.568889-0.455111-1.365333-1.137778-3.185778-1.820444-5.12-1.706667-1.934222 0-3.640889 0.796444-5.006222 1.934222-0.227556 0.113778-0.341333 0.341333-0.568889 0.568889-0.682667 0.682667-1.251556 1.592889-1.706667 2.503111-0.341333 0.910222-0.568889 2.048-0.568888 3.072 0 1.137778 0.227556 2.161778 0.682666 3.072 1.137778 2.844444 4.096 4.778667 7.395556 4.664889zM915.114667 494.705778c4.437333-0.113778 7.850667-3.640889 7.850666-8.078222-0.113778-4.437333-3.640889-7.964444-8.078222-7.850667-4.437333 0.113778-7.850667 3.754667-7.850667 8.078222 0.113778 4.323556 3.640889 7.850667 8.078223 7.850667zM913.863111 414.947556c0.455111 0 0.796444 0 1.251556-0.113778 2.730667-0.455111 5.006222-2.389333 6.030222-4.892445 0.341333-0.910222 0.568889-2.048 0.568889-3.072 0-1.365333-0.341333-2.616889-1.024-3.754666-0.341333-0.682667-0.796444-1.251556-1.365334-1.820445-1.479111-1.365333-3.413333-2.275556-5.688888-2.275555-2.161778 0-4.209778 0.910222-5.575112 2.389333-0.341333 0.341333-0.682667 0.796444-0.910222 1.251556-0.796444 1.251556-1.365333 2.844444-1.251555 4.437333 0 1.137778 0.227556 2.161778 0.682666 3.072 1.137778 2.958222 3.982222 4.892444 7.281778 4.778667zM601.429333 802.588444c-4.437333 0.113778-7.964444 3.754667-7.850666 8.078223 0.113778 4.437333 3.640889 7.850667 8.078222 7.850666 4.437333-0.113778 7.850667-3.640889 7.850667-8.078222-0.113778-4.437333-3.640889-7.850667-8.078223-7.850667zM562.289778 843.093333c-4.437333 0.113778-7.964444 3.754667-7.850667 8.078223 0.113778 4.437333 3.640889 7.850667 8.078222 7.850666 4.437333-0.113778 7.850667-3.640889 7.850667-8.078222-0.113778-4.437333-3.754667-7.964444-8.078222-7.850667zM561.152 779.377778c4.437333-0.113778 7.850667-3.640889 7.850667-8.078222-0.113778-4.437333-3.640889-7.964444-8.078223-7.850667-4.437333 0.113778-7.964444 3.754667-7.850666 8.078222 0.113778 4.437333 3.754667 7.964444 8.078222 7.850667zM559.900444 699.733333c4.437333-0.113778 7.850667-3.640889 7.850667-8.078222-0.113778-4.437333-3.640889-7.964444-8.078222-7.850667-4.437333 0.113778-7.964444 3.754667-7.850667 8.078223 0 4.437333 3.640889 7.850667 8.078222 7.850666zM558.535111 620.088889c4.437333-0.113778 7.850667-3.640889 7.850667-8.078222-0.113778-4.437333-3.640889-7.964444-8.078222-7.850667-4.437333 0.113778-7.964444 3.754667-7.850667 8.078222 0.113778 4.323556 3.754667 7.850667 8.078222 7.850667zM760.718222 799.971556c-4.437333 0.113778-7.964444 3.754667-7.850666 8.078222 0.113778 4.437333 3.640889 7.850667 8.078222 7.850666 4.437333-0.113778 7.850667-3.640889 7.850666-8.078222 0-4.323556-3.640889-7.850667-8.078222-7.850666zM681.073778 801.336889c-4.437333 0.113778-7.850667 3.754667-7.850667 8.078222 0.113778 4.437333 3.640889 7.850667 8.078222 7.850667 4.437333-0.113778 7.964444-3.640889 7.850667-8.078222 0-4.437333-3.640889-7.964444-8.078222-7.850667zM720.554667 776.760889c4.437333-0.113778 7.850667-3.640889 7.850666-8.078222-0.113778-4.437333-3.640889-7.964444-8.078222-7.850667-4.437333 0.113778-7.964444 3.754667-7.850667 8.078222 0 4.437333 3.640889 7.964444 8.078223 7.850667zM641.934222 841.841778c-4.437333 0.113778-7.964444 3.754667-7.850666 8.078222 0.113778 4.437333 3.640889 7.850667 8.078222 7.850667 4.437333-0.113778 7.850667-3.640889 7.850666-8.078223-0.113778-4.437333-3.754667-7.964444-8.078222-7.850666zM640.910222 778.012444c4.437333-0.113778 7.850667-3.640889 7.850667-8.078222-0.113778-4.437333-3.640889-7.964444-8.078222-7.850666-4.437333 0.113778-7.964444 3.754667-7.850667 8.078222 0 4.437333 3.640889 7.964444 8.078222 7.850666zM678.684444 657.863111c4.437333-0.113778 7.964444-3.640889 7.850667-8.078222-0.113778-4.437333-3.754667-7.964444-8.078222-7.850667-4.437333 0.113778-7.850667 3.754667-7.850667 8.078222 0.113778 4.437333 3.754667 7.964444 8.078222 7.850667zM719.189333 697.116444c4.437333-0.113778 7.850667-3.640889 7.850667-8.078222-0.113778-4.437333-3.640889-7.964444-8.078222-7.850666-4.437333 0.113778-7.964444 3.754667-7.850667 8.078222 0.113778 4.437333 3.754667 7.850667 8.078222 7.850666zM717.937778 617.472c4.437333-0.113778 7.850667-3.640889 7.850666-8.078222-0.113778-4.437333-3.640889-7.964444-8.078222-7.850667-4.437333 0.113778-7.964444 3.754667-7.850666 8.078222 0 4.323556 3.640889 7.850667 8.078222 7.850667zM639.544889 698.368c4.437333-0.113778 7.850667-3.640889 7.850667-8.078222-0.113778-4.437333-3.640889-7.964444-8.078223-7.850667-4.437333 0.113778-7.964444 3.754667-7.850666 8.078222 0.113778 4.437333 3.640889 7.964444 8.078222 7.850667zM638.293333 618.723556c4.437333-0.113778 7.850667-3.640889 7.850667-8.078223-0.113778-4.437333-3.640889-7.964444-8.078222-7.850666-4.437333 0.113778-7.964444 3.754667-7.850667 8.078222 0 4.437333 3.640889 7.964444 8.078222 7.850667zM676.977778 737.052444c0.910222 0.341333 2.048 0.568889 3.072 0.568889 1.137778 0 2.161778-0.227556 3.072-0.682666 2.844444-1.251556 4.778667-4.096 4.778666-7.395556 0-1.137778-0.227556-2.161778-0.682666-3.072-0.796444-1.934222-2.389333-3.413333-4.323556-4.209778-0.910222-0.341333-2.048-0.568889-3.072-0.568889-1.137778 0-2.161778 0.227556-3.072 0.682667-1.934222 0.796444-3.413333 2.389333-4.209778 4.323556-0.341333 0.910222-0.568889 2.048-0.568888 3.072 0 3.299556 2.048 6.030222 5.006222 7.281777zM599.04 659.228444c4.437333-0.113778 7.850667-3.640889 7.850667-8.078222-0.113778-4.437333-3.640889-7.964444-8.078223-7.850666-4.437333 0.113778-7.850667 3.754667-7.850666 8.078222 0.113778 4.437333 3.754667 7.964444 8.078222 7.850666zM597.219556 738.304c0.910222 0.341333 2.048 0.568889 3.072 0.568889 1.137778 0 2.161778-0.227556 3.072-0.682667 2.844444-1.251556 4.778667-4.096 4.778666-7.395555 0-1.137778-0.227556-2.161778-0.682666-3.072-0.796444-1.934222-2.389333-3.413333-4.323556-4.209778-0.910222-0.341333-2.048-0.568889-3.072-0.568889-1.137778 0-2.161778 0.227556-3.072 0.682667-1.934222 0.796444-3.413333 2.389333-4.209778 4.323555-0.341333 0.910222-0.568889 2.048-0.568889 3.072 0.113778 3.299556 2.161778 6.144 5.006223 7.281778zM673.564444 577.308444c0.113778 0.113778 0.341333 0.113778 0.455112 0.227556 0.113778 0 0.113778 0.113778 0.227555 0.113778 0.910222 0.341333 2.048 0.568889 3.072 0.568889 2.161778 0 3.982222-0.910222 5.461333-2.275556l0.341334-0.341333c1.251556-1.479111 2.048-3.413333 2.048-5.461334 0-1.934222-0.796444-3.640889-1.934222-5.006222-0.113778-0.227556-0.341333-0.341333-0.568889-0.568889-1.479111-1.365333-3.527111-2.275556-5.688889-2.275555-1.592889 0-3.185778 0.568889-4.437334 1.479111-0.455111 0.341333-0.796444 0.568889-1.137777 1.024-0.682667 0.682667-1.251556 1.592889-1.706667 2.503111-0.341333 0.910222-0.568889 2.048-0.568889 3.072 0 0.341333 0 0.682667 0.113778 1.137778 0.568889 2.503111 2.161778 4.664889 4.323555 5.802666zM800.199111 775.509333c4.437333-0.113778 7.850667-3.640889 7.850667-8.078222-0.113778-4.437333-3.640889-7.964444-8.078222-7.850667-4.437333 0.113778-7.964444 3.754667-7.850667 8.078223 0 4.323556 3.640889 7.850667 8.078222 7.850666zM838.087111 655.246222c4.437333-0.113778 7.964444-3.640889 7.850667-8.078222-0.113778-4.437333-3.754667-7.964444-8.078222-7.850667-4.437333 0.113778-7.850667 3.754667-7.850667 8.078223 0 4.437333 3.640889 7.964444 8.078222 7.850666zM878.592 694.499556c4.437333-0.113778 7.850667-3.640889 7.850667-8.078223-0.113778-4.437333-3.640889-7.964444-8.078223-7.850666-4.437333 0.113778-7.964444 3.754667-7.850666 8.078222 0 4.437333 3.640889 7.850667 8.078222 7.850667zM877.226667 614.855111c4.437333-0.113778 7.850667-3.640889 7.850666-8.078222-0.113778-4.437333-3.640889-7.964444-8.078222-7.850667-4.437333 0.113778-7.964444 3.754667-7.850667 8.078222 0.113778 4.323556 3.754667 7.850667 8.078223 7.850667zM798.947556 695.751111c4.437333-0.113778 7.850667-3.640889 7.850666-8.078222-0.113778-4.437333-3.640889-7.964444-8.078222-7.850667-4.437333 0.113778-7.964444 3.754667-7.850667 8.078222 0 4.437333 3.640889 7.964444 8.078223 7.850667zM797.582222 616.106667c4.437333-0.113778 7.850667-3.640889 7.850667-8.078223-0.113778-4.437333-3.640889-7.964444-8.078222-7.850666-4.437333 0.113778-7.964444 3.754667-7.850667 8.078222 0 4.437333 3.640889 7.964444 8.078222 7.850667zM836.266667 734.435556c0.910222 0.341333 2.048 0.568889 3.072 0.568888 1.137778 0 2.161778-0.227556 3.072-0.682666 2.844444-1.251556 4.778667-4.096 4.778666-7.395556 0-1.137778-0.227556-2.161778-0.682666-3.072-0.796444-1.934222-2.389333-3.413333-4.323556-4.209778-0.910222-0.341333-2.048-0.568889-3.072-0.568888-1.137778 0-2.161778 0.227556-3.072 0.682666-1.934222 0.796444-3.413333 2.389333-4.209778 4.323556-0.341333 0.910222-0.568889 2.048-0.568889 3.072 0.113778 3.299556 2.161778 6.030222 5.006223 7.281778zM758.442667 656.611556c4.437333-0.113778 7.850667-3.640889 7.850666-8.078223-0.113778-4.437333-3.640889-7.964444-8.078222-7.850666-4.437333 0.113778-7.850667 3.754667-7.850667 8.078222 0 4.437333 3.640889 7.964444 8.078223 7.850667zM756.622222 735.687111c0.910222 0.341333 2.048 0.568889 3.072 0.568889 1.137778 0 2.161778-0.227556 3.072-0.682667 2.844444-1.251556 4.778667-4.096 4.778667-7.395555 0-1.137778-0.227556-2.161778-0.682667-3.072-0.796444-1.934222-2.389333-3.413333-4.323555-4.209778-0.910222-0.341333-2.048-0.568889-3.072-0.568889-1.137778 0-2.161778 0.227556-3.072 0.682667-1.934222 0.796444-3.413333 2.389333-4.209778 4.323555-0.341333 0.910222-0.568889 2.048-0.568889 3.072 0 3.299556 2.161778 6.144 5.006222 7.281778zM832.512 574.464c1.251556 0.796444 2.730667 1.137778 4.323556 1.137778h0.796444c1.820444-0.227556 3.413333-1.024 4.664889-2.161778 1.251556-1.251556 2.161778-2.958222 2.389333-4.892444v-0.910223c0-1.365333-0.341333-2.616889-1.024-3.754666-0.113778-0.227556-0.227556-0.455111-0.455111-0.682667-0.455111-0.682667-1.024-1.137778-1.592889-1.706667-1.365333-1.137778-3.185778-1.820444-5.12-1.706666-1.137778 0-2.161778 0.227556-3.072 0.682666-1.137778 0.568889-2.161778 1.365333-2.958222 2.275556-0.113778 0.227556-0.341333 0.455111-0.455111 0.568889-0.796444 1.251556-1.365333 2.844444-1.251556 4.437333 0 0.341333 0 0.682667 0.113778 1.137778 0.227556 2.389333 1.706667 4.323556 3.640889 5.575111zM753.322667 576.056889c1.137778 0.568889 2.389333 0.910222 3.868444 0.910222 1.934222 0 3.640889-0.682667 5.006222-1.820444 0.227556-0.227556 0.455111-0.341333 0.568889-0.568889 0.455111-0.455111 0.910222-1.024 1.251556-1.706667 0.113778-0.227556 0.227556-0.341333 0.341333-0.568889 0-0.113778 0.113778-0.227556 0.113778-0.341333l0.341333-1.024c0-0.227556 0.113778-0.341333 0.113778-0.568889 0.113778-0.455111 0.113778-0.910222 0.113778-1.365333 0-1.137778-0.227556-2.161778-0.682667-3.072-1.251556-2.844444-4.096-4.778667-7.395555-4.778667-0.796444 0-1.592889 0.113778-2.389334 0.341333-0.455111 0.113778-1.024 0.341333-1.365333 0.682667-0.227556 0.113778-0.455111 0.227556-0.682667 0.455111-2.048 1.479111-3.413333 3.868444-3.413333 6.712889 0 0.341333 0 0.682667 0.113778 1.137778 0.227556 2.275556 1.820444 4.437333 4.096 5.575111zM911.928889 572.984889c1.251556 0.796444 2.844444 1.365333 4.437333 1.251555 1.934222 0 3.640889-0.796444 5.006222-1.934222 1.706667-1.479111 2.844444-3.754667 2.844445-6.144 0-2.730667-1.479111-5.12-3.640889-6.599111-0.455111-0.227556-0.910222-0.568889-1.365333-0.682667-0.455111-0.227556-1.024-0.341333-1.479111-0.455111-0.568889-0.113778-1.024-0.113778-1.592889-0.113777-0.796444 0-1.592889 0.113778-2.389334 0.341333-0.455111 0.113778-1.024 0.341333-1.365333 0.682667-0.227556 0.113778-0.455111 0.227556-0.682667 0.455111-2.048 1.479111-3.413333 3.868444-3.413333 6.712889 0 0.796444 0.113778 1.479111 0.341333 2.161777v0.227556c0.682667 1.706667 1.820444 3.185778 3.299556 4.096z" fill="#231B3B" p-id="33683"></path><path d="M551.822222 882.460444c-52.906667 0-104.220444-10.353778-152.576-30.833777-46.648889-19.683556-88.519111-48.014222-124.586666-83.968-35.953778-35.953778-64.170667-77.937778-83.968-124.586667-20.48-48.355556-30.833778-99.669333-30.833778-152.576s10.353778-104.220444 30.833778-152.576c19.683556-46.648889 48.014222-88.519111 83.968-124.586667 35.953778-35.953778 77.824-64.170667 124.586666-83.968 48.355556-20.48 99.669333-30.833778 152.576-30.833777s104.220444 10.353778 152.576 30.833777c46.648889 19.683556 88.519111 48.014222 124.586667 83.968C864.938667 249.287111 893.155556 291.271111 912.952889 337.92c20.48 48.355556 30.833778 99.669333 30.833778 152.576s-10.353778 104.220444-30.833778 152.576c-19.683556 46.648889-48.014222 88.519111-83.968 124.586667-35.953778 35.953778-77.824 64.170667-124.586667 83.968-48.355556 20.48-99.669333 30.833778-152.576 30.833777z m0-717.710222c-87.04 0-168.846222 33.905778-230.4 95.459556-61.553778 61.553778-95.459556 143.36-95.459555 230.4s33.905778 168.846222 95.459555 230.4c61.553778 61.553778 143.36 95.459556 230.4 95.459555s168.846222-33.905778 230.4-95.459555c61.553778-61.553778 95.459556-143.36 95.459556-230.4s-33.905778-168.846222-95.459556-230.4c-61.553778-61.553778-143.36-95.459556-230.4-95.459556z" fill="#592B0C" p-id="33684"></path><path d="M529.863111 545.678222c-18.204444 0-32.995556-14.791111-32.995555-32.995555V298.097778c0-18.204444 14.791111-32.995556 32.995555-32.995556s32.995556 14.791111 32.995556 32.995556v214.471111c0 18.318222-14.791111 33.109333-32.995556 33.109333z" fill="#592B0C" p-id="33685"></path><path d="M700.302222 545.678222H529.863111c-18.204444 0-32.995556-14.791111-32.995555-32.995555s14.791111-32.995556 32.995555-32.995556h170.439111c18.204444 0 32.995556 14.791111 32.995556 32.995556s-14.791111 32.995556-32.995556 32.995555z" fill="#592B0C" p-id="33686"></path></svg>