<svg t="1618993143085" class="icon" viewBox="0 0 1024 1024" version="1.1" xmlns="http://www.w3.org/2000/svg" p-id="19371" width="200" height="200"><path d="M857.25696 416.31744H700.928V189.184A106.94144 106.94144 0 0 0 594.57024 81.92H203.648A106.94144 106.94144 0 0 0 97.28 189.184v645.632A106.94144 106.94144 0 0 0 203.648 942.08h653.60896A69.8368 69.8368 0 0 0 926.72 872.03328V486.36416a69.83168 69.83168 0 0 0-69.46304-70.04672z m-221.41952 460.11392H203.648a41.472 41.472 0 0 1-41.2672-41.61536V189.184a41.472 41.472 0 0 1 41.2672-41.61536h390.92224a41.472 41.472 0 0 1 41.2672 41.61536v687.24736z m225.792-4.39808a4.38272 4.38272 0 0 1-4.36224 4.39808H700.928V481.96608h156.31872a4.38272 4.38272 0 0 1 4.36224 4.39296v385.66912z" fill="#5288F5" p-id="19372"></path><path d="M558.592 423.00928H432.64V295.9872H367.45216v127.02208H241.5104v65.75104h125.952v127.02208H432.64V488.76032h125.952V423.00928z" fill="#F79C42" p-id="19373"></path></svg>