<svg t="1618994311698" class="icon" viewBox="0 0 1024 1024" version="1.1" xmlns="http://www.w3.org/2000/svg" p-id="41693" width="200" height="200"><path d="M862.76 789.99V234.01c0-49.71-40.29-90-90-90H331.24c-49.71 0-90 40.29-90 90v555.98c0 49.71 40.29 90 90 90h441.52c49.71 0 90-40.29 90-90z" fill="#99D1FF" p-id="41694"></path><path d="M601.61 899.99H271.24c-60.65 0-110-49.35-110-110V234.01c0-60.65 49.35-110 110-110h441.52c60.65 0 110 49.35 110 110v390.18c0 11.05-8.95 20-20 20s-20-8.95-20-20V234.01c0-38.6-31.4-70-70-70H271.24c-38.6 0-70 31.4-70 70v555.98c0 38.6 31.4 70 70 70h330.37c11.05 0 20 8.95 20 20s-8.95 20-20 20z" fill="#0072F0" p-id="41695"></path><path d="M553.23 592.05H278.77c-11.05 0-20-8.95-20-20s8.95-20 20-20h274.46c11.05 0 20 8.95 20 20s-8.95 20-20 20zM834.09 899.99c-5.12 0-10.24-1.95-14.14-5.86l-83.05-83.05c-7.81-7.81-7.81-20.47 0-28.28s20.47-7.81 28.28 0l83.05 83.05c7.81 7.81 7.81 20.47 0 28.28-3.9 3.91-9.02 5.86-14.14 5.86zM705.23 420.22H278.77c-11.05 0-20-8.95-20-20s8.95-20 20-20h426.46c11.05 0 20 8.95 20 20s-8.95 20-20 20z" fill="#0072F0" p-id="41696"></path><path d="M688.94 824.05c-56.24 0-102-45.76-102-102s45.76-102 102-102 102 45.76 102 102-45.75 102-102 102z m0-164c-34.19 0-62 27.81-62 62s27.81 62 62 62 62-27.81 62-62-27.81-62-62-62z" fill="#0072F0" p-id="41697"></path></svg>