<svg t="1618993496609" class="icon" viewBox="0 0 1024 1024" version="1.1" xmlns="http://www.w3.org/2000/svg" p-id="31445" width="200" height="200"><path d="M512.3 1001.9c-19 0-34.4-15.4-34.4-34.4V678.6c0-19 15.4-34.4 34.4-34.4s34.4 15.4 34.4 34.4v288.9c-0.1 19-15.4 34.4-34.4 34.4zM309.9 986.4c-5.2 0-10.5-1.2-15.4-3.7-17-8.6-23.8-29.2-15.2-46.2l130-258c8.6-17 29.3-23.7 46.2-15.2 17 8.6 23.8 29.2 15.2 46.2l-130 258c-6.1 12-18.2 18.9-30.8 18.9zM714.6 986.4c-12.6 0-24.7-6.9-30.7-18.9l-130-258c-8.5-16.9-1.7-37.6 15.2-46.2 16.9-8.5 37.6-1.7 46.2 15.2l130 258c8.5 16.9 1.7 37.6-15.2 46.2-5 2.6-10.3 3.7-15.5 3.7z" fill="#2D416C" p-id="31446"></path><path d="M66.5 31.8h893v709.1h-893z" fill="#83C6EF" p-id="31447"></path><path d="M513 31.8h446.5v709.1H513z" fill="#429BCF" p-id="31448"></path><path d="M86.5 83.9h852.9v604.9H86.5z" fill="#FFFFFF" p-id="31449"></path><path d="M246 363.2h81.5v183.3H246z" fill="#429BCF" p-id="31450"></path><path d="M396.9 312.3h81.5v234.2h-81.5z" fill="#FFD858" p-id="31451"></path><path d="M547.7 213.5h81.5v333h-81.5z" fill="#429BCF" p-id="31452"></path><path d="M698.5 167.3H780v379.2h-81.5z" fill="#C11B16" p-id="31453"></path></svg>