<?xml version="1.0" standalone="no"?><!DOCTYPE svg PUBLIC "-//W3C//DTD SVG 1.1//EN" "http://www.w3.org/Graphics/SVG/1.1/DTD/svg11.dtd">
<svg t="1585791107665" class="icon" viewBox="0 0 1024 1024" version="1.1" xmlns="http://www.w3.org/2000/svg" p-id="2235"
     width="200" height="200"><defs><style type="text/css"></style></defs><path d="M1009.777484 395.452875a526.456432 526.456432 0 0 0-40.511417-110.526411 489.272967 489.272967 0 0 0-65.279062-97.918592 551.096078 551.096078 0 0 0-87.038749-81.918823 71.422973 71.422973 0 0 0-54.271219-13.695803 71.67897 71.67897 0 0 0-47.487318 28.607589c-12.159825 15.99977-16.767759 33.791514-13.759802 53.503231 3.071956 19.711717 12.607819 35.711487 28.671588 47.807313a355.578889 355.578889 0 0 1 148.733862 292.731792c0 50.11128-9.535863 97.342601-28.735587 141.821961a362.362791 362.362791 0 0 1-78.398873 116.094331 379.194549 379.194549 0 0 1-116.670323 78.654869 355.514889 355.514889 0 0 1-142.58995 28.863586 355.45089 355.45089 0 0 1-142.525952-28.991584 372.666643 372.666643 0 0 1-195.389191-194.813199 348.474991 348.474991 0 0 1-29.247579-141.885961c0-59.13515 13.759802-115.262343 41.151408-167.933586a358.138852 358.138852 0 0 1 115.51834-130.430125c16.767759-11.391836 27.007612-27.007612 30.335563-46.719328a71.550971 71.550971 0 0 0-59.007151-83.710797 72.062964 72.062964 0 0 0-54.719214 11.967828c-34.239508 24.31965-64.831068 51.839255-91.518684 82.622812-26.687616 30.847557-49.599287 63.99908-68.671013 99.582569a490.040956 490.040956 0 0 0-43.455375 113.40637A505.272737 505.272737 0 0 0 0 513.787174c0 70.590985 13.567805 136.830033 40.511418 198.781143A520.312521 520.312521 0 0 0 150.397838 874.229993a520.504518 520.504518 0 0 0 162.429665 109.310429 496.184867 496.184867 0 0 0 199.67713 40.447418 494.072898 494.072898 0 0 0 198.653144-40.447418 531.704357 531.704357 0 0 0 162.941658-109.310429 509.048682 509.048682 0 0 0 109.88642-161.661676A496.952856 496.952856 0 0 0 1023.98528 513.787174a489.848958 489.848958 0 0 0-14.207796-118.398298zM516.920569 545.466719c18.623732 0 34.7515-6.591905 47.99931-19.839715 13.311809-13.18381 19.903714-29.18358 19.903714-47.871312V68.86557c0-18.559733-6.591905-34.7515-19.903714-48.383304a65.087064 65.087064 0 0 0-47.99931-20.479706c-19.519719 0-35.839485 6.847902-49.215292 20.479706a66.687041 66.687041 0 0 0-19.903714 48.383304v408.762124c0 18.559733 6.591905 34.559503 19.903714 47.935311 13.375808 13.311809 29.695573 19.903714 49.215292 19.903714z" p-id="2236"></path></svg>
