<svg t="1618883013452" class="icon" viewBox="0 0 1024 1024" version="1.1" xmlns="http://www.w3.org/2000/svg" p-id="17464" width="200" height="200"><path d="M929.45 237.09H94.55c-16.87 0-30.55-13.68-30.55-30.55C64 189.68 77.68 176 94.55 176h834.91c16.87 0 30.55 13.68 30.55 30.55-0.01 16.87-13.69 30.54-30.56 30.54zM929.45 542.55H94.55C77.68 542.55 64 528.87 64 512s13.68-30.55 30.55-30.55h834.91c16.87 0 30.55 13.68 30.55 30.55-0.01 16.87-13.69 30.55-30.56 30.55zM929.45 848H94.55C77.68 848 64 834.32 64 817.45s13.68-30.55 30.55-30.55h834.91c16.87 0 30.55 13.68 30.55 30.55C960 834.32 946.32 848 929.45 848z" fill="#8C9EFF" p-id="17465"></path></svg>