<svg t="1618561350467" class="icon" viewBox="0 0 1024 1024" version="1.1" xmlns="http://www.w3.org/2000/svg" p-id="61824" width="200" height="200"><path d="M706.06848 668.71296a71.68 71.68 0 1 1 62.42304 0L831.0784 778.24H860.16a61.44 61.44 0 0 1 0 122.88H614.4a61.44 61.44 0 0 1 0-122.88h29.0816l62.58688-109.52704zM690.64704 778.24h93.26592L737.28 696.64768 690.64704 778.24z m-35.67616 40.96H614.4a20.48 20.48 0 0 0 0 40.96h245.76a20.48 20.48 0 0 0 0-40.96H654.97088zM184.32 860.16h317.44a20.48 20.48 0 0 1 0 40.96H163.84a20.48 20.48 0 0 1-20.48-20.48V163.84a20.48 20.48 0 0 1 20.48-20.48h573.44a20.48 20.48 0 0 1 20.48 20.48v317.44a20.48 20.48 0 0 1-40.96 0V184.32H184.32v675.84z m220.8768-310.272c-3.9936 39.3216-15.6672 71.8848-35.0208 97.9968L347.7504 627.3024c19.3536-27.0336 29.184-61.44 29.7984-103.2192v-150.8352h183.0912V613.7856c0 19.6608-10.1376 29.4912-29.7984 29.4912H491.52l-7.9872-28.5696c13.5168 0.6144 26.112 1.2288 37.7856 1.2288 6.4512 0 9.8304-4.3008 9.8304-12.288V549.888h-125.952z m1.536-75.264v48.2304h124.416v-48.2304H406.7328z m124.416-27.3408v-46.08H406.7328v46.08h124.416zM737.28 634.88a30.72 30.72 0 1 0 0-61.44 30.72 30.72 0 0 0 0 61.44z" fill="#1BC9B5" p-id="61825"></path></svg>