<svg t="1618992965951" class="icon" viewBox="0 0 1024 1024" version="1.1" xmlns="http://www.w3.org/2000/svg" p-id="17204" width="200" height="200"><path d="M813.8 668c-49.4-56.7-98-98.5-100-100.3-12.6-10.8-31.5-9.3-42.3 3.2-10.8 12.6-9.3 31.5 3.2 42.3 0.5 0.4 47.8 41.2 94.3 94.7 57.6 66.2 89.5 123.8 89.8 162.2 0.2 28.4-7 49.6-22.2 64.9-26.6 26.8-71.8 28.9-85.1 28.9H272.9c-13.2 0-58.5-2.1-85.1-28.9-15.2-15.3-22.4-36.5-22.2-64.9 0.3-38.4 32.2-96 89.8-162.2 46.6-53.5 93.9-94.3 94.3-94.7 12.6-10.8 14-29.7 3.2-42.3-10.8-12.6-29.7-14-42.3-3.2-2 1.8-50.6 43.6-100 100.3-69.2 79.5-104.6 147.3-105.1 201.7-0.4 44.6 12.9 80.8 39.6 107.6 41.7 42.1 103.2 46.6 127.7 46.6h478.6c24.5 0 86-4.5 127.7-46.6 26.6-26.9 39.9-63.1 39.6-107.6-0.3-54.4-35.7-122.3-104.9-201.7z" fill="#448BFB" p-id="17205"></path><path d="M511.4 0.9c-156 0-282.5 126.5-282.5 282.5S355.3 566 511.4 566s282.5-126.5 282.5-282.5S667.4 0.9 511.4 0.9z m85.4 369.2c-1 1.2-2 2.2-3.1 3.2-10.7 10.6-44.4 40.6-82.8 40.6-42.8 0-75.6-32.4-84.5-42.2-0.5-0.6-1.1-1.1-1.6-1.7-0.2-0.2-0.4-0.4-0.5-0.6-4-5.1-6.3-11.5-6.3-18.4 0-16.6 13.4-30 30-30 8.7 0 16.5 3.7 22 9.6l-0.1-0.1c5.3 6.1 24.1 23.5 41 23.5 13.2 0 32.5-14.4 42.1-24.6 5.4-5.2 12.7-8.4 20.9-8.4 16.6 0 30 13.4 30 30-0.1 7.2-2.7 13.9-7.1 19.1z" fill="#448BFB" p-id="17206"></path></svg>