<?xml version="1.0" standalone="no"?><!DOCTYPE svg PUBLIC "-//W3C//DTD SVG 1.1//EN" "http://www.w3.org/Graphics/SVG/1.1/DTD/svg11.dtd"><svg t="1637658892604" class="icon" viewBox="0 0 1024 1024" version="1.1" xmlns="http://www.w3.org/2000/svg" p-id="3398" xmlns:xlink="http://www.w3.org/1999/xlink" width="200" height="200"><defs><style type="text/css"></style></defs><path d="M186 240c0-30 28-52.8 65.2-52.8h603.6c14.8 0 26.4-14.8 26.4-28s-12-23.6-26.4-23.6H251.2c-65.2 0-118 46.8-118 104v537.6c0 57.6 52.8 104 118 104h629.6V296.8H251.2c-36 0-65.2-25.6-65.2-56.8z m644.8 106.4v487.6h-584c-36.4 0-66.4-25.6-66.4-56.8v-448c19.6 11.6 42.4 17.6 66.4 17.6h584z" fill="#D0011B" p-id="3399"></path><path d="M281.2 212c-13.2 0-23.6 12-23.6 26.4 0 14.8 10.4 26.4 23.6 26.4h525.6c13.2 0 23.6-12 23.6-26.4 0-14.8-10.4-26.4-23.6-26.4H281.2zM391.6 460h338.8c14.4 0 26-12 26-26.4 0-14.8-11.6-26.4-26-26.4H391.6c-14.4 0-26 12-26 26.4 0 14.4 11.6 26.4 26 26.4zM391.6 600.4h338.8c14.4 0 26-11.2 26-25.2s-11.6-25.2-26-25.2H391.6c-14.4 0-26 11.2-26 25.2s11.6 25.2 26 25.2zM391.6 743.2h338.8c14.4 0 26-12 26-26.4 0-14.8-11.6-26.4-26-26.4H391.6c-14.4 0-26 12-26 26.4 0 14.4 11.6 26.4 26 26.4zM299.6 460c14.8 0 26.4-12 26.4-26.4 0-14.8-12-26.4-26.4-26.4-14.8 0-26.4 12-26.4 26.4 0 14.4 12 26.4 26.4 26.4zM299.6 599.2c14.8 0 26.4-12 26.4-26.4 0-14.8-12-26.4-26.4-26.4-14.8 0-26.4 12-26.4 26.4 0 14.8 12 26.4 26.4 26.4zM301.2 690c-14.8 0-26.4 12-26.4 26.4s12 26.4 26.4 26.4c14.8 0 26.4-12 26.4-26.4s-11.6-26.4-26.4-26.4z" fill="#D0011B" p-id="3400"></path></svg>