<svg t="1618883601472" class="icon" viewBox="0 0 1024 1024" version="1.1" xmlns="http://www.w3.org/2000/svg" p-id="27082" width="200" height="200"><path d="M851.057778 907.946667H807.822222v-45.511111h43.235556c36.408889 0 65.991111-29.582222 65.991111-65.991112V136.533333c0-36.408889-29.582222-65.991111-65.991111-65.991111H302.648889C266.24 70.542222 236.657778 100.124444 236.657778 136.533333h-45.511111c0-61.44 50.062222-111.502222 111.502222-111.502222h548.408889c61.44 0 111.502222 50.062222 111.502222 111.502222v659.911111c0 63.715556-50.062222 111.502222-111.502222 111.502223z" fill="#46AAFF" p-id="27083"></path><path d="M719.075556 996.693333H170.666667c-61.44 0-111.502222-50.062222-111.502223-111.502222V227.555556C59.164444 166.115556 109.226667 116.053333 170.666667 116.053333h548.408889c61.44 0 111.502222 50.062222 111.502222 111.502223v659.911111c0 59.164444-50.062222 109.226667-111.502222 109.226666zM170.666667 161.564444c-36.408889 0-65.991111 29.582222-65.991111 65.991112v659.911111c0 36.408889 29.582222 65.991111 65.991111 65.991111h548.408889c36.408889 0 65.991111-29.582222 65.991111-65.991111V227.555556c0-36.408889-29.582222-65.991111-65.991111-65.991112H170.666667z" fill="#46AAFF" p-id="27084"></path><path d="M225.28 368.64h273.066667v22.755556h-273.066667zM225.28 523.377778H398.222222v22.755555H225.28zM225.28 721.351111h311.751111v22.755556H225.28zM657.863111 730.066489l37.888-25.213156 170.211556 255.749689-37.910756 25.213156z" fill="#46AAFF" p-id="27085"></path><path d="M577.991111 748.657778c-109.226667 0-197.973333-88.746667-197.973333-197.973334 0-109.226667 88.746667-197.973333 197.973333-197.973333s197.973333 88.746667 197.973333 197.973333c0 106.951111-88.746667 197.973333-197.973333 197.973334z m0-375.466667c-95.573333 0-175.217778 79.644444-175.217778 175.217778s79.644444 175.217778 175.217778 175.217778 175.217778-79.644444 175.217778-175.217778-79.644444-175.217778-175.217778-175.217778z" fill="#46AAFF" p-id="27086"></path><path d="M484.920889 486.468267l16.088178-16.088178 170.552889 170.552889-16.088178 16.088178z" fill="#46AAFF" p-id="27087"></path><path d="M484.920889 640.910222l170.552889-170.552889 16.088178 16.088178-170.552889 170.552889z" fill="#46AAFF" p-id="27088"></path></svg>