<svg t="1607668825743" class="icon" viewBox="0 0 1024 1024" version="1.1" p-id="3170" width="200" height="200"><path d="M591.269469 0c32.133818 0 58.280727 26.135273 58.280727 58.251636 0 43.409455 23.837091 84.096 62.219637 106.170182l1.163636 0.669091a125.765818 125.765818 0 0 0 62.987636 17.070546c21.248 0 42.141091-5.579636 60.427637-16.128l1.309091-0.756364a56.762182 56.762182 0 0 1 28.322909-7.610182 56.994909 56.994909 0 0 1 49.216 28.375273l80.814545 139.915636c15.650909 27.095273 6.324364 61.847273-20.770909 77.492364a124.730182 124.730182 0 0 0-62.242909 107.857454v1.384728a124.730182 124.730182 0 0 0 62.237091 107.857454c27.101091 15.639273 36.421818 50.397091 20.782545 77.492364l-80.820363 139.915636a56.994909 56.994909 0 0 1-49.216 28.375273 56.814545 56.814545 0 0 1-28.322909-7.604364l-1.396364-0.814545a120.925091 120.925091 0 0 0-60.352-16.110546 125.597091 125.597091 0 0 0-62.888727 17.047273l-1.355637 0.785455c-38.312727 22.021818-62.114909 62.650182-62.114909 106.013091v1.62909c0 31.272727-25.460364 56.721455-56.756363 56.721455H431.141469c-31.296 0-56.750545-25.448727-56.750545-56.727273v-1.623272c0-43.362909-23.808-83.991273-62.138182-106.024728l-1.338182-0.768a125.544727 125.544727 0 0 0-62.882909-17.047272c-21.218909 0-42.088727 5.568-60.357818 16.104727l-1.402182 0.814545a56.779636 56.779636 0 0 1-28.317091 7.604364 56.977455 56.977455 0 0 1-49.210182-28.375273L27.918196 698.042182c-15.639273-27.095273-6.318545-61.847273 20.782546-77.492364l25.739636-14.848c24.698182-14.254545 38.958545-41.128727 37.213091-70.120727A399.982545 399.982545 0 0 1 110.943651 512c0-7.755636 0.238545-15.685818 0.709818-23.581091 1.745455-28.992-12.509091-55.866182-37.213091-70.120727l-24.343273-14.039273c-27.869091-16.087273-37.457455-51.84-21.364363-79.697454l79.208727-137.12291a58.589091 58.589091 0 0 1 50.600727-29.178181c10.187636 0 20.258909 2.705455 29.131637 7.825454a120.808727 120.808727 0 0 0 60.352 16.104727 125.556364 125.556364 0 0 0 62.888727-17.041454l1.344-0.773818c38.324364-22.033455 62.138182-62.661818 62.138182-106.024728C374.390924 26.135273 400.526196 0 432.665833 0H591.269469zM503.240378 325.818182c-102.824727 0-186.181818 83.357091-186.181818 186.181818 0 102.824727 83.357091 186.181818 186.181818 186.181818 102.824727 0 186.181818-83.357091 186.181818-186.181818 0-102.824727-83.357091-186.181818-186.181818-186.181818z" fill="#000000" p-id="3171"></path><path d="M776.694924 221.090909c25.570909 0 48.581818 13.405091 58.181818 34.909091 9.122909 11.234909 5.253818 25.454545-5.818182 29.090909-10.88 8.919273-24.541091 5.492364-29.090909-5.818182-6.824727-7.208727-14.429091-11.636364-23.272727-11.636363-2.635636 0-6.050909 0.814545-11.636364 0v5.818181c-11.042909 4.346182-25.285818 0.581818-29.090909-11.636363-8.913455-9.646545-5.585455-23.330909 5.818182-29.090909 11.537455-8.378182 23.528727-11.636364 34.909091-11.636364zM863.967651 320c10.688-9.111273 24.977455-5.538909 29.090909 5.818182l17.454545 29.090909c9.111273 10.682182 5.538909 24.977455-5.818181 29.090909-10.688 9.111273-24.977455 5.538909-29.090909-5.818182l-17.454546-29.090909c-9.111273-10.682182-5.538909-24.977455 5.818182-29.090909z" fill="#FFFFFF" p-id="3172"></path></svg>