<svg t="1618561023153" class="icon" viewBox="0 0 1024 1024" version="1.1" xmlns="http://www.w3.org/2000/svg" p-id="58667" width="200" height="200"><path d="M469.333333 554.666667m0 63.573333l0 299.52q0 63.573333-63.573333 63.573333l-299.52 0q-63.573333 0-63.573333-63.573333l0-299.52q0-63.573333 63.573333-63.573333l299.52 0q63.573333 0 63.573333 63.573333Z" fill="#FF9B00" opacity=".5" p-id="58668"></path><path d="M486.613333 360.106667m0-25.386667l0 0.213333q0-25.386667 25.386667-25.386666l202.453333 0q25.386667 0 25.386667 25.386666l0-0.213333q0 25.386667-25.386667 25.386667l-202.453333 0q-25.386667 0-25.386667-25.386667Z" fill="#F39800" p-id="58669"></path><path d="M320 469.333333m0-32l0-64q0-32 32-32l64 0q32 0 32 32l0 64q0 32-32 32l-64 0q-32 0-32-32Z" fill="#F39800" p-id="58670"></path><path d="M486.826667 469.76m0-25.386667l0 0q0-25.386667 25.386666-25.386666l202.453334 0q25.386667 0 25.386666 25.386666l0 0q0 25.386667-25.386666 25.386667l-202.453334 0q-25.386667 0-25.386666-25.386667Z" fill="#F39800" p-id="58671"></path><path d="M283.946667 579.626667m0-25.386667l0 0q0-25.386667 25.386666-25.386667l405.333334 0q25.386667 0 25.386666 25.386667l0 0q0 25.386667-25.386666 25.386667l-405.333334 0q-25.386667 0-25.386666-25.386667Z" fill="#F39800" p-id="58672"></path><path d="M284.16 689.493333m0-25.386666l0 0q0-25.386667 25.386667-25.386667l405.333333 0q25.386667 0 25.386667 25.386667l0 0q0 25.386667-25.386667 25.386666l-405.333333 0q-25.386667 0-25.386667-25.386666Z" fill="#F39800" p-id="58673"></path><path d="M778.666667 917.333333h-533.333334A138.666667 138.666667 0 0 1 106.666667 778.666667v-533.333334A138.666667 138.666667 0 0 1 245.333333 106.666667h533.333334a138.666667 138.666667 0 0 1 138.666666 138.666666v533.333334a138.666667 138.666667 0 0 1-138.666666 138.666666z m-533.333334-759.893333a87.68 87.68 0 0 0-87.893333 87.893333v533.333334a87.893333 87.893333 0 0 0 87.893333 88.106666h533.333334a88.106667 88.106667 0 0 0 88.106666-88.106666v-533.333334a87.893333 87.893333 0 0 0-88.106666-87.893333z" fill="#FF9B00" p-id="58674"></path></svg>