<svg t="1618881844051" class="icon" viewBox="0 0 1024 1024" version="1.1" xmlns="http://www.w3.org/2000/svg" p-id="4033" width="200" height="200"><path d="M948.8 929.1H75.2c-11 0-20-9-20-20v-794.2c0-11 9-20 20-20s20 9 20 20v774.2h853.5c11 0 20 9 20 20s-8.9 20-19.9 20z" fill="#202D46" p-id="4034"></path><path d="M305.2 665.8h236.9V793H305.2z" fill="#227CE5" p-id="4035"></path><path d="M542.1 665.8h-70v87.1H305.2v40h236.9z" fill="#2571CB" p-id="4036"></path><path d="M255.2 792.9V665.8c0-11 9-20 20-20h236.9c11 0 20 9 20 20V793c0 11-9 20-20 20H275.2c-11-0.1-20-9-20-20.1z m40-107.1V773h196.9v-87.2H295.2z" fill="#202D47" p-id="4037"></path><path d="M75.2 665.8h236.9V793H75.2z" fill="#227CE5" p-id="4038"></path><path d="M512.1 665.8h394V793h-394z" fill="#2DCD54" p-id="4039"></path><path d="M906.1 665.8h-40v87.1h-354v40h394z" fill="#31B952" p-id="4040"></path><path d="M492.1 792.9V665.8c0-11 9-20 20-20h394c11 0 20 9 20 20V793c0 11-9 20-20 20h-394c-11-0.1-20-9-20-20.1z m40-107.1V773h354v-87.2h-354z" fill="#202D47" p-id="4041"></path><path d="M76.2 422.8h236.9V550H76.2z" fill="#227CE5" p-id="4042"></path><path d="M313.1 422.8h-70v87.1H76.2v40h236.9z" fill="#2571CB" p-id="4043"></path><path d="M56.2 549.9V422.8c0-11 9-20 20-20h236.9c11 0 20 9 20 20V550c0 11-9 20-20 20H76.2c-11-0.1-20-9-20-20.1z m40-107.1V530h196.9v-87.2H96.2z" fill="#202D47" p-id="4044"></path><path d="M283.1 422.8h394V550h-394z" fill="#2DCD54" p-id="4045"></path><path d="M677.1 422.8h-40v87.1h-354v40h394z" fill="#31B952" p-id="4046"></path><path d="M263.1 549.9V422.8c0-11 9-20 20-20h394c11 0 20 9 20 20V550c0 11-9 20-20 20h-394c-11-0.1-20-9-20-20.1z m40-107.1V530h354v-87.2h-354z" fill="#202D47" p-id="4047"></path><path d="M242.1 752.9H75.2v40h236.9v-40z" fill="#2571CB" p-id="4048"></path><path d="M76.2 191.8h236.9V319H76.2z" fill="#227CE5" p-id="4049"></path><path d="M313.1 191.8h-70v87.1H76.2v40h236.9z" fill="#2571CB" p-id="4050"></path><path d="M56.2 318.9V191.8c0-11 9-20 20-20h236.9c11 0 20 9 20 20V318.9c0 11-9 20-20 20H76.2c-11 0-20-8.9-20-20z m40-107.1V299h196.9v-87.2H96.2z" fill="#202D47" p-id="4051"></path><path d="M193.1 191.8h394V319h-394z" fill="#2DCD54" p-id="4052"></path><path d="M587.1 191.8h-40v87.1h-354v40h394z" fill="#31B952" p-id="4053"></path><path d="M173.1 318.9V191.8c0-11 9-20 20-20h394c11 0 20 9 20 20V318.9c0 11-9 20-20 20h-394c-11 0-20-8.9-20-20z m40-107.1V299h354v-87.2h-354z" fill="#202D47" p-id="4054"></path><path d="M292.1 772.9H95.2v-87.2h236.9v-20c0-11-9-20-20-20H75.2c-11 0-20 9-20 20v127.2c0 11 9 20 20 20h236.9c11 0 20-9 20-20v-20h-40z" fill="#202D47" p-id="4055"></path></svg>