<?xml version="1.0" standalone="no"?><!DOCTYPE svg PUBLIC "-//W3C//DTD SVG 1.1//EN" "http://www.w3.org/Graphics/SVG/1.1/DTD/svg11.dtd"><svg t="1636512700635" class="icon" viewBox="0 0 1024 1024" version="1.1" xmlns="http://www.w3.org/2000/svg" p-id="3342" xmlns:xlink="http://www.w3.org/1999/xlink" width="200" height="200"><defs><style type="text/css"></style></defs><path d="M620.9 67.2H236.5c-30.3 0-54.9 25-54.9 55.9v782.7c0 30.9 24.6 55.9 54.9 55.9h549c30.3 0 54.9-25 54.9-55.9v-615L620.9 67.2z" fill="#35AEFF" p-id="3343"></path><path d="M802 925.9H220.1V109.7h379.6v218.9H802z" fill="#FFFFFF" p-id="3344"></path><path d="M802 922.6H220.1V106.4h379.6v218.8H802z" fill="#48C7FF" p-id="3345"></path><path d="M348.9 650.4c35.1 0 52.6 14.9 52.6 44.8 0 30.1-17.8 45.2-53.1 45.2h-38.2v57.4h-22.5V650.4h61.2z m-38.6 70.8H347c11.1 0 19.2-2.1 24.4-6.2 5-4.1 7.6-10.7 7.6-19.8 0-9.1-2.7-15.7-7.8-19.4-5.2-4.1-13.2-6.2-24.2-6.2h-36.7v51.6zM514.3 658.5c10.3 7.6 16.1 19.4 17.5 35.5h-22.3c-2.1-9.5-5.8-16.5-11.6-20.6-5.8-4.3-14-6.4-25.2-6.4-9.7 0-17.1 1.4-22.3 4.3-6.4 3.3-9.5 8.7-9.5 16.1 0 6.6 3.5 11.8 10.9 15.7 3.3 1.9 11.8 5 25.6 9.1 19.8 6.2 32.8 10.9 38.6 14.5 12.6 7.6 19 18.2 19 31.8 0 13.2-5.2 23.5-15.5 31.2-10.3 7.4-24.8 11.1-43.3 11.1-18 0-32-3.7-42.1-10.7-12.2-8.7-18.8-22.3-20-40.9h22.3c1.7 11.6 5.8 20 12.4 25 6 4.5 15.1 6.8 27.5 6.8 11.1 0 20-2.1 26.6-5.8 6.6-3.7 9.9-8.9 9.9-15.5 0-8.3-4.7-14.7-14-19.4-3.3-1.7-13-5-29.3-9.9-18.2-5.8-29.3-9.7-33.9-12.2-11.4-6.8-16.9-16.7-16.9-29.5 0-13 5.4-23.1 16.3-30.6 10.3-7 23.3-10.5 39-10.5 17.1-0.1 30.6 3.4 40.3 10.9zM609.6 650.4c23.7 0 41.7 6.6 54.1 20 11.6 12.4 17.3 30.3 17.3 53.7 0 23.1-6 41.1-17.8 53.9-12.4 13.2-30.3 19.8-54.1 19.8H556V650.4h53.6z m-31.1 128.2h26.6c18.6 0 32.4-4.5 41.1-13.4 8.5-8.9 12.8-22.5 12.8-41.1 0-19-4.3-32.6-12.6-41.3-8.7-8.9-22.3-13.2-40.9-13.2h-27v109z" fill="#FFFFFF" p-id="3346"></path></svg>