<svg t="1618560656601" class="icon" viewBox="0 0 1024 1024" version="1.1" xmlns="http://www.w3.org/2000/svg" p-id="51761" width="200" height="200"><path d="M912.426367 304.82859c0-9.93528-5.661953-20.465101-15.136745-25.819039L537.82876 71.477938c-9.268084-5.381567-20.798698-5.302773-30.117948 0.051165L148.197762 279.010575c-9.268084 5.276167-14.930037 15.882736-15.033391 25.819039l-3.9121 0 0 415.47562c0 10.81123 6.383384 20.593014 15.70161 26.050306l359.824135 207.480448 0.768503-0.925069c0.671289 0.411369 1.441838 0.823761 2.114151 1.338485 4.631484 2.677992 9.934257 4.016477 15.134699 4.016477 5.14723 0 10.400884-1.338485 15.032368-4.016477L897.08496 746.562247c9.366322-5.353938 14.518668-15.136745 14.518668-25.946952L911.603629 304.82859 912.426367 304.82859zM493.863433 877.228215 190.054055 703.005218 190.054055 355.849614 493.863433 530.147312 493.863433 877.228215zM522.796392 478.047724 223.468073 305.264519l299.328319-172.857906 299.428603 172.857906L522.796392 478.047724z" p-id="51762"></path><path d="M334.673827 749.651608l-0.36225-72.801073 12.511965 7.106862c15.083533 8.647961 26.049283 11.943007 36.192294 12.664438 10.864442 0.719384 19.101033-2.471284 25.845645-6.692423 10.862395-8.238638 17.660218-26.567076 17.556864-48.601928-0.103354-28.007891-9.885138-54.882981-25.63996-77.406974-13.745049-19.35686-29.963429-33.567513-53.851489-47.133483l-80.109526-45.769416 1.1328 240.429885L334.673827 749.651608zM339.769892 572.341297c0.721431 0.5137 1.236154 0.719384 1.700735 1.235131l2.366907 1.74883c2.058892 1.235131 4.839215 3.810792 8.340969 7.826246 3.295046 3.500731 6.074346 11.32493 6.125511 20.695345 0 6.179746-0.5137 10.1952-1.182942 12.769838-0.772596 2.472308-2.214435 4.427846-3.913123 5.250584-2.058892 1.546216-5.251607 1.647523-7.311523 0.926092-3.190669-0.926092-6.951319-2.880607-11.943007-5.456269l-0.206708-48.39522L339.769892 572.341297z" p-id="51763"></path></svg>