<svg t="1618824940795" class="icon" viewBox="0 0 1024 1024" version="1.1" xmlns="http://www.w3.org/2000/svg" p-id="11723" width="200" height="200"><path d="M0 0m116.5312 0l790.9376 0q116.5312 0 116.5312 116.5312l0 790.9376q0 116.5312-116.5312 116.5312l-790.9376 0q-116.5312 0-116.5312-116.5312l0-790.9376q0-116.5312 116.5312-116.5312Z" fill="#F9E8D2" p-id="11724"></path><path d="M866.5088 245.76c0-29.0816 0-57.5488-1.4336-83.7632a417.3824 417.3824 0 0 1-88.4736 14.336c-115.3024 6.9632-194.1504-29.9008-266.24-61.44C430.08 161.9968 280.576 196.608 158.3104 161.1776v292.4544c0 32.768-2.6624 65.7408 0 97.4848 9.0112 100.1472 73.3184 173.8752 137.4208 228.7616a869.1712 869.1712 0 0 0 217.7024 129.2288A1024 1024 0 0 0 643.4816 839.68a1037.312 1037.312 0 0 0 103.424-78.6432c52.0192-47.3088 104.6528-107.7248 118.784-186.7776a147.0464 147.0464 0 0 0 1.2288-18.8416zM389.12 689.5616A181.0432 181.0432 0 0 0 357.9904 655.36c146.432-36.0448 156.0576-88.8832 156.0576-124.5184v-40.96h46.6944v40.96c0 48.3328-18.2272 114.4832-171.6224 158.72z m290.6112-1.8432a963.584 963.584 0 0 0-137.0112-65.3312L573.44 595.968a1257.8816 1257.8816 0 0 1 137.4208 61.44zM711.4752 389.12h-161.3824c-1.4336 15.36-3.2768 29.2864-5.3248 40.96h133.5296v167.7312h-47.104V471.04h-189.6448v124.5184h-44.6464V430.08h104.2432q2.2528-18.6368 4.3008-40.96h-139.8784v26.624c0 78.2336-7.168 193.1264-54.272 268.4928a135.3728 135.3728 0 0 0-38.912-22.528c45.056-71.0656 49.5616-173.4656 49.5616-245.76v-133.7344a2123.776 2123.776 0 0 0 326.2464-33.5872l35.6352 36.0448c-36.4544 7.7824-79.2576 14.336-124.928 20.48-1.4336 14.336-2.8672 29.696-4.3008 45.6704h157.0816z" fill="#03EABE" p-id="11725"></path><path d="M365.568 350.0032h143.36c0-14.336 1.8432-27.8528 2.8672-40.96-48.5376 4.3008-98.5088 7.168-145.6128 9.216z" fill="#03EABE" p-id="11726"></path></svg>