<svg t="1618559904085" class="icon" viewBox="0 0 1024 1024" version="1.1" xmlns="http://www.w3.org/2000/svg" p-id="29673" width="200" height="200"><path d="M622.848 68.608H179.456c-30.592 0-55.424 24.832-55.424 55.424v776.064c0 30.592 24.832 55.424 55.424 55.424h665.088c30.592 0 55.424-24.832 55.424-55.424v-554.24L622.848 68.608z" fill="#4DB222" p-id="29674"></path><path d="M622.848 68.608v221.696c0 30.592 24.832 55.424 55.424 55.424h221.696L622.848 68.608z" fill="#73C94B" p-id="29675"></path><path d="M678.272 345.728l221.696 221.696V345.728H678.272z" fill="#4BA521" p-id="29676"></path><path d="M484.224 484.352h249.472V595.2H484.224v-110.848z m-193.92 0h166.272V595.2H290.304v-110.848z m193.92 138.496h249.472v83.2H484.224v-83.2z m-193.92 0h166.272v83.2H290.304v-83.2z m193.92 110.848h249.472v83.2H484.224v-83.2z m-193.92 0h166.272v83.2H290.304v-83.2z" fill="#FFFFFF" p-id="29677"></path></svg>