<svg t="1618985260033" class="icon" viewBox="0 0 1024 1024" version="1.1" xmlns="http://www.w3.org/2000/svg" p-id="3655" width="200" height="200"><path d="M872.525 799.52L719.44 646.434c91.336-126.07 79.757-302.314-33.449-415.525C625.527 170.449 544.481 137 458.29 137c-86.192 0-167.238 33.449-227.702 93.91-126.071 126.074-126.071 329.334 0 455.403 60.463 60.464 141.51 93.913 227.702 93.913 68.182 0 133.792-21.87 187.822-60.464l154.374 151.802C810.777 881.854 823.641 887 836.504 887c12.867 0 25.73-5.146 36.021-15.436 20.586-19.298 20.586-52.747 0-72.044zM303.916 612.985c-84.908-84.903-84.908-223.84 0-310.032 41.167-41.167 96.482-64.321 154.374-64.321 57.891 0 113.206 23.154 154.373 64.321 84.908 84.904 84.908 223.841 0 310.032-41.167 41.168-96.482 64.326-154.373 64.326-57.892 0-113.207-23.158-154.374-64.326z m0 0" fill="#35D9E7" p-id="3656"></path></svg>