<svg t="1618812667175" class="icon" viewBox="0 0 1024 1024" version="1.1" xmlns="http://www.w3.org/2000/svg" p-id="1831" width="200" height="200"><path d="M150.186667 716.8h728.746666l92.16 131.413333c35.84 49.493333 13.653333 90.453333-47.786666 90.453334H97.28c-61.44 0-81.92-39.253333-44.373333-88.746667L150.186667 716.8z" fill="#DAE9FF" p-id="1832"></path><path d="M226.986667 119.466667h467.626666c59.733333 0 107.52 47.786667 107.52 107.52v518.826666c0 59.733333-47.786667 107.52-107.52 107.52H226.986667C167.253333 853.333333 119.466667 805.546667 119.466667 745.813333V226.986667C119.466667 167.253333 167.253333 119.466667 226.986667 119.466667z" fill="#DAE9FF" p-id="1833"></path><path d="M192.853333 119.466667h467.626667c59.733333 0 107.52 47.786667 107.52 107.52v518.826666c0 59.733333-47.786667 107.52-107.52 107.52H192.853333C133.12 853.333333 85.333333 805.546667 85.333333 745.813333V226.986667C85.333333 167.253333 133.12 119.466667 192.853333 119.466667z" fill="#3988FF" p-id="1834"></path><path d="M204.8 494.933333h68.266667c10.24 0 17.066667 6.826667 17.066666 17.066667v136.533333c0 10.24-6.826667 17.066667-17.066666 17.066667h-68.266667c-10.24 0-17.066667-6.826667-17.066667-17.066667v-136.533333c0-10.24 6.826667-17.066667 17.066667-17.066667zM392.533333 409.6h68.266667c10.24 0 17.066667 6.826667 17.066667 17.066667v221.866666c0 10.24-6.826667 17.066667-17.066667 17.066667h-68.266667c-10.24 0-17.066667-6.826667-17.066666-17.066667V426.666667c0-10.24 6.826667-17.066667 17.066666-17.066667z" fill="#DAE9FF" p-id="1835"></path><path d="M136.533333 648.533333c0-10.24 8.533333-17.066667 17.066667-17.066666h512c8.533333 0 17.066667 6.826667 17.066667 17.066666s-8.533333 17.066667-17.066667 17.066667H153.6c-10.24 0-17.066667-6.826667-17.066667-17.066667z" fill="#DAE9FF" p-id="1836"></path><path d="M580.266667 290.133333h68.266666c10.24 0 17.066667 6.826667 17.066667 17.066667v341.333333c0 10.24-6.826667 17.066667-17.066667 17.066667h-68.266666c-10.24 0-17.066667-6.826667-17.066667-17.066667V307.2c0-10.24 6.826667-17.066667 17.066667-17.066667z" fill="#DAE9FF" p-id="1837"></path><path d="M187.733333 494.933333h68.266667c10.24 0 17.066667 6.826667 17.066667 17.066667v136.533333c0 10.24-6.826667 17.066667-17.066667 17.066667h-68.266667c-10.24 0-17.066667-6.826667-17.066666-17.066667v-136.533333c0-10.24 6.826667-17.066667 17.066666-17.066667zM375.466667 409.6h68.266666c10.24 0 17.066667 6.826667 17.066667 17.066667v221.866666c0 10.24-6.826667 17.066667-17.066667 17.066667h-68.266666c-10.24 0-17.066667-6.826667-17.066667-17.066667V426.666667c0-10.24 6.826667-17.066667 17.066667-17.066667zM563.2 290.133333h68.266667c10.24 0 17.066667 6.826667 17.066666 17.066667v341.333333c0 10.24-6.826667 17.066667-17.066666 17.066667h-68.266667c-10.24 0-17.066667-6.826667-17.066667-17.066667V307.2c0-10.24 6.826667-17.066667 17.066667-17.066667z" fill="#FFFFFF" p-id="1838"></path><path d="M153.6 648.533333h512c10.24 0 17.066667 6.826667 17.066667 17.066667s-6.826667 17.066667-17.066667 17.066667H153.6c-10.24 0-17.066667-6.826667-17.066667-17.066667s6.826667-17.066667 17.066667-17.066667z" fill="#FFFFFF" p-id="1839"></path><path d="M331.093333 204.8c-32.426667 0-58.026667-18.773333-58.026666-42.666667S298.666667 119.466667 331.093333 119.466667h315.733334c3.413333 35.84-15.36 59.733333-29.013334 69.973333s-32.426667 15.36-47.786666 15.36h-238.933334z" fill="#093475" p-id="1840"></path><path d="M541.013333 187.733333H312.32C281.6 187.733333 256 162.133333 256 129.706667v-3.413334C256 93.866667 281.6 68.266667 312.32 68.266667h228.693333C571.733333 68.266667 597.333333 93.866667 597.333333 126.293333v1.706667c0 15.36-5.12 30.72-17.066666 40.96-10.24 11.946667-23.893333 18.773333-39.253334 18.773333z" fill="#DAE9FF" p-id="1841"></path><path d="M477.866667 626.346667c0-25.6 20.48-46.08 46.08-46.08h341.333333c25.6 0 49.493333 20.48 52.906667 46.08 0 0 3.413333 22.186667 3.413333 35.84v163.84c0 25.6-20.48 46.08-46.08 46.08H523.946667c-25.6 0-46.08-20.48-46.08-46.08V626.346667z" fill="#FFD3D7" p-id="1842"></path><path d="M506.88 580.266667h334.506667c25.6 0 46.08 20.48 46.08 46.08v197.973333c0 25.6-20.48 46.08-46.08 46.08H506.88c-25.6 0-46.08-20.48-46.08-46.08V626.346667c0-25.6 20.48-46.08 46.08-46.08z" fill="#FB560A" p-id="1843"></path><path d="M546.133333 844.8c-6.826667 0-11.946667-1.706667-17.066666-6.826667-10.24-10.24-10.24-25.6 0-35.84l87.04-90.453333c8.533333-8.533333 22.186667-10.24 32.426666-3.413333l46.08 32.426666L785.066667 648.533333c10.24-10.24 25.6-10.24 35.84 0s10.24 25.6 0 35.84l-105.813334 107.52c-8.533333 8.533333-22.186667 10.24-32.426666 3.413334l-46.08-32.426667-71.68 73.386667c-5.12 5.12-11.946667 8.533333-18.773334 8.533333z" fill="#FFFFFF" p-id="1844"></path><path d="M827.733333 689.493333c-1.706667 8.533333-8.533333 11.946667-15.36 5.12l-40.96-39.253333c-6.826667-6.826667-5.12-13.653333 3.413334-15.36L819.2 631.466667c8.533333-1.706667 15.36 3.413333 13.653333 13.653333l-5.12 44.373333z" fill="#FFFFFF" p-id="1845"></path></svg>