<svg t="1618560575836" class="icon" viewBox="0 0 1024 1024" version="1.1" xmlns="http://www.w3.org/2000/svg" p-id="51396" width="200" height="200"><path d="M750.933333 910.677333a14.677333 14.677333 0 0 0 7.509334-1.365333 112.981333 112.981333 0 0 1-21.504 1.365333z m-37.034666-251.221333a34.133333 34.133333 0 1 0 34.133333 34.133333 34.133333 34.133333 0 0 0-34.133333-34.133333zM736.597333 563.2a153.6 153.6 0 1 0 153.6 152.746667 153.6 153.6 0 0 0-153.6-152.746667z m74.581334 243.541333a21.845333 21.845333 0 0 1-12.629334-4.949333l-51.2-49.322667a63.658667 63.658667 0 0 1-34.133333 10.24 68.266667 68.266667 0 1 1 68.266667-68.266666 63.488 63.488 0 0 1-10.069334 34.133333l50.346667 49.152a19.456 19.456 0 0 1 5.12 12.629333 17.066667 17.066667 0 0 1-17.066667 17.066667zM273.066667 253.098667a45.568 45.568 0 0 0 40.277333-40.448V153.6A38.912 38.912 0 0 0 273.066667 112.981333 42.325333 42.325333 0 0 0 231.765333 153.6v59.392A48.298667 48.298667 0 0 0 273.066667 253.098667z m179.2 0a36.352 36.352 0 0 0 40.448-40.448V153.6a38.229333 38.229333 0 0 0-40.448-40.277333A38.912 38.912 0 0 0 410.965333 153.6v59.392a41.642667 41.642667 0 0 0 40.448 40.106667z m179.2 0a39.765333 39.765333 0 0 0 40.448-40.448V153.6A39.594667 39.594667 0 0 0 631.466667 112.981333 42.154667 42.154667 0 0 0 590.336 153.6v59.392A48.128 48.128 0 0 0 631.466667 253.098667z m119.466666 656.213333a17.066667 17.066667 0 0 0 7.509334-1.194667 128.853333 128.853333 0 0 1-21.504 1.194667zM543.573333 716.8a193.877333 193.877333 0 0 1 193.024-192.341333 208.384 208.384 0 0 1 55.637334 7.509333l-1.365334-299.178667A45.397333 45.397333 0 0 0 750.933333 192.512h-40.789333v40.277333c0 37.888-41.642667 59.392-79.530667 59.392s-79.530667-22.698667-79.530666-59.392v-40.277333h-20.138667v40.277333c0 37.888-41.642667 59.392-79.530667 59.392-60.586667 0-79.530667-41.642667-79.530666-79.530666v-20.138667h-20.138667v20.138667a80.554667 80.554667 0 0 1-82.090667 79.530666 77.312 77.312 0 0 1-78.336-79.530666v-20.138667h-17.066666a45.568 45.568 0 0 0-40.448 40.277333V865.28c0 18.944 21.504 45.397333 40.448 45.397333h563.2A194.048 194.048 0 0 1 543.573333 716.8z m-290.133333-305.322667s415.232 1.194667 416.426667 0a38.4 38.4 0 0 1 41.813333 40.277334 39.936 39.936 0 0 1-40.448 40.448H253.269333a37.546667 37.546667 0 0 1-40.448-40.448 39.765333 39.765333 0 0 1 40.448-39.594667z m179.2 397.482667H253.269333a38.570667 38.570667 0 0 1-40.448-40.277333 44.714667 44.714667 0 0 1 40.448-41.813334l179.2 2.56a38.741333 38.741333 0 0 1 40.448 40.448 44.202667 44.202667 0 0 1-40.448 39.765334z m39.082667-159.061333h-218.453334a38.912 38.912 0 0 1-40.448-40.277334 37.546667 37.546667 0 0 1 40.448-40.448h219.648a40.448 40.448 0 0 1 40.277334 40.448 46.762667 46.762667 0 0 1-41.642667 40.96z" fill="#2499F6" p-id="51397"></path></svg>