<svg t="1618984761966" class="icon" viewBox="0 0 1024 1024" version="1.1" xmlns="http://www.w3.org/2000/svg" p-id="1890" width="200" height="200"><path d="M852 255.4v480H172v-480h680m27.7-60H144.3c-17.8 0-32.3 14.4-32.3 32.3v535.5c0 17.8 14.4 32.3 32.3 32.3h735.5c17.8 0 32.3-14.4 32.3-32.3V227.6c-0.1-17.8-14.5-32.2-32.4-32.2z" fill="#3FA9F5" p-id="1891"></path><path d="M512.9 588.1l-371-335.4 36.5-37.5 334.5 302.4 334.5-302.4 36.4 37.5z" fill="#3FA9F5" p-id="1892"></path><path d="M865.6 758.5L512.9 439.7 160.2 758.5" fill="#3FA9F5" p-id="1893"></path><path d="M847.4 777.3L512.9 474.9 178.4 777.3l-36.5-37.5 371-335.4 370.9 335.4z" fill="#3FA9F5" p-id="1894"></path></svg>