<?xml version="1.0" standalone="no"?><!DOCTYPE svg PUBLIC "-//W3C//DTD SVG 1.1//EN" "http://www.w3.org/Graphics/SVG/1.1/DTD/svg11.dtd">
<svg t="1631783131129" class="icon" viewBox="0 0 1024 1024" version="1.1" xmlns="http://www.w3.org/2000/svg" p-id="2326"
     width="200" height="200"><defs><style type="text/css"></style></defs><path d="M58.2 523.5c0 236.1 191.4 427.4 427.4 427.4 236.1 0 427.4-191.4 427.4-427.4 0-236.1-191.4-427.4-427.4-427.4-236 0-427.4 191.3-427.4 427.4z m0 0" fill="#3058B9" p-id="2327"></path><path d="M58.2 500.5c0 236.1 191.4 427.4 427.4 427.4 236.1 0 427.4-191.4 427.4-427.4 0-236.1-191.4-427.4-427.4-427.4-236 0-427.4 191.3-427.4 427.4z m0 0" fill="#3173E7" p-id="2328"></path><path d="M485.9 73.1c-8.1 0-16.1 0.2-24 0.7 224.9 12.5 403.4 198.8 403.4 426.8S686.8 914.9 461.9 927.4c7.9 0.4 15.9 0.7 24 0.7 236.1 0 427.4-191.4 427.4-427.4 0-236.3-191.4-427.6-427.4-427.6z" fill="#6F9DEE" p-id="2329"></path><path d="M885.8 500.5c0 220.9-179.1 400-400 400s-400-179.1-400-400 179-400 399.9-400c221 0 400.1 179.1 400.1 400z m0 0" fill="#E7F5FD" p-id="2330"></path><path d="M109 500.5c0-216.7 172.2-393.2 387.3-399.8-4.2-0.1-8.4-0.2-12.6-0.2-220.9 0-399.9 179.1-399.9 400s179.1 400 400 400c4.2 0 8.4-0.1 12.6-0.2C281.3 893.7 109 717.2 109 500.5z" fill="#B0CEF6" p-id="2331"></path><path d="M486.5 100.5c-4.2 0-8.3 0.1-12.4 0.2 215.3 6.6 387.7 183.1 387.7 399.8 0 216.8-172.4 393.3-387.6 399.9 4.1 0.1 8.3 0.2 12.4 0.2 220.9 0 400-179.1 400-400s-179-400.1-400.1-400.1z" fill="#FFFFFF" p-id="2332"></path><path d="M785.7 500.5c0 165.8-134.3 300.1-300.1 300.1S185.5 666.3 185.5 500.5s134.3-300.1 300.1-300.1 300.1 134.3 300.1 300.1z m0 0" fill="#5EADEF" p-id="2333"></path><path d="M212.8 500.5c0-161.1 126.8-292.5 286.1-299.8-4.6-0.2-9.3-0.3-14-0.3-165.8 0-300.1 134.3-300.1 300.1s134.3 300.1 300.1 300.1c4.7 0 9.4-0.1 14-0.3-159.3-7.3-286.1-138.7-286.1-299.8z" fill="#4C96EC" p-id="2334"></path><path d="M487.8 200.4c-4.7 0-9.4 0.1-14 0.3 159.3 7.3 286.1 138.7 286.1 299.8 0 161.1-126.8 292.5-286.1 299.8 4.6 0.2 9.3 0.3 14 0.3 165.8 0 300.1-134.3 300.1-300.1S653.6 200.4 487.8 200.4z" fill="#8FC6F4" p-id="2335"></path><path d="M285.1 500.5c0 71.7 38.2 137.9 100.3 173.7 62.1 35.8 138.5 35.8 200.6 0 62-35.8 100.3-102 100.3-173.7 0-110.8-89.8-200.6-200.6-200.6s-200.6 89.8-200.6 200.6z m0 0" fill="#E7F5FD" p-id="2336"></path><path d="M554.4 500.5c0 38-30.8 68.8-68.8 68.8s-68.8-30.8-68.8-68.8 30.8-68.8 68.8-68.8c38.1 0 68.8 30.9 68.8 68.8z m0 0" fill="#5EADEF" p-id="2337"></path><path d="M538.2 457.9c-0.3 0.1-0.5 0.3-0.7 0.5L480.6 504c-5.1 4.3 0.7 14.3 7 12.1l67.8-26.7 0.8-0.4 39.9-22.1-18.9-32.5-39 23.5z m0 0" fill="#F99403" p-id="2338"></path><path d="M576.3 431.7l1.5 2.6-0.4 0.3 18.8 32.5 0.4-0.3 1.4 2.4c3.4 5.9 10.1 8.4 15 5.5l75.9-43.8c4.7-3 5.8-10.1 2.4-15.9l-0.4-0.7 0.4-0.3-20.6-35.7-0.4 0.3-0.5-0.9c-3.4-5.9-10.1-8.4-15-5.5L578.9 416c-4.9 2.8-6 9.8-2.6 15.7z m0 0" fill="#FCCA4C" p-id="2339"></path><path d="M691.3 414l107-59.1-7.7-3.2c-5.4-2.3-9.8-6.5-12.8-11.6s-4.5-11.1-3.6-16.9l0.8-7.4-104.3 62.6 20.6 35.6z m0 0" fill="#F99403" p-id="2340"></path><path d="M764.4 321.1L762 341c-0.6 5.1 2.2 10 6.9 12l19.3 8.3 39.4 16.9c2.4 0.9 4.9 0.9 6.7-0.3L948 312.1c4.2-2.4 4.6-8.2 2-12.7-1.2-2-2.8-3.6-5.1-4.6l-44-18.9c-2.2-0.9-3.9-2.6-5.1-4.7-1.2-2-1.8-4.5-1.5-6.7L900 217c0.3-2.4-0.3-4.7-1.5-6.7-2.6-4.5-7.8-7-12-4.6l-113.6 65.8c-2 1.2-3.2 3.2-3.6 5.8l-4.9 43.8z m0 0" fill="#FCCA4C" p-id="2341"></path><path d="M789.3 336.4l9-79.6 25.6-14.8-5.9 80.7z" fill="#F99403" p-id="2342"></path><path d="M789.3 336.4l66.3 29.3 30.2-17.5-74.5-29.9zM853.4 302.2l64.8 27.3 47.6-27.5-57.4-22.9zM853.4 302.2l9.2-82.6 42.9-24.9-11.1 69.8z" fill="#F99403" p-id="2343"></path><path d="M894.4 264.5l-105.1 71.9 119.1-57.3-16.5-2z" fill="#FCCA4C" p-id="2344"></path><path d="M647.4 376.4l1.4 77.7-10.2 5.8-0.6-78.2zM621.1 391.5l1.4 77.7-10.1 5.8-0.6-78.2z" fill="#F99403" p-id="2345"></path></svg>
