<svg t="1618993330663" class="icon" viewBox="0 0 1179 1024" version="1.1" xmlns="http://www.w3.org/2000/svg" p-id="22483" width="200" height="200"><path d="M1179.256747 1024h-118.386065V837.055249c0-113.598006-92.420055-206.004907-206.004907-206.004907s-206.057523 92.420055-206.057523 206.004907v186.944751h-118.386065V837.055249c0-178.894498 145.522782-324.430434 324.41728-324.430434S1179.256747 658.173905 1179.256747 837.055249zM854.839467 492.249258c-135.709892 0-246.124629-110.414737-246.124629-246.124629S719.129575 0 854.839467 0 1100.964096 110.414737 1100.964096 246.124629s-110.427891 246.124629-246.124629 246.124629z m0-373.823731a127.699102 127.699102 0 1 0 127.699102 127.699102 127.843796 127.843796 0 0 0-127.699102-127.699102z" fill="#06E4D3" p-id="22484"></path><path d="M648.808252 1024h-118.386065V837.055249c0-113.598006-92.420055-206.004907-206.004907-206.004907s-205.991753 92.420055-205.991753 206.004907v186.944751h-118.386065V837.055249c0-178.894498 145.522782-324.430434 324.41728-324.430434s324.35151 145.54909 324.35151 324.430434zM324.41728 492.249258c-135.709892 0-246.124629-110.414737-246.124629-246.124629S188.707388 0 324.41728 0 570.541909 110.414737 570.541909 246.124629 460.127173 492.249258 324.41728 492.249258z m0-373.823731a127.699102 127.699102 0 1 0 127.699102 127.699102 127.843796 127.843796 0 0 0-127.699102-127.699102z" fill="#1AC3B6" p-id="22485"></path></svg>