<svg t="1618993020211" class="icon" viewBox="0 0 1024 1024" version="1.1" xmlns="http://www.w3.org/2000/svg" p-id="18128" width="200" height="200"><path d="M107.926 486.019v8.952c0 10.969 1.93 21.865 5.712 32.272l22.12 60.828h41.748V447.75h-27.832c-23.056 0-41.748 17.133-41.748 38.269z" fill="#5A4146" p-id="18129"></path><path d="M298.467 512.518l-23.548 75.551-111.329-89.293c-15.372 0-27.832-11.422-27.832-25.513 0-21.135 18.692-38.269 41.748-38.269h97.413c15.372 0 27.832 11.422 27.832 25.513v23.976a94.072 94.072 0 0 1-4.284 28.035z" fill="#694B4B" p-id="18130"></path><path d="M163.59 629.82h83.497v61.591H163.59z" fill="#D29B6E" p-id="18131"></path><path d="M314.219 682.76l-67.137-19.18-41.743 27.702-41.748-27.704-67.134 19.182c-17.923 5.12-30.279 21.502-30.279 40.142v101.743c0 7.685 6.231 13.916 13.916 13.916h250.491c7.685 0 13.916-6.231 13.916-13.916V722.902c-0.001-18.64-12.359-35.022-30.282-40.142z" fill="#2C4F98" p-id="18132"></path><path d="M219.255 838.56h-27.832l6.957-147.149h13.916z" fill="#3A5CAC" p-id="18133"></path><path d="M205.339 643.734c-39.324 0-75.991-35.642-81.497-83.497l-2-16.303a27.828 27.828 0 0 1 8.152-19.68l25.235-25.235c5.344-5.344 12.651-8.416 20.204-8.178 44.485 1.402 83.86 10.933 105.384 31.956 5.269 5.146 8.019 12.344 8.019 19.709l-2 17.731c-5.155 45.522-41.155 83.497-81.497 83.497z" fill="#F0C087" p-id="18134"></path><path d="M121.842 758.604a27.828 27.828 0 0 0-8.152-19.68l-39.898-39.898c-4.788 6.842-7.615 15.082-7.615 23.877v115.66h55.665v-79.959z" fill="#3A5CAC" p-id="18135"></path><path d="M212.296 719.243H198.38a6.958 6.958 0 0 1-6.957-6.959v-20.873h27.832v20.873a6.96 6.96 0 0 1-6.959 6.959z" fill="#FFCE54" p-id="18136"></path><path d="M205.339 691.282l-23.587 18.017c-4.063 3.104-9.937 1.86-12.392-2.625l-21.16-38.64 8.517-12.991c1.889-2.882 5.914-3.372 8.44-1.029l40.182 37.268zM205.339 691.282l23.587 18.017c4.063 3.104 9.937 1.86 12.392-2.625l21.159-38.641-8.517-12.991c-1.889-2.882-5.914-3.372-8.44-1.029l-40.181 37.269z" fill="#3A5CAC" p-id="18137"></path><path d="M720.243 486.019v8.952c0 10.969 1.93 21.865 5.712 32.272l22.12 60.828h41.748V447.75h-27.832c-23.056 0-41.748 17.133-41.748 38.269z" fill="#5A4146" p-id="18138"></path><path d="M910.785 512.518l-23.548 75.551-111.329-89.294c-15.372 0-27.832-11.422-27.832-25.513 0-21.135 18.692-38.269 41.748-38.269h97.413c15.372 0 27.832 11.422 27.832 25.513v23.976a94.138 94.138 0 0 1-4.284 28.036z" fill="#694B4B" p-id="18139"></path><path d="M775.907 629.82h83.497v61.591h-83.497z" fill="#D29B6E" p-id="18140"></path><path d="M926.536 682.76l-67.137-19.18-41.743 27.702-41.748-27.704-67.134 19.182c-17.923 5.12-30.279 21.502-30.279 40.142v101.743c0 7.685 6.231 13.916 13.916 13.916h250.491c7.685 0 13.916-6.231 13.916-13.916V722.902c-0.001-18.64-12.359-35.022-30.282-40.142z" fill="#2C4F98" p-id="18141"></path><path d="M831.572 838.56H803.74l6.957-147.149h13.916z" fill="#3A5CAC" p-id="18142"></path><path d="M817.656 643.734c-39.324 0-75.991-35.642-81.497-83.497l-2-16.303a27.828 27.828 0 0 1 8.152-19.68l25.235-25.235c5.344-5.344 12.651-8.416 20.204-8.178 44.485 1.402 83.86 10.933 105.384 31.956 5.269 5.146 8.019 12.344 8.019 19.709l-2 17.731c-5.155 45.522-41.155 83.497-81.497 83.497z" fill="#F0C087" p-id="18143"></path><path d="M734.159 764.368a41.751 41.751 0 0 0-12.228-29.521l-35.822-35.822c-4.788 6.842-7.615 15.082-7.615 23.877v101.743c0 7.685 6.231 13.916 13.916 13.916h41.748v-74.193z" fill="#3A5CAC" p-id="18144"></path><path d="M824.613 719.243h-13.916a6.958 6.958 0 0 1-6.957-6.959v-20.873h27.832v20.873a6.96 6.96 0 0 1-6.959 6.959z" fill="#FFCE54" p-id="18145"></path><path d="M817.656 691.282l-23.587 18.017c-4.063 3.104-9.937 1.86-12.392-2.625l-21.159-38.641 8.517-12.991c1.889-2.882 5.914-3.372 8.44-1.029l40.181 37.269z" fill="#3A5CAC" p-id="18146"></path><path d="M817.656 691.282l23.587 18.017c4.063 3.104 9.937 1.86 12.392-2.625l21.159-38.641-8.517-12.991c-1.889-2.882-5.914-3.372-8.44-1.029l-40.181 37.269z" fill="#3A5CAC" p-id="18147"></path><path d="M734.159 764.368a41.751 41.751 0 0 0-12.228-29.521l-35.822-35.822c-4.788 6.842-7.615 15.082-7.615 23.877v101.743c0 7.685 6.231 13.916 13.916 13.916h41.748v-74.193z" fill="#3A5CAC" p-id="18148"></path><path d="M511.494 671.566c91.045 0 172.783-37.228 199.545-50.795 5.457-2.765 8.473-8.68 7.462-14.714-4.318-25.805-25.944-103.096-36.099-240.646-8.26-111.891-70.995-180.91-170.91-180.91s-162.65 69.019-170.91 180.91c-10.154 137.552-31.779 214.841-36.099 240.646-1.01 6.034 2.005 11.947 7.462 14.714 26.766 13.567 108.504 50.795 199.549 50.795z" fill="#5A4146" p-id="18149"></path><path d="M711.039 620.773c5.457-2.767 8.473-8.68 7.462-14.714-4.318-25.805-25.944-103.096-36.099-240.646-8.26-111.891-70.997-180.91-170.91-180.91-7.002 0-13.87 0.339-20.591 1.009-77.778 7.747-89.456 117.579-14.7 140.401 1.19 0.363 1.849 0.534 1.849 0.534l27.82 344.981 0.101 0.094c93.246 1.556 177.765-36.91 205.068-50.749z" fill="#694B4B" p-id="18150"></path><path d="M274.919 824.644v-75.062a55.668 55.668 0 0 1 33.175-50.92l117.23-51.778a27.833 27.833 0 0 0 16.587-25.459v-61.189h139.161v61.189a27.831 27.831 0 0 0 16.587 25.459l117.23 51.778a55.664 55.664 0 0 1 33.175 50.92v75.062c0 7.685-6.231 13.916-13.916 13.916H288.836c-7.687 0-13.917-6.229-13.917-13.916z" fill="#D29B6E" p-id="18151"></path><path d="M714.892 698.662l-86.468-38.19c-17.981 47.132-63.483 80.675-116.932 80.675-53.449 0-98.951-33.541-116.932-80.675l-86.468 38.19a55.667 55.667 0 0 0-33.175 50.92v75.062c0 7.685 6.229 13.916 13.916 13.916h445.315c7.687 0 13.916-6.231 13.916-13.916v-75.062c0.003-22.045-13.006-42.012-33.172-50.92z" fill="#EF6570" p-id="18152"></path><path d="M636.621 393.255c-22.346-19.433-72.514-53.798-158.571-66.808-11.909-1.801-23.92 4.06-29.218 14.878-8.829 18.026-27.606 46.889-64.892 72.324-7.401 5.048-11.61 13.637-11.61 22.594v7.899c18.184 76.283 70.684 143.928 136.898 143.627 65.786 0.301 124.786-62.844 141.425-144.344v-18.93c0.001-11.96-5.008-23.392-14.032-31.24z" fill="#F0C087" p-id="18153"></path><path d="M295.733 706.296c-12.923 10.408-20.813 26.187-20.813 43.286v88.978h97.413v-44.136a27.832 27.832 0 0 0-8.152-19.681l-68.448-68.447zM727.253 706.296c12.923 10.408 20.813 26.187 20.813 43.286v88.978h-97.413v-44.136a27.832 27.832 0 0 1 8.152-19.681l68.448-68.447z" fill="#F3797D" p-id="18154"></path><path d="M901.122 838.562h55.665v-115.66c0-8.795-2.827-17.034-7.615-23.877l-39.898 39.898a27.831 27.831 0 0 0-8.152 19.68v79.959z" fill="#3A5CAC" p-id="18155"></path></svg>