<svg t="1619420662387" class="icon" viewBox="0 0 1024 1024" version="1.1" xmlns="http://www.w3.org/2000/svg" p-id="2638" width="200" height="200"><path d="M512 901.76a352 352 0 1 1 352-352A352.426667 352.426667 0 0 1 512 901.76z m0-640a288 288 0 1 0 288 288A288.213333 288.213333 0 0 0 512 261.76z" fill="#0091FD" p-id="2639"></path><path d="M809.386667 401.92a31.786667 31.786667 0 0 1-25.6-50.986667 105.173333 105.173333 0 1 0-168.96-125.226666 32.213333 32.213333 0 0 1-44.8 6.613333 31.786667 31.786667 0 0 1-6.613334-44.8 169.173333 169.173333 0 0 1 271.786667 201.6 32.426667 32.426667 0 0 1-25.813333 12.8zM219.093333 401.92a32.213333 32.213333 0 0 1-25.813333-12.8A169.173333 169.173333 0 1 1 465.066667 187.52a32 32 0 1 1-51.413334 38.186667 105.173333 105.173333 0 1 0-168.96 125.226666 32.213333 32.213333 0 0 1-6.613333 44.8 31.573333 31.573333 0 0 1-18.986667 6.186667z" fill="#F7B500" p-id="2640"></path><path d="M219.093333 401.92a31.573333 31.573333 0 0 0 18.986667-6.186667 32.213333 32.213333 0 0 0 6.613333-44.8 106.666667 106.666667 0 0 1-10.24-17.066666 360.96 360.96 0 0 0-37.333333 59.306666 31.786667 31.786667 0 0 0 21.973333 8.746667zM413.653333 225.706667a32 32 0 0 0 56.96-25.386667 364.586667 364.586667 0 0 0-66.773333 14.506667 96.213333 96.213333 0 0 1 9.813333 10.88z" fill="#006700" p-id="2641"></path><path d="M490.666667 631.253333a32 32 0 0 1-32-32V426.666667a32 32 0 0 1 64 0v171.946666a32 32 0 0 1-32 32.64z" fill="#F7B500" p-id="2642"></path><path d="M490.666667 631.253333a32.213333 32.213333 0 0 1-22.613334-9.386666 31.786667 31.786667 0 0 1 0-45.226667l120.32-120.32a32 32 0 0 1 45.226667 45.226667l-120.32 120.32a32.213333 32.213333 0 0 1-22.613333 9.386666z" fill="#F7B500" p-id="2643"></path><path d="M791.893333 337.28a88.533333 88.533333 0 0 1-8.106666 13.653333 31.786667 31.786667 0 0 0 44.373333 44.8 356.693333 356.693333 0 0 0-36.266667-58.453333zM570.026667 232.32a32.213333 32.213333 0 0 0 44.8-6.613333 74.026667 74.026667 0 0 1 8.533333-9.6 354.56 354.56 0 0 0-65.706667-15.146667 32.213333 32.213333 0 0 0 12.373334 31.36z" fill="#006700" p-id="2644"></path></svg>