<svg t="1618881688955" class="icon" viewBox="0 0 1024 1024" version="1.1" xmlns="http://www.w3.org/2000/svg" p-id="3037" width="200" height="200"><path d="M544 832v160a32 32 0 1 1-64 0V832h64z m-177.792 0h83.328l-165.696 181.568-1.088 1.152a31.36 31.36 0 0 1-44.416-0.192l-1.408-1.408a32 32 0 0 1-0.448-44.608L366.208 832z m209.216 0h83.328l129.728 136.512a32 32 0 0 1-0.512 44.608l-1.344 1.408a31.36 31.36 0 0 1-44.416 0.192l-1.088-1.152L575.36 832z m330.432-640C971.136 192 1024 232 1024 292.544v438.912c0 60.544-52.928 100.544-118.144 100.544H118.144C52.864 832 0 792 0 731.456V292.48C0 232 52.928 192 118.144 192h787.712z m14.72 64H103.424C81.6 256 64 272.384 64 292.544v438.912c0 20.16 17.664 36.544 39.36 36.544h817.28c21.76 0 39.36-16.384 39.36-36.544V292.48c0-20.16-17.6-36.544-39.36-36.544z m-526.72 256c21.76 0 39.36 16.384 39.36 36.544 0 20.224-17.6 36.608-39.36 36.608H236.288c-21.76 0-39.36-16.384-39.36-36.608 0-20.16 17.6-36.48 39.36-36.544h157.568z m236.288-146.304c21.76 0 39.36 16.384 39.36 36.608 0 20.16-17.6 36.544-39.36 36.544H236.288c-21.76 0-39.36-16.384-39.36-36.544 0-20.224 17.6-36.608 39.36-36.608h393.856zM512 0c21.76 0 39.36 16.384 39.36 36.544V64h432.64c14.08 0 32 13.76 32 31.808 0 18.048-17.92 32.192-32 32.192H38.912C17.088 128 0 115.968 0 95.808 0 75.52 17.088 64 38.848 64h433.792V36.544C472.64 16.384 490.24 0 512 0z" fill="#34A854" p-id="3038"></path></svg>