<svg t="1618993952742" class="icon" viewBox="0 0 1024 1024" version="1.1" xmlns="http://www.w3.org/2000/svg" p-id="38270" width="200" height="200"><path d="M417.28 7.68H148.48C89.6 7.68 40.96 56.32 40.96 115.2v266.24c0 58.88 48.64 107.52 107.52 107.52h266.24c58.88 0 107.52-48.64 107.52-107.52V115.2c2.56-58.88-46.08-107.52-104.96-107.52z m35.84 373.76c0 20.48-15.36 35.84-35.84 35.84H148.48c-20.48 0-35.84-15.36-35.84-35.84V115.2c0-20.48 15.36-35.84 35.84-35.84h268.8c20.48 0 35.84 15.36 35.84 35.84v266.24zM417.28 542.72H148.48c-58.88 0-107.52 48.64-107.52 107.52v266.24c0 58.88 48.64 107.52 107.52 107.52h266.24c58.88 0 107.52-48.64 107.52-107.52V650.24c0-28.16-10.24-56.32-30.72-76.8-17.92-20.48-46.08-30.72-74.24-30.72z m35.84 107.52v266.24c0 20.48-15.36 35.84-35.84 35.84H148.48c-20.48 0-35.84-15.36-35.84-35.84V650.24c0-20.48 15.36-35.84 35.84-35.84h268.8c10.24 0 17.92 2.56 25.6 10.24 5.12 5.12 10.24 15.36 10.24 25.6zM883.2 732.16H599.04c-28.16 0-51.2 23.04-51.2 51.2s23.04 51.2 51.2 51.2h284.16c28.16 0 51.2-23.04 51.2-51.2s-23.04-51.2-51.2-51.2zM727.04 908.8h-128c-28.16 0-51.2 23.04-51.2 51.2s23.04 51.2 51.2 51.2h128c28.16 0 51.2-23.04 51.2-51.2s-23.04-51.2-51.2-51.2zM957.44 552.96h-358.4c-28.16 0-51.2 23.04-51.2 51.2s23.04 51.2 51.2 51.2h355.84c28.16 0 51.2-23.04 51.2-51.2 2.56-28.16-20.48-51.2-48.64-51.2z" fill="#05a949" p-id="38271"></path><path d="M942.08 69.12C898.56 25.6 842.24 2.56 778.24 2.56c-15.36 0-30.72 15.36-30.72 30.72v199.68c0 15.36 15.36 30.72 30.72 30.72h199.68c15.36 0 30.72-15.36 30.72-30.72 0-61.44-23.04-120.32-66.56-163.84zM896 115.2c23.04 25.6 38.4 53.76 46.08 87.04h-130.56V69.12c33.28 7.68 61.44 23.04 84.48 46.08z" fill="#05a949" p-id="38272"></path><path d="M975.36 279.04l-2.56-2.56h-10.24c-12.8 0-23.04 7.68-30.72 20.48-17.92 40.96-48.64 69.12-87.04 87.04-23.04 10.24-46.08 15.36-66.56 15.36-66.56 0-122.88-38.4-151.04-99.84-17.92-40.96-17.92-87.04-2.56-128s48.64-74.24 89.6-92.16c15.36-5.12 23.04-25.6 17.92-40.96-2.56-10.24-10.24-20.48-30.72-20.48-5.12 0-7.68 2.56-10.24 2.56h-2.56c-53.76 25.6-97.28 66.56-120.32 120.32-23.04 56.32-25.6 117.76 0 176.64 23.04 56.32 66.56 102.4 122.88 125.44 28.16 12.8 58.88 17.92 89.6 17.92 46.08 0 89.6-12.8 128-38.4s66.56-61.44 84.48-102.4c5.12-7.68 5.12-15.36 0-23.04-2.56-7.68-7.68-12.8-17.92-17.92z" fill="#05a949" p-id="38273"></path></svg>