<svg t="1618815359419" class="icon" viewBox="0 0 1024 1024" version="1.1" xmlns="http://www.w3.org/2000/svg" p-id="22511" width="200" height="200"><path d="M262 337.9c9.1 0 18.3-3.5 25.3-10.5l189-191.4v535.3c0 19.7 16 35.7 35.7 35.7s35.7-16 35.7-35.7v-533l189.1 189.1c14 14 36.6 14 50.5 0 14-13.9 14-36.6 0-50.5L558.5 48.1l-0.9-0.5c-28-23.2-69.9-21.7-96.1 4.6L236.7 276.9c-14 13.9-14 36.6 0 50.5 7 7 16.1 10.5 25.3 10.5z" fill="#27D0D8" p-id="22512"></path><path d="M845.4 111.6c-19.7 0-35.7 16-35.7 35.7s16 35.7 35.7 35.7c59.1 0 107.2 48.1 107.2 107.2v523.9c0 59.1-48.1 107.2-107.2 107.2H178.6c-59.1 0-107.2-48.1-107.2-107.2V290.2c0-59.1 48.1-107.2 107.2-107.2 19.7 0 35.7-16 35.7-35.7s-16-35.7-35.7-35.7C80.1 111.6 0 191.8 0 290.2v523.9c0 98.5 80.1 178.6 178.6 178.6h666.8c98.5 0 178.6-80.1 178.6-178.6V290.2c0-98.4-80.1-178.6-178.6-178.6z" fill="#27D0D8" p-id="22513"></path></svg>