<svg t="1618992800871" class="icon" viewBox="0 0 1024 1024" version="1.1" xmlns="http://www.w3.org/2000/svg" p-id="12155" width="200" height="200"><path d="M849.170732 0c97.404878 0 174.829268 77.42439 174.829268 174.829268v674.341464c0 97.404878-77.42439 174.829268-174.829268 174.829268H174.829268c-97.404878 0-174.829268-77.42439-174.829268-174.829268V174.829268c0-97.404878 77.42439-174.829268 174.829268-174.829268h674.341464z m-64.936586 249.756098h-524.487805v444.565853L224.780488 799.219512h124.878049l27.47317-84.917073V309.697561h292.214634v427.082927h-109.892682l32.468292 59.941463h194.809756V249.756098z m-139.863414 284.721951h-247.258537v187.317073h247.258537v-187.317073z m-104.897561 57.443902v69.931708h-37.463415v-69.931708h37.463415zM574.439024 327.180488h-107.395122v32.468292h-72.429268v57.443903h72.429268v34.965854h-77.42439v57.443902h262.243903v-57.443902H574.439024v-34.965854h72.429269v-57.443903H574.439024v-32.468292z" fill="#0E7EB7" p-id="12156"></path></svg>