<svg t="1618991693475" class="icon" viewBox="0 0 1024 1024" version="1.1" xmlns="http://www.w3.org/2000/svg" p-id="3347" width="200" height="200"><path d="M901.565217 779.130435h-311.652174v133.565217h133.565218a22.26087 22.26087 0 0 1 0 44.521739h-400.695652a22.26087 22.26087 0 0 1 0-44.521739h133.565217v-133.565217h-333.913043a89.043478 89.043478 0 0 1-89.043479-89.043478V155.826087a89.043478 89.043478 0 0 1 89.043479-89.043478h779.130434a89.043478 89.043478 0 0 1 89.043479 89.043478v534.26087a89.043478 89.043478 0 0 1-89.043479 89.043478z m-356.173913 133.565217v-133.565217h-44.521739v133.565217h44.521739z m400.695653-756.869565a44.521739 44.521739 0 0 0-44.52174-44.521739h-779.130434a44.521739 44.521739 0 0 0-44.52174 44.521739v445.217391h868.173914V155.826087z m0 489.73913h-868.173914v44.52174a44.521739 44.521739 0 0 0 44.52174 44.521739h779.130434a44.521739 44.521739 0 0 0 44.52174-44.521739v-44.52174z" fill="#FE6572" p-id="3348"></path></svg>