<?xml version="1.0" standalone="no"?><!DOCTYPE svg PUBLIC "-//W3C//DTD SVG 1.1//EN" "http://www.w3.org/Graphics/SVG/1.1/DTD/svg11.dtd">
<svg t="1631160427220" class="icon" viewBox="0 0 1024 1024" version="1.1" xmlns="http://www.w3.org/2000/svg" p-id="5341"
     width="200" height="200"><defs><style type="text/css"></style></defs><path d="M79 139v749c0 18 14.6 32.5 32.5 32.5 18 0 32.5-14.6 32.5-32.5V319.2c0-18 14.6-32.5 32.5-32.5H830c25.8 0 41.3-28.6 27.3-50.3l-30.9-47.6c-6-9.2-16.3-14.8-27.3-14.8H429.9c-11.6 0-22.3-6.1-28.1-16.1l-20.6-35.3c-5.8-10-16.5-16.1-28.1-16.1H111.5C93.6 106.5 79 121.1 79 139z" fill="#54D3CC" p-id="5342"></path><path d="M111.5 935.5C85.3 935.5 64 914.2 64 888V139c0-26.2 21.3-47.5 47.5-47.5h241.6c16.8 0 32.6 9 41.1 23.6l20.6 35.3c3.1 5.4 8.9 8.7 15.1 8.7H799c16.2 0 31 8.1 39.8 21.6l30.9 47.6c9.5 14.6 10.2 33.2 1.9 48.6-8.3 15.3-24.3 24.9-41.8 24.9H176.6c-9.7 0-17.5 7.9-17.5 17.5V888c0 26.2-21.4 47.5-47.6 47.5z m0-814c-9.7 0-17.5 7.9-17.5 17.5v749c0 9.7 7.9 17.5 17.5 17.5S129 897.6 129 888V319.2c0-26.2 21.3-47.5 47.5-47.5H830c6.5 0 12.3-3.4 15.4-9.2 3.1-5.7 2.8-12.4-0.7-17.9l-31-47.6c-3.2-5-8.7-8-14.7-8H429.9c-16.8 0-32.6-9-41.1-23.6l-20.6-35.3c-3.1-5.4-8.9-8.7-15.1-8.7H111.5z" fill="#2A4964" p-id="5343"></path><path d="M894.3 917.3H207.9V398.7c0-27.7 22.5-50.2 50.2-50.2h636.3c27.7 0 50.2 22.5 50.2 50.2v468.4c-0.1 27.8-22.6 50.2-50.3 50.2z" fill="#54D3CC" p-id="5344"></path><path d="M894.3 932.3H192.9V398.7c0-35.9 29.2-65.2 65.2-65.2h636.3c35.9 0 65.2 29.2 65.2 65.2v468.4c-0.1 36-29.4 65.2-65.3 65.2z m-671.4-30h671.4c19.4 0 35.2-15.8 35.2-35.2V398.7c0-19.4-15.8-35.2-35.2-35.2H258.1c-19.4 0-35.2 15.8-35.2 35.2v503.6z" fill="#2A4964" p-id="5345"></path><path d="M575.2 633m-200 0a200 200 0 1 0 400 0 200 200 0 1 0-400 0Z" fill="#DDF0F0" p-id="5346"></path><path d="M575.2 848c-57.4 0-111.4-22.4-152-63-40.6-40.6-63-94.6-63-152 0-57.4 22.4-111.4 63-152s94.6-63 152-63 111.4 22.4 152 63c40.6 40.6 63 94.6 63 152 0 57.4-22.4 111.4-63 152-40.6 40.6-94.6 63-152 63z m0-400c-102 0-185 83-185 185s83 185 185 185 185-83 185-185-83-185-185-185z" fill="#2A4964" p-id="5347"></path><path d="M583 739.9h-15.6c-6.6 0-12-5.4-12-12V538.1c0-6.6 5.4-12 12-12H583c6.6 0 12 5.4 12 12v189.8c0 6.6-5.4 12-12 12z" fill="#F25168" p-id="5348"></path><path d="M468.3 640.8v-15.6c0-6.6 5.4-12 12-12h189.8c6.6 0 12 5.4 12 12v15.6c0 6.6-5.4 12-12 12H480.3c-6.6 0-12-5.4-12-12z" fill="#F25168" p-id="5349"></path></svg>
